<svg viewBox="0 0 330 200" xmlns="http://www.w3.org/2000/svg"><g><g><g><g><g><line x1="32" y1="178" x2="27" y2="178" style="visibility: inherit;" fill="rgb(0, 0, 0)" stroke="rgb(204, 204, 204)" stroke-width="1px"></line><line x1="32" y1="165.28571436637537" x2="27" y2="165.28571436637537" style="visibility: inherit;" fill="rgb(0, 0, 0)" stroke="rgb(204, 204, 204)" stroke-width="1px"></line><line x1="32" y1="152.57142873275077" x2="27" y2="152.57142873275077" style="visibility: inherit;" fill="rgb(0, 0, 0)" stroke="rgb(204, 204, 204)" stroke-width="1px"></line><line x1="32" y1="139.85714309912618" x2="27" y2="139.85714309912618" style="visibility: inherit;" fill="rgb(0, 0, 0)" stroke="rgb(204, 204, 204)" stroke-width="1px"></line><line x1="32" y1="127.14285746550155" x2="27" y2="127.14285746550155" style="visibility: inherit;" fill="rgb(0, 0, 0)" stroke="rgb(204, 204, 204)" stroke-width="1px"></line><line x1="32" y1="114.42857070262151" x2="27" y2="114.42857070262151" style="visibility: inherit;" fill="rgb(0, 0, 0)" stroke="rgb(204, 204, 204)" stroke-width="1px"></line><line x1="32" y1="101.7142850689969" x2="27" y2="101.7142850689969" style="visibility: inherit;" fill="rgb(0, 0, 0)" stroke="rgb(204, 204, 204)" stroke-width="1px"></line><line x1="32" y1="88.99999943537229" x2="27" y2="88.99999943537229" style="visibility: inherit;" fill="rgb(0, 0, 0)" stroke="rgb(204, 204, 204)" stroke-width="1px"></line><line x1="32" y1="76.28571380174768" x2="27" y2="76.28571380174768" style="visibility: inherit;" fill="rgb(0, 0, 0)" stroke="rgb(204, 204, 204)" stroke-width="1px"></line><line x1="32" y1="63.57142816812306" x2="27" y2="63.57142816812306" style="visibility: inherit;" fill="rgb(0, 0, 0)" stroke="rgb(204, 204, 204)" stroke-width="1px"></line><line x1="32" y1="50.857142534498465" x2="27" y2="50.857142534498465" style="visibility: inherit;" fill="rgb(0, 0, 0)" stroke="rgb(204, 204, 204)" stroke-width="1px"></line><line x1="32" y1="38.14285690087385" x2="27" y2="38.14285690087385" style="visibility: inherit;" fill="rgb(0, 0, 0)" stroke="rgb(204, 204, 204)" stroke-width="1px"></line><line x1="32" y1="25.428571267249225" x2="27" y2="25.428571267249225" style="visibility: inherit;" fill="rgb(0, 0, 0)" stroke="rgb(204, 204, 204)" stroke-width="1px"></line><line x1="32" y1="12.714285633624627" x2="27" y2="12.714285633624627" style="visibility: inherit;" fill="rgb(0, 0, 0)" stroke="rgb(204, 204, 204)" stroke-width="1px"></line><line x1="32" y1="0" x2="27" y2="0" style="visibility: inherit;" fill="rgb(0, 0, 0)" stroke="rgb(204, 204, 204)" stroke-width="1px"></line></g><g transform="translate(22, 0)"><text x="0" y="178" dx="0em" dy="0.3em" style="text-anchor: end; visibility: hidden; font-family: &quot;Helvetica Neue&quot;, sans-serif; font-size: 12px; font-weight: 200;" fill="rgb(50, 49, 63)" stroke="none" stroke-width="1px">10</text><text x="0" y="165.28571436637537" dx="0em" dy="0.3em" style="text-anchor: end; visibility: inherit; font-family: &quot;Helvetica Neue&quot;, sans-serif; font-size: 12px; font-weight: 200;" fill="rgb(50, 49, 63)" stroke="none" stroke-width="1px">10</text><text x="0" y="152.57142873275077" dx="0em" dy="0.3em" style="text-anchor: end; visibility: hidden; font-family: &quot;Helvetica Neue&quot;, sans-serif; font-size: 12px; font-weight: 200;" fill="rgb(50, 49, 63)" stroke="none" stroke-width="1px">10</text><text x="0" y="139.85714309912618" dx="0em" dy="0.3em" style="text-anchor: end; visibility: inherit; font-family: &quot;Helvetica Neue&quot;, sans-serif; font-size: 12px; font-weight: 200;" fill="rgb(50, 49, 63)" stroke="none" stroke-width="1px">10</text><text x="0" y="127.14285746550155" dx="0em" dy="0.3em" style="text-anchor: end; visibility: hidden; font-family: &quot;Helvetica Neue&quot;, sans-serif; font-size: 12px; font-weight: 200;" fill="rgb(50, 49, 63)" stroke="none" stroke-width="1px">10</text><text x="0" y="114.42857070262151" dx="0em" dy="0.3em" style="text-anchor: end; visibility: inherit; font-family: &quot;Helvetica Neue&quot;, sans-serif; font-size: 12px; font-weight: 200;" fill="rgb(50, 49, 63)" stroke="none" stroke-width="1px">10</text><text x="0" y="101.7142850689969" dx="0em" dy="0.3em" style="text-anchor: end; visibility: hidden; font-family: &quot;Helvetica Neue&quot;, sans-serif; font-size: 12px; font-weight: 200;" fill="rgb(50, 49, 63)" stroke="none" stroke-width="1px">10</text><text x="0" y="88.99999943537229" dx="0em" dy="0.3em" style="text-anchor: end; visibility: inherit; font-family: &quot;Helvetica Neue&quot;, sans-serif; font-size: 12px; font-weight: 200;" fill="rgb(50, 49, 63)" stroke="none" stroke-width="1px">10</text><text x="0" y="76.28571380174768" dx="0em" dy="0.3em" style="text-anchor: end; visibility: hidden; font-family: &quot;Helvetica Neue&quot;, sans-serif; font-size: 12px; font-weight: 200;" fill="rgb(50, 49, 63)" stroke="none" stroke-width="1px">10</text><text x="0" y="63.57142816812306" dx="0em" dy="0.3em" style="text-anchor: end; visibility: inherit; font-family: &quot;Helvetica Neue&quot;, sans-serif; font-size: 12px; font-weight: 200;" fill="rgb(50, 49, 63)" stroke="none" stroke-width="1px">10</text><text x="0" y="50.857142534498465" dx="0em" dy="0.3em" style="text-anchor: end; visibility: hidden; font-family: &quot;Helvetica Neue&quot;, sans-serif; font-size: 12px; font-weight: 200;" fill="rgb(50, 49, 63)" stroke="none" stroke-width="1px">10</text><text x="0" y="38.14285690087385" dx="0em" dy="0.3em" style="text-anchor: end; visibility: inherit; font-family: &quot;Helvetica Neue&quot;, sans-serif; font-size: 12px; font-weight: 200;" fill="rgb(50, 49, 63)" stroke="none" stroke-width="1px">10</text><text x="0" y="25.428571267249225" dx="0em" dy="0.3em" style="text-anchor: end; visibility: hidden; font-family: &quot;Helvetica Neue&quot;, sans-serif; font-size: 12px; font-weight: 200;" fill="rgb(50, 49, 63)" stroke="none" stroke-width="1px">10</text><text x="0" y="12.714285633624627" dx="0em" dy="0.3em" style="text-anchor: end; visibility: inherit; font-family: &quot;Helvetica Neue&quot;, sans-serif; font-size: 12px; font-weight: 200;" fill="rgb(50, 49, 63)" stroke="none" stroke-width="1px">10</text><text x="0" y="0" dx="0em" dy="0.3em" style="text-anchor: end; visibility: hidden; font-family: &quot;Helvetica Neue&quot;, sans-serif; font-size: 12px; font-weight: 200;" fill="rgb(50, 49, 63)" stroke="none" stroke-width="1px">10</text></g><line x1="32" y1="0" x2="32" y2="178" fill="rgb(0, 0, 0)" stroke="rgb(204, 204, 204)" stroke-width="1px"></line></g></g><g transform="translate(32, 0)" clip-path="url(#clip_0)"><clipPath id="clip_0"><rect width="298" height="178"></rect></clipPath><g><g><g><line x1="0" y1="0" x2="0" y2="178" fill="rgb(0, 0, 0)" stroke="rgb(60, 60, 60)" stroke-width="1px" opacity="0.25"></line><line x1="22.923076923076923" y1="0" x2="22.923076923076923" y2="178" fill="rgb(0, 0, 0)" stroke="rgb(60, 60, 60)" stroke-width="1px" opacity="0.25"></line><line x1="45.84615384615385" y1="0" x2="45.84615384615385" y2="178" fill="rgb(0, 0, 0)" stroke="rgb(60, 60, 60)" stroke-width="1px" opacity="0.25"></line><line x1="68.76923076923077" y1="0" x2="68.76923076923077" y2="178" fill="rgb(0, 0, 0)" stroke="rgb(60, 60, 60)" stroke-width="1px" opacity="0.25"></line><line x1="91.6923076923077" y1="0" x2="91.6923076923077" y2="178" fill="rgb(0, 0, 0)" stroke="rgb(60, 60, 60)" stroke-width="1px" opacity="0.25"></line><line x1="114.61538461538463" y1="0" x2="114.61538461538463" y2="178" fill="rgb(0, 0, 0)" stroke="rgb(60, 60, 60)" stroke-width="1px" opacity="0.25"></line><line x1="137.53846153846155" y1="0" x2="137.53846153846155" y2="178" fill="rgb(0, 0, 0)" stroke="rgb(60, 60, 60)" stroke-width="1px" opacity="0.25"></line><line x1="160.46153846153845" y1="0" x2="160.46153846153845" y2="178" fill="rgb(0, 0, 0)" stroke="rgb(60, 60, 60)" stroke-width="1px" opacity="0.25"></line><line x1="183.3846153846154" y1="0" x2="183.3846153846154" y2="178" fill="rgb(0, 0, 0)" stroke="rgb(60, 60, 60)" stroke-width="1px" opacity="0.25"></line><line x1="206.3076923076923" y1="0" x2="206.3076923076923" y2="178" fill="rgb(0, 0, 0)" stroke="rgb(60, 60, 60)" stroke-width="1px" opacity="0.25"></line><line x1="229.23076923076925" y1="0" x2="229.23076923076925" y2="178" fill="rgb(0, 0, 0)" stroke="rgb(60, 60, 60)" stroke-width="1px" opacity="0.25"></line><line x1="252.15384615384616" y1="0" x2="252.15384615384616" y2="178" fill="rgb(0, 0, 0)" stroke="rgb(60, 60, 60)" stroke-width="1px" opacity="0.25"></line><line x1="275.0769230769231" y1="0" x2="275.0769230769231" y2="178" fill="rgb(0, 0, 0)" stroke="rgb(60, 60, 60)" stroke-width="1px" opacity="0.25"></line><line x1="298" y1="0" x2="298" y2="178" fill="rgb(0, 0, 0)" stroke="rgb(60, 60, 60)" stroke-width="1px" opacity="0.25"></line></g><g><line x1="0" y1="178" x2="298" y2="178" fill="rgb(0, 0, 0)" stroke="rgb(60, 60, 60)" stroke-width="1px" opacity="0.25"></line><line x1="0" y1="165.28571436637537" x2="298" y2="165.28571436637537" fill="rgb(0, 0, 0)" stroke="rgb(60, 60, 60)" stroke-width="1px" opacity="0.25"></line><line x1="0" y1="152.57142873275077" x2="298" y2="152.57142873275077" fill="rgb(0, 0, 0)" stroke="rgb(60, 60, 60)" stroke-width="1px" opacity="0.25"></line><line x1="0" y1="139.85714309912618" x2="298" y2="139.85714309912618" fill="rgb(0, 0, 0)" stroke="rgb(60, 60, 60)" stroke-width="1px" opacity="0.25"></line><line x1="0" y1="127.14285746550155" x2="298" y2="127.14285746550155" fill="rgb(0, 0, 0)" stroke="rgb(60, 60, 60)" stroke-width="1px" opacity="0.25"></line><line x1="0" y1="114.42857070262151" x2="298" y2="114.42857070262151" fill="rgb(0, 0, 0)" stroke="rgb(60, 60, 60)" stroke-width="1px" opacity="0.25"></line><line x1="0" y1="101.7142850689969" x2="298" y2="101.7142850689969" fill="rgb(0, 0, 0)" stroke="rgb(60, 60, 60)" stroke-width="1px" opacity="0.25"></line><line x1="0" y1="88.99999943537229" x2="298" y2="88.99999943537229" fill="rgb(0, 0, 0)" stroke="rgb(60, 60, 60)" stroke-width="1px" opacity="0.25"></line><line x1="0" y1="76.28571380174768" x2="298" y2="76.28571380174768" fill="rgb(0, 0, 0)" stroke="rgb(60, 60, 60)" stroke-width="1px" opacity="0.25"></line><line x1="0" y1="63.57142816812306" x2="298" y2="63.57142816812306" fill="rgb(0, 0, 0)" stroke="rgb(60, 60, 60)" stroke-width="1px" opacity="0.25"></line><line x1="0" y1="50.857142534498465" x2="298" y2="50.857142534498465" fill="rgb(0, 0, 0)" stroke="rgb(60, 60, 60)" stroke-width="1px" opacity="0.25"></line><line x1="0" y1="38.14285690087385" x2="298" y2="38.14285690087385" fill="rgb(0, 0, 0)" stroke="rgb(60, 60, 60)" stroke-width="1px" opacity="0.25"></line><line x1="0" y1="25.428571267249225" x2="298" y2="25.428571267249225" fill="rgb(0, 0, 0)" stroke="rgb(60, 60, 60)" stroke-width="1px" opacity="0.25"></line><line x1="0" y1="12.714285633624627" x2="298" y2="12.714285633624627" fill="rgb(0, 0, 0)" stroke="rgb(60, 60, 60)" stroke-width="1px" opacity="0.25"></line><line x1="0" y1="0" x2="298" y2="0" fill="rgb(0, 0, 0)" stroke="rgb(60, 60, 60)" stroke-width="1px" opacity="0.25"></line></g></g></g><g><g><line x1="0" y1="6357142880.876229" x2="298" y2="6357142880.876229" fill="rgb(0, 0, 0)" stroke="rgb(153, 153, 153)" stroke-width="1.5px"></line></g></g><g><g><line x1="22.923076923076923" y1="0" x2="22.923076923076923" y2="178" fill="rgb(0, 0, 0)" stroke="rgb(153, 153, 153)" stroke-width="1.5px"></line></g></g><g><g><g><g><g><path stroke="rgb(204, 51, 17)" stroke-width="2px" d="M40.68846153846153,267.74457399591097L40.917692307692306,170.81817267859518L41.0323076923077,112.66233279161005L41.49076923076923,77.76882818186571L42.06384615384616,56.832725190168034L42.178461538461534,44.2710640727027L42.52230769230769,36.73406785392564L43.209999999999994,32.21186967095724L43.324615384615385,29.498550083622945L43.55384615384616,27.870559008775615L43.89769230769231,26.893764363867234L44.12692307692308,26.307686447666782L44.24153846153846,25.956039697946522L44.47076923076923,25.745053003220846L44.699999999999996,25.618458953725707L44.81461538461539,25.542505234241617L45.61692307692308,25.49693187329575L46.53384615384615,25.469586953323898L46.64846153846154,25.453181130596192L46.76307692307692,25.443337411108473L47.22153846153846,25.437432534522372L48.36769230769231,25.433887801762012L48.48230769230769,25.431761413808005L48.71153846153846,25.43048648443991L49.17,25.429720849265806L49.51384615384615,25.429260113054823L49.62846153846154,25.42898570398802L49.74307692307692,25.428819703441405L50.08692307692307,25.42871919970912L51.4623076923077,25.428661607682727L52.15,25.42862547150932L52.49384615384616,25.42860401565639L52.723076923076924,25.42859159384679L52.83769230769231,25.428583689058854L53.066923076923075,25.428578042781737L53.52538461538462,25.42857578427092L53.98384615384616,25.428573525760072L54.21307692307692,25.428573525760072L54.78615384615385,25.428573525760072L56.39076923076923,25.428573525760072L56.96384615384615,25.428573525760072L57.07846153846154,25.428573525760072L57.53692307692308,25.428573525760072L57.651538461538465,25.428573525760072L58.11,25.428573525760072L58.22461538461538,25.428573525760072L58.45384615384615,25.428573525760072L58.7976923076923,25.428573525760072L59.370769230769234,25.428573525760072L59.48538461538461,25.428573525760072L59.6,25.428573525760072L60.17307692307693,25.428573525760072L60.2876923076923,25.428573525760072L60.402307692307694,25.428573525760072L60.746153846153845,25.428573525760072L61.777692307692305,25.428573525760072L62.00692307692308,25.428573525760072L62.69461538461539,25.428573525760072L63.38230769230769,25.428573525760072L63.496923076923075,25.428573525760072L64.18461538461538,25.428573525760072L64.52846153846154,25.428573525760072L64.98692307692308,25.428573525760072L65.44538461538463,25.428573525760072L65.67461538461538,25.428573525760072L66.13307692307693,25.428573525760072L66.2476923076923,25.428573525760072L66.3623076923077,25.428573525760072L66.59153846153846,25.428573525760072L67.16461538461539,25.428573525760072L67.7376923076923,25.428573525760072L67.85230769230769,25.428573525760072L67.96692307692308,25.428573525760072L69.68615384615384,25.428573525760072L70.48846153846154,25.428573525760072L71.17615384615385,25.428573525760072L71.29076923076923,25.428573525760072L71.52,25.428573525760072L71.74923076923076,25.428573525760072L72.20769230769231,25.428573525760072L73.23923076923077,25.428573525760072L73.46846153846154,25.428573525760072L73.58307692307692,25.428573525760072L73.92692307692307,25.428573525760072L74.61461538461538,25.428573525760072L75.53153846153846,25.428573525760072L75.64615384615384,25.428573525760072L75.99,25.428573525760072L76.10461538461539,25.428573525760072L77.13615384615385,25.428573525760072L77.25076923076922,25.428573525760072L78.51153846153846,25.428573525760072L78.85538461538462,25.428573525760072L78.97,25.428573525760072L79.19923076923077,25.428573525760072L79.42846153846155,25.428573525760072L81.03307692307692,25.428573525760072L81.60615384615384,25.428573525760072L81.83538461538461,25.428573525760072L82.17923076923077,25.428573525760072L82.40846153846152,25.428573525760072L82.98153846153846,25.428573525760072L83.09615384615385,25.428573525760072L83.78384615384616,25.428573525760072L84.01307692307692,25.428573525760072L84.12769230769231,25.428573525760072L84.35692307692307,25.428573525760072L84.47153846153847,25.428573525760072L84.81538461538462,25.428573525760072L85.04461538461538,25.428573525760072L85.61769230769231,25.428573525760072L85.73230769230769,25.428573525760072L86.76384615384616,25.428573525760072L86.99307692307691,25.428573525760072L87.45153846153846,25.428573525760072L87.56615384615385,25.428573525760072L87.68076923076923,25.428573525760072L88.13923076923078,25.428573525760072L88.59769230769231,25.428573525760072L88.71230769230769,25.428573525760072L89.05615384615385,25.428573525760072L89.28538461538461,25.428573525760072L89.39999999999999,25.428573525760072L89.51461538461538,25.428573525760072L89.62923076923077,25.428573525760072L89.74384615384615,25.428573525760072L89.85846153846154,25.428573525760072L90.08769230769232,25.428573525760072L90.2023076923077,25.428573525760072L90.77538461538462,25.428573525760072L90.89,25.428573525760072L91.34846153846154,25.428573525760072L91.6923076923077,25.428573525760072L91.92153846153846,25.428573525760072L92.60923076923076,25.428573525760072L92.83846153846154,25.428573525760072L93.41153846153846,25.428573525760072L93.87,25.428573525760072L93.98461538461538,25.428573525760072L94.21384615384616,25.428573525760072L95.58923076923077,25.428573525760072L96.39153846153846,25.428573525760072L96.50615384615385,25.428573525760072L96.73538461538462,25.428573525760072L96.85000000000001,25.428573525760072L96.96461538461539,25.428573525760072L97.07923076923076,25.428573525760072L97.30846153846154,25.428573525760072L97.65230769230769,25.428573525760072L98.11076923076922,25.428573525760072L98.22538461538461,25.428573525760072L98.68384615384615,25.428573525760072L99.0276923076923,25.428573525760072L99.48615384615384,25.428573525760072L99.83000000000001,25.428573525760072L99.94461538461539,25.428573525760072L100.05923076923077,25.428573525760072L100.17384615384614,25.428573525760072L100.28846153846155,25.428573525760072L100.51769230769231,25.428573525760072L100.63230769230769,25.428573525760072L100.74692307692307,25.428573525760072L101.09076923076923,25.428573525760072L101.20538461538462,25.428573525760072L101.32000000000001,25.428573525760072L101.54923076923077,25.428573525760072L101.77846153846153,25.428573525760072L101.89307692307693,25.428573525760072L102.69538461538461,25.428573525760072L103.03923076923077,25.428573525760072L103.4976923076923,25.428573525760072L103.84153846153848,25.428573525760072L104.07076923076923,25.428573525760072L104.3,25.428573525760072L104.75846153846153,25.428573525760072L105.21692307692308,25.428573525760072L105.56076923076924,25.428573525760072L105.67538461538462,25.428573525760072L105.78999999999999,25.428573525760072L105.9046153846154,25.428573525760072L106.5923076923077,25.428573525760072L107.28,25.428573525760072L107.50923076923077,25.428573525760072L107.62384615384616,25.428573525760072L108.0823076923077,25.428573525760072L108.42615384615384,25.428573525760072L108.54076923076923,25.428573525760072L108.88461538461537,25.428573525760072L108.99923076923078,25.428573525760072L109.11384615384615,25.428573525760072L109.34307692307692,25.428573525760072L109.5723076923077,25.428573525760072L110.26,25.428573525760072L110.60384615384616,25.428573525760072L110.71846153846154,25.428573525760072L111.0623076923077,25.428573525760072L111.17692307692307,25.428573525760072L111.29153846153847,25.428573525760072L111.52076923076923,25.428573525760072L111.63538461538462,25.428573525760072L112.32307692307693,25.428573525760072L112.78153846153846,25.428573525760072L112.89615384615384,25.428573525760072L113.12538461538462,25.428573525760072L113.35461538461539,25.428573525760072L113.58384615384617,25.428573525760072L113.69846153846154,25.428573525760072L113.81307692307692,25.428573525760072L113.9276923076923,25.428573525760072L114.04230769230769,25.428573525760072L114.38615384615385,25.428573525760072L114.61538461538463,25.428573525760072L114.84461538461538,25.428573525760072L115.18846153846154,25.428573525760072L115.4176923076923,25.428573525760072L115.53230769230768,25.428573525760072L115.64692307692309,25.428573525760072L116.33461538461539,25.428573525760072L116.44923076923077,25.428573525760072L116.67846153846155,25.428573525760072L117.02230769230769,25.428573525760072L117.48076923076923,25.428573525760072L117.82461538461538,25.428573525760072L118.16846153846154,25.428573525760072L118.28307692307692,25.428573525760072L118.51230769230769,25.428573525760072L118.74153846153847,25.428573525760072L118.97076923076922,25.428573525760072L119.54384615384615,25.428573525760072L119.8876923076923,25.428573525760072L120.11692307692307,25.428573525760072L121.83615384615385,25.428573525760072L122.29461538461538,25.428573525760072L122.52384615384615,25.428573525760072L122.63846153846153,25.428573525760072L123.09692307692308,25.428573525760072L123.32615384615386,25.428573525760072L123.44076923076923,25.428573525760072L123.78461538461539,25.428573525760072L124.01384615384616,25.428573525760072L124.24307692307691,25.428573525760072L124.58692307692307,25.428573525760072L124.81615384615385,25.428573525760072L124.93076923076923,25.428573525760072L125.16,25.428573525760072L125.61846153846153,25.428573525760072L126.07692307692308,25.428573525760072L126.87923076923077,25.428573525760072L126.99384615384615,25.428573525760072L127.10846153846154,25.428573525760072L127.22307692307692,25.428573525760072L127.4523076923077,25.428573525760072L127.79615384615384,25.428573525760072L127.91076923076923,25.428573525760072L128.0253846153846,25.428573525760072L128.36923076923077,25.428573525760072L128.48384615384614,25.428573525760072L128.59846153846155,25.428573525760072L128.71307692307693,25.428573525760072L129.63,25.428573525760072L129.74461538461537,25.428573525760072L130.08846153846153,25.428573525760072L130.89076923076925,25.428573525760072L131.23461538461538,25.428573525760072L132.15153846153845,25.428573525760072L132.26615384615386,25.428573525760072L132.4953846153846,25.428573525760072L132.61,25.428573525760072L132.7246153846154,25.428573525760072L133.06846153846155,25.428573525760072L133.18307692307692,25.428573525760072L133.41230769230768,25.428573525760072L133.64153846153846,25.428573525760072L134.21461538461537,25.428573525760072L134.32923076923078,25.428573525760072L134.7876923076923,25.428573525760072L134.9023076923077,25.428573525760072L135.0169230769231,25.428573525760072L135.13153846153847,25.428573525760072L135.4753846153846,25.428573525760072L135.59,25.428573525760072L135.70461538461538,25.428573525760072L136.04846153846154,25.428573525760072L136.16307692307691,25.428573525760072L137.08,25.428573525760072L137.53846153846155,25.428573525760072L137.7676923076923,25.428573525760072L137.99692307692308,25.428573525760072L138.11153846153846,25.428573525760072L138.45538461538462,25.428573525760072L138.79923076923077,25.428573525760072L138.91384615384615,25.428573525760072L139.02846153846153,25.428573525760072L139.14307692307693,25.428573525760072L139.48692307692306,25.428573525760072L140.40384615384616,25.428573525760072L140.63307692307694,25.428573525760072L140.8623076923077,25.428573525760072L141.09153846153848,25.428573525760072L141.20615384615385,25.428573525760072L141.54999999999998,25.428573525760072L141.77923076923076,25.428573525760072L142.00846153846155,25.428573525760072L142.58153846153846,25.428573525760072L143.38384615384615,25.428573525760072L143.49846153846153,25.428573525760072L143.84230769230768,25.428573525760072L144.07153846153847,25.428573525760072L144.75923076923078,25.428573525760072L144.87384615384616,25.428573525760072L145.1030769230769,25.428573525760072L145.3323076923077,25.428573525760072L145.79076923076923,25.428573525760072L146.24923076923076,25.428573525760072L146.47846153846154,25.428573525760072L147.05153846153846,25.428573525760072L147.16615384615383,25.428573525760072L147.28076923076924,25.428573525760072L148.08307692307693,25.428573525760072L148.1976923076923,25.428573525760072L148.88538461538462,25.428573525760072L149.34384615384616,25.428573525760072L149.45846153846153,25.428573525760072L149.5730769230769,25.428573525760072L150.60461538461539,25.428573525760072L150.83384615384617,25.428573525760072L151.17769230769233,25.428573525760072L151.8653846153846,25.428573525760072L151.98,25.428573525760072L152.43846153846152,25.428573525760072L152.78230769230768,25.428573525760072L152.8969230769231,25.428573525760072L153.01153846153844,25.428573525760072L153.3553846153846,25.428573525760072L154.61615384615385,25.428573525760072L154.96,25.428573525760072L155.30384615384617,25.428573525760072L155.41846153846154,25.428573525760072L155.53307692307692,25.428573525760072L155.87692307692308,25.428573525760072L155.99153846153845,25.428573525760072L156.10615384615386,25.428573525760072L157.82538461538462,25.428573525760072L158.16923076923078,25.428573525760072L158.39846153846153,25.428573525760072L158.51307692307694,25.428573525760072L158.7423076923077,25.428573525760072L158.8569230769231,25.428573525760072L159.20076923076923,25.428573525760072L159.54461538461538,25.428573525760072L159.65923076923076,25.428573525760072L159.88846153846154,25.428573525760072L160.1176923076923,25.428573525760072L160.34692307692308,25.428573525760072L160.57615384615386,25.428573525760072L160.92000000000002,25.428573525760072L161.14923076923077,25.428573525760072L161.37846153846152,25.428573525760072L161.6076923076923,25.428573525760072L161.83692307692309,25.428573525760072L162.06615384615384,25.428573525760072L163.2123076923077,25.428573525760072L163.67076923076922,25.428573525760072L164.1292307692308,25.428573525760072L164.24384615384614,25.428573525760072L164.35846153846154,25.428573525760072L164.5876923076923,25.428573525760072L164.93153846153845,25.428573525760072L165.2753846153846,25.428573525760072L165.5046153846154,25.428573525760072L165.84846153846155,25.428573525760072L166.53615384615387,25.428573525760072L166.76538461538462,25.428573525760072L166.99461538461537,25.428573525760072L167.10923076923078,25.428573525760072L167.45307692307694,25.428573525760072L167.5676923076923,25.428573525760072L167.6823076923077,25.428573525760072L168.02615384615385,25.428573525760072L168.94307692307694,25.428573525760072L169.51615384615386,25.428573525760072L169.7453846153846,25.428573525760072L170.43307692307695,25.428573525760072L170.89153846153846,25.428573525760072L171.00615384615386,25.428573525760072L171.1207692307692,25.428573525760072L171.23538461538462,25.428573525760072L171.9230769230769,25.428573525760072L172.26692307692306,25.428573525760072L173.06923076923078,25.428573525760072L173.29846153846154,25.428573525760072L173.6423076923077,25.428573525760072L173.75692307692307,25.428573525760072L174.10076923076923,25.428573525760072L174.21538461538464,25.428573525760072L174.78846153846155,25.428573525760072L174.90307692307692,25.428573525760072L175.0176923076923,25.428573525760072L175.36153846153846,25.428573525760072L175.70538461538462,25.428573525760072L175.82,25.428573525760072L175.9346153846154,25.428573525760072L176.04923076923077,25.428573525760072L176.16384615384615,25.428573525760072L176.85153846153847,25.428573525760072L177.53923076923076,25.428573525760072L178.22692307692307,25.428573525760072L178.68538461538463,25.428573525760072L178.9146153846154,25.428573525760072L179.4876923076923,25.428573525760072L179.94615384615383,25.428573525760072L180.74846153846156,25.428573525760072L180.9776923076923,25.428573525760072L181.32153846153847,25.428573525760072L181.55076923076925,25.428573525760072L181.66538461538462,25.428573525760072L182.00923076923075,25.428573525760072L182.12384615384616,25.428573525760072L182.3530769230769,25.428573525760072L182.46769230769232,25.428573525760072L182.81153846153848,25.428573525760072L184.76,25.428573525760072L184.8746153846154,25.428573525760072L184.98923076923077,25.428573525760072L185.10384615384615,25.428573525760072L185.56230769230768,25.428573525760072L185.90615384615384,25.428573525760072L186.3646153846154,25.428573525760072L186.47923076923075,25.428573525760072L186.59384615384616,25.428573525760072L187.0523076923077,25.428573525760072L187.16692307692307,25.428573525760072L187.28153846153847,25.428573525760072L187.51076923076923,25.428573525760072L187.74,25.428573525760072L187.96923076923076,25.428573525760072L188.19846153846152,25.428573525760072L189.1153846153846,25.428573525760072L189.68846153846152,25.428573525760072L189.80307692307693,25.428573525760072L190.83461538461538,25.428573525760072L190.94923076923075,25.428573525760072L192.21,25.428573525760072L192.78307692307692,25.428573525760072L193.12692307692308,25.428573525760072L193.24153846153845,25.428573525760072L193.5853846153846,25.428573525760072L193.81461538461537,25.428573525760072L193.92923076923077,25.428573525760072L194.84615384615384,25.428573525760072L194.96076923076924,25.428573525760072L195.07538461538462,25.428573525760072L195.19,25.428573525760072L195.53384615384616,25.428573525760072L195.76307692307694,25.428573525760072L195.87769230769229,25.428573525760072L195.9923076923077,25.428573525760072L196.90923076923076,25.428573525760072L197.4823076923077,25.428573525760072L197.59692307692308,25.428573525760072L197.9407692307692,25.428573525760072L198.74307692307693,25.428573525760072L198.97230769230768,25.428573525760072L200.11846153846153,25.428573525760072L200.69153846153844,25.428573525760072L200.80615384615385,25.428573525760072L201.03538461538463,25.428573525760072L201.15,25.428573525760072L201.8376923076923,25.428573525760072L201.9523076923077,25.428573525760072L202.64000000000001,25.428573525760072L202.7546153846154,25.428573525760072L203.78615384615387,25.428573525760072L204.24461538461537,25.428573525760072L204.47384615384615,25.428573525760072L204.9323076923077,25.428573525760072L205.96384615384613,25.428573525760072L206.19307692307694,25.428573525760072L206.53692307692307,25.428573525760072L206.76615384615386,25.428573525760072L206.88076923076923,25.428573525760072L207.45384615384614,25.428573525760072L207.7976923076923,25.428573525760072L208.3707692307692,25.428573525760072L208.6,25.428573525760072L209.05846153846156,25.428573525760072L209.2876923076923,25.428573525760072L209.40230769230772,25.428573525760072L209.51692307692306,25.428573525760072L209.74615384615387,25.428573525760072L209.97538461538463,25.428573525760072L210.54846153846154,25.428573525760072L210.8923076923077,25.428573525760072L211.12153846153848,25.428573525760072L211.46538461538464,25.428573525760072L211.8092307692308,25.428573525760072L212.2676923076923,25.428573525760072L212.61153846153846,25.428573525760072L213.07,25.428573525760072L213.1846153846154,25.428573525760072L213.29923076923077,25.428573525760072L214.10153846153847,25.428573525760072L214.33076923076922,25.428573525760072L214.56,25.428573525760072L214.90384615384616,25.428573525760072L215.01846153846154,25.428573525760072L215.70615384615382,25.428573525760072L215.82076923076923,25.428573525760072L216.27923076923076,25.428573525760072L216.7376923076923,25.428573525760072L217.08153846153846,25.428573525760072L217.19615384615383,25.428573525760072L217.31076923076924,25.428573525760072L217.42538461538464,25.428573525760072L217.6546153846154,25.428573525760072L217.99846153846156,25.428573525760072L218.80076923076925,25.428573525760072L218.91538461538462,25.428573525760072L219.48846153846156,25.428573525760072L219.71769230769232,25.428573525760072L219.83230769230767,25.428573525760072L219.94692307692307,25.428573525760072L220.97846153846154,25.428573525760072L221.43692307692308,25.428573525760072L221.55153846153848,25.428573525760072L221.66615384615383,25.428573525760072L221.78076923076924,25.428573525760072L222.01,25.428573525760072L222.58307692307693,25.428573525760072L222.6976923076923,25.428573525760072L222.9269230769231,25.428573525760072L223.04153846153847,25.428573525760072L223.15615384615384,25.428573525760072L223.5,25.428573525760072L223.72923076923075,25.428573525760072L223.84384615384616,25.428573525760072L223.95846153846153,25.428573525760072L224.99,25.428573525760072L225.33384615384617,25.428573525760072L226.3653846153846,25.428573525760072L227.05307692307693,25.428573525760072L227.16769230769233,25.428573525760072L227.8553846153846,25.428573525760072L227.97,25.428573525760072L228.08461538461538,25.428573525760072L228.31384615384616,25.428573525760072L229.00153846153844,25.428573525760072L229.68923076923076,25.428573525760072L229.80384615384617,25.428573525760072L230.72076923076924,25.428573525760072L230.8353846153846,25.428573525760072L231.17923076923077,25.428573525760072L231.52307692307693,25.428573525760072L231.98153846153846,25.428573525760072L232.21076923076924,25.428573525760072L232.66923076923078,25.428573525760072L233.3569230769231,25.428573525760072L233.8153846153846,25.428573525760072L233.93,25.428573525760072L234.27384615384616,25.428573525760072L234.50307692307692,25.428573525760072L234.84692307692308,25.428573525760072L235.3053846153846,25.428573525760072L235.53461538461536,25.428573525760072L235.76384615384617,25.428573525760072L235.87846153846152,25.428573525760072L235.99307692307693,25.428573525760072L236.79538461538462,25.428573525760072L237.02461538461537,25.428573525760072L237.13923076923078,25.428573525760072L237.8269230769231,25.428573525760072L237.94153846153844,25.428573525760072L238.05615384615385,25.428573525760072L238.28538461538463,25.428573525760072L238.51461538461538,25.428573525760072L239.89000000000001,25.428573525760072L240.92153846153846,25.428573525760072L241.38000000000002,25.428573525760072L241.95307692307694,25.428573525760072L242.0676923076923,25.428573525760072L242.64076923076922,25.428573525760072L242.75538461538463,25.428573525760072L242.86999999999998,25.428573525760072L243.32846153846154,25.428573525760072L243.44307692307694,25.428573525760072L244.13076923076923,25.428573525760072L244.58923076923077,25.428573525760072L244.70384615384614,25.428573525760072L244.81846153846155,25.428573525760072L245.0476923076923,25.428573525760072L245.1623076923077,25.428573525760072L245.73538461538462,25.428573525760072L246.07923076923078,25.428573525760072L246.30846153846156,25.428573525760072L246.65230769230772,25.428573525760072L246.99615384615387,25.428573525760072L247.33999999999997,25.428573525760072L247.56923076923078,25.428573525760072L248.25692307692307,25.428573525760072L248.37153846153848,25.428573525760072L248.60076923076923,25.428573525760072L248.82999999999998,25.428573525760072L249.86153846153846,25.428573525760072L249.97615384615384,25.428573525760072L250.09076923076924,25.428573525760072L250.20538461538462,25.428573525760072L251.81,25.428573525760072L252.26846153846154,25.428573525760072L252.72692307692307,25.428573525760072L252.84153846153848,25.428573525760072L253.18538461538463,25.428573525760072L253.29999999999998,25.428573525760072L253.64384615384614,25.428573525760072L253.87307692307692,25.428573525760072L254.10230769230768,25.428573525760072L254.67538461538464,25.428573525760072L255.01923076923075,25.428573525760072L255.24846153846156,25.428573525760072L255.3630769230769,25.428573525760072L255.59230769230768,25.428573525760072L255.93615384615384,25.428573525760072L256.28,25.428573525760072L256.5092307692308,25.428573525760072L256.8530769230769,25.428573525760072L257.1969230769231,25.428573525760072L257.3115384615385,25.428573525760072L257.6553846153846,25.428573525760072L257.99923076923073,25.428573525760072L258.91615384615386,25.428573525760072L259.03076923076924,25.428573525760072L259.26,25.428573525760072L259.83307692307693,25.428573525760072L260.4061538461538,25.428573525760072L260.52076923076925,25.428573525760072L260.6353846153846,25.428573525760072L260.8646153846154,25.428573525760072L260.97923076923075,25.428573525760072L261.2084615384615,25.428573525760072L261.4376923076923,25.428573525760072L261.7815384615385,25.428573525760072L261.8961538461538,25.428573525760072L262.3546153846154,25.428573525760072L262.9276923076923,25.428573525760072L263.1569230769231,25.428573525760072L263.8446153846154,25.428573525760072L263.95923076923077,25.428573525760072L264.07384615384615,25.428573525760072L264.1884615384615,25.428573525760072L264.3030769230769,25.428573525760072L264.6469230769231,25.428573525760072L264.87615384615384,25.428573525760072L265.22,25.428573525760072L265.33461538461535,25.428573525760072L265.67846153846153,25.428573525760072L265.90769230769234,25.428573525760072L266.1369230769231,25.428573525760072L266.2515384615385,25.428573525760072L266.36615384615385,25.428573525760072L266.82461538461536,25.428573525760072L267.2830769230769,25.428573525760072L267.3976923076923,25.428573525760072L267.5123076923077,25.428573525760072L267.97076923076924,25.428573525760072L268.0853846153846,25.428573525760072L268.31461538461537,25.428573525760072L268.42923076923074,25.428573525760072L268.65846153846155,25.428573525760072L268.7730769230769,25.428573525760072L268.8876923076923,25.428573525760072L269.1169230769231,25.428573525760072L269.23153846153843,25.428573525760072L269.46076923076924,25.428573525760072L269.8046153846154,25.428573525760072L270.0338461538462,25.428573525760072L270.1484615384615,25.428573525760072L270.8361538461539,25.428573525760072L270.9507692307692,25.428573525760072L271.06538461538463,25.428573525760072L271.5238461538462,25.428573525760072L271.75307692307695,25.428573525760072L271.9823076923077,25.428573525760072L272.4407692307692,25.428573525760072L273.24307692307696,25.428573525760072L273.5869230769231,25.428573525760072L273.81615384615384,25.428573525760072L274.0453846153846,25.428573525760072L274.16,25.428573525760072L274.61846153846153,25.428573525760072L274.8476923076923,25.428573525760072L274.9623076923077,25.428573525760072L275.0769230769231,25.428573525760072L275.4207692307692,25.428573525760072L275.5353846153846,25.428573525760072L275.8792307692308,25.428573525760072L275.99384615384616,25.428573525760072L276.3376923076923,25.428573525760072L276.6815384615385,25.428573525760072L277.14,25.428573525760072L277.8276923076923,25.428573525760072L277.9423076923077,25.428573525760072L278.28615384615387,25.428573525760072L278.40076923076924,25.428573525760072L278.63,25.428573525760072L278.8592307692308,25.428573525760072L278.9738461538461,25.428573525760072L279.20307692307694,25.428573525760072L279.3176923076923,25.428573525760072L279.54692307692306,25.428573525760072L279.66153846153844,25.428573525760072L279.7761538461539,25.428573525760072L279.8907692307692,25.428573525760072L280.12,25.428573525760072L280.34923076923076,25.428573525760072L280.46384615384613,25.428573525760072L280.9223076923077,25.428573525760072L281.0369230769231,25.428573525760072L281.2661538461539,25.428573525760072L281.61,25.428573525760072L281.83923076923077,25.428573525760072L282.18307692307695,25.428573525760072L283.55846153846153,25.428573525760072L284.0169230769231,25.428573525760072L284.3607692307692,25.428573525760072L284.93384615384616,25.428573525760072L285.1630769230769,25.428573525760072L285.50692307692304,25.428573525760072L286.19461538461536,25.428573525760072L286.3092307692308,25.428573525760072L286.53846153846155,25.428573525760072L286.8823076923077,25.428573525760072L287.2261538461538,25.428573525760072L287.34076923076924,25.428573525760072L287.4553846153846,25.428573525760072L288.48692307692306,25.428573525760072L288.6015384615385,25.428573525760072L288.7161538461538,25.428573525760072L288.83076923076925,25.428573525760072L289.06,25.428573525760072L289.28923076923076,25.428573525760072L289.6330769230769,25.428573525760072L290.2061538461538,25.428573525760072L290.43538461538463,25.428573525760072L290.55,25.428573525760072L290.6646153846154,25.428573525760072L290.77923076923076,25.428573525760072L291.69615384615383,25.428573525760072L292.72769230769234,25.428573525760072L293.3007692307692,25.428573525760072L294.2176923076923,25.428573525760072L294.33230769230767,25.428573525760072L294.67615384615385,25.428573525760072L295.1346153846154,25.428573525760072L295.47846153846154,25.428573525760072L295.93692307692305,25.428573525760072L296.28076923076924,25.428573525760072L296.6246153846154,25.428573525760072L296.73923076923074,25.428573525760072L296.8538461538462,25.428573525760072L297.08307692307693,25.428573525760072L298,25.428573525760072L298.2292307692308,25.428573525760072" style="fill: none;" fill="none"></path></g></g></g></g><g opacity="0.2"><g><g><g><path stroke="rgb(204, 51, 17)" stroke-width="2px" d="M28.31,630774468.7505332L28.997692307692308,25.428571267249225L29.11230769230769,25.428571267249225L29.226923076923075,25.428571267249225L29.341538461538462,25.428571267249225L29.456153846153846,25.428571267249225L30.373076923076923,25.428571267249225L30.716923076923077,25.428571267249225L31.06076923076923,25.428571267249225L31.175384615384615,25.428571267249225L31.29,25.428571267249225L31.404615384615383,25.428571267249225L31.97769230769231,25.428571267249225L32.894615384615385,25.428571267249225L33.00923076923077,25.428571267249225L33.69692307692308,25.428571267249225L34.613846153846154,25.428571267249225L34.957692307692305,25.428571267249225L35.072307692307696,25.428571267249225L35.87461538461538,25.428571267249225L36.21846153846154,25.428571267249225L36.44769230769231,25.428571267249225L37.364615384615384,25.428571267249225L37.70846153846154,25.428571267249225L37.82307692307692,25.428571267249225L38.854615384615386,25.428571267249225L39.08384615384615,25.428571267249225L39.198461538461544,25.428571267249225L39.31307692307692,25.428571267249225L40.11538461538461,25.428571267249225L40.68846153846153,25.428571267249225L40.917692307692306,25.428571267249225L41.0323076923077,25.428571267249225L41.49076923076923,25.428571267249225L42.06384615384616,25.428571267249225L42.178461538461534,25.428571267249225L42.52230769230769,25.428571267249225L43.209999999999994,25.428571267249225L43.324615384615385,25.428571267249225L43.55384615384616,25.428571267249225L43.89769230769231,25.428571267249225L44.12692307692308,25.428571267249225L44.24153846153846,25.428571267249225L44.47076923076923,25.428571267249225L44.699999999999996,25.428571267249225L44.81461538461539,25.428571267249225L45.61692307692308,25.428571267249225L46.53384615384615,25.428571267249225L46.64846153846154,25.428571267249225L46.76307692307692,25.428571267249225L47.22153846153846,25.428571267249225L48.36769230769231,25.428571267249225L48.48230769230769,25.428571267249225L48.71153846153846,25.428571267249225L49.17,25.428571267249225L49.51384615384615,25.428571267249225L49.62846153846154,25.428571267249225L49.74307692307692,25.428571267249225L50.08692307692307,25.428571267249225L51.4623076923077,25.428571267249225L52.15,25.428571267249225L52.49384615384616,25.428571267249225L52.723076923076924,25.428571267249225L52.83769230769231,25.428571267249225L53.066923076923075,25.428571267249225L53.52538461538462,25.428571267249225L53.98384615384616,25.428571267249225L54.21307692307692,25.428571267249225L54.78615384615385,25.428571267249225L56.39076923076923,25.428571267249225L56.96384615384615,25.428571267249225L57.07846153846154,25.428571267249225L57.53692307692308,25.428571267249225L57.651538461538465,25.428571267249225L58.11,25.428571267249225L58.22461538461538,25.428571267249225L58.45384615384615,25.428571267249225L58.7976923076923,25.428571267249225L59.370769230769234,25.428571267249225L59.48538461538461,25.428571267249225L59.6,25.428571267249225L60.17307692307693,25.428571267249225L60.2876923076923,25.428571267249225L60.402307692307694,25.428571267249225L60.746153846153845,25.428571267249225L61.777692307692305,25.428571267249225L62.00692307692308,25.428571267249225L62.69461538461539,25.428571267249225L63.38230769230769,25.428571267249225L63.496923076923075,25.428571267249225L64.18461538461538,25.428571267249225L64.52846153846154,25.428571267249225L64.98692307692308,25.428571267249225L65.44538461538463,25.428571267249225L65.67461538461538,25.428571267249225L66.13307692307693,25.428571267249225L66.2476923076923,25.428571267249225L66.3623076923077,25.428571267249225L66.59153846153846,25.428571267249225L67.16461538461539,25.428571267249225L67.7376923076923,25.428571267249225L67.85230769230769,25.428571267249225L67.96692307692308,25.428571267249225L69.68615384615384,25.428571267249225L70.48846153846154,25.428571267249225L71.17615384615385,25.428571267249225L71.29076923076923,25.428571267249225L71.52,25.428571267249225L71.74923076923076,25.428571267249225L72.20769230769231,25.428571267249225L73.23923076923077,25.428571267249225L73.46846153846154,25.428571267249225L73.58307692307692,25.428571267249225L73.92692307692307,25.428571267249225L74.61461538461538,25.428571267249225L75.53153846153846,25.428571267249225L75.64615384615384,25.428571267249225L75.99,25.428571267249225L76.10461538461539,25.428571267249225L77.13615384615385,25.428571267249225L77.25076923076922,25.428571267249225L78.51153846153846,25.428571267249225L78.85538461538462,25.428571267249225L78.97,25.428571267249225L79.19923076923077,25.428571267249225L79.42846153846155,25.428571267249225L81.03307692307692,25.428571267249225L81.60615384615384,25.428571267249225L81.83538461538461,25.428571267249225L82.17923076923077,25.428571267249225L82.40846153846152,25.428571267249225L82.98153846153846,25.428571267249225L83.09615384615385,25.428571267249225L83.78384615384616,25.428571267249225L84.01307692307692,25.428571267249225L84.12769230769231,25.428571267249225L84.35692307692307,25.428571267249225L84.47153846153847,25.428571267249225L84.81538461538462,25.428571267249225L85.04461538461538,25.428571267249225L85.61769230769231,25.428571267249225L85.73230769230769,25.428571267249225L86.76384615384616,25.428571267249225L86.99307692307691,25.428571267249225L87.45153846153846,25.428571267249225L87.56615384615385,25.428571267249225L87.68076923076923,25.428571267249225L88.13923076923078,25.428571267249225L88.59769230769231,25.428571267249225L88.71230769230769,25.428571267249225L89.05615384615385,25.428571267249225L89.28538461538461,25.428571267249225L89.39999999999999,25.428571267249225L89.51461538461538,25.428571267249225L89.62923076923077,25.428571267249225L89.74384615384615,25.428571267249225L89.85846153846154,25.428571267249225L90.08769230769232,25.428571267249225L90.2023076923077,25.428571267249225L90.77538461538462,25.428571267249225L90.89,25.428571267249225L91.34846153846154,25.428571267249225L91.6923076923077,25.428571267249225L91.92153846153846,25.428571267249225L92.60923076923076,25.428571267249225L92.83846153846154,25.428571267249225L93.41153846153846,25.428571267249225L93.87,25.428571267249225L93.98461538461538,25.428571267249225L94.21384615384616,25.428571267249225L95.58923076923077,25.428571267249225L96.39153846153846,25.428571267249225L96.50615384615385,25.428571267249225L96.73538461538462,25.428571267249225L96.85000000000001,25.428571267249225L96.96461538461539,25.428571267249225L97.07923076923076,25.428571267249225L97.30846153846154,25.428571267249225L97.65230769230769,25.428571267249225L98.11076923076922,25.428571267249225L98.22538461538461,25.428571267249225L98.68384615384615,25.428571267249225L99.0276923076923,25.428571267249225L99.48615384615384,25.428571267249225L99.83000000000001,25.428571267249225L99.94461538461539,25.428571267249225L100.05923076923077,25.428571267249225L100.17384615384614,25.428571267249225L100.28846153846155,25.428571267249225L100.51769230769231,25.428571267249225L100.63230769230769,25.428571267249225L100.74692307692307,25.428571267249225L101.09076923076923,25.428571267249225L101.20538461538462,25.428571267249225L101.32000000000001,25.428571267249225L101.54923076923077,25.428571267249225L101.77846153846153,25.428571267249225L101.89307692307693,25.428571267249225L102.69538461538461,25.428571267249225L103.03923076923077,25.428571267249225L103.4976923076923,25.428571267249225L103.84153846153848,25.428571267249225L104.07076923076923,25.428571267249225L104.3,25.428571267249225L104.75846153846153,25.428571267249225L105.21692307692308,25.428571267249225L105.56076923076924,25.428571267249225L105.67538461538462,25.428571267249225L105.78999999999999,25.428571267249225L105.9046153846154,25.428571267249225L106.5923076923077,25.428571267249225L107.28,25.428571267249225L107.50923076923077,25.428571267249225L107.62384615384616,25.428571267249225L108.0823076923077,25.428571267249225L108.42615384615384,25.428571267249225L108.54076923076923,25.428571267249225L108.88461538461537,25.428571267249225L108.99923076923078,25.428571267249225L109.11384615384615,25.428571267249225L109.34307692307692,25.428571267249225L109.5723076923077,25.428571267249225L110.26,25.428571267249225L110.60384615384616,25.428571267249225L110.71846153846154,25.428571267249225L111.0623076923077,25.428571267249225L111.17692307692307,25.428571267249225L111.29153846153847,25.428571267249225L111.52076923076923,25.428571267249225L111.63538461538462,25.428571267249225L112.32307692307693,25.428571267249225L112.78153846153846,25.428571267249225L112.89615384615384,25.428571267249225L113.12538461538462,25.428571267249225L113.35461538461539,25.428571267249225L113.58384615384617,25.428571267249225L113.69846153846154,25.428571267249225L113.81307692307692,25.428571267249225L113.9276923076923,25.428571267249225L114.04230769230769,25.428571267249225L114.38615384615385,25.428571267249225L114.61538461538463,25.428571267249225L114.84461538461538,25.428571267249225L115.18846153846154,25.428571267249225L115.4176923076923,25.428571267249225L115.53230769230768,25.428571267249225L115.64692307692309,25.428571267249225L116.33461538461539,25.428571267249225L116.44923076923077,25.428571267249225L116.67846153846155,25.428571267249225L117.02230769230769,25.428571267249225L117.48076923076923,25.428571267249225L117.82461538461538,25.428571267249225L118.16846153846154,25.428571267249225L118.28307692307692,25.428571267249225L118.51230769230769,25.428571267249225L118.74153846153847,25.428571267249225L118.97076923076922,25.428571267249225L119.54384615384615,25.428571267249225L119.8876923076923,25.428571267249225L120.11692307692307,25.428571267249225L121.83615384615385,25.428571267249225L122.29461538461538,25.428571267249225L122.52384615384615,25.428571267249225L122.63846153846153,25.428571267249225L123.09692307692308,25.428571267249225L123.32615384615386,25.428571267249225L123.44076923076923,25.428571267249225L123.78461538461539,25.428571267249225L124.01384615384616,25.428571267249225L124.24307692307691,25.428571267249225L124.58692307692307,25.428571267249225L124.81615384615385,25.428571267249225L124.93076923076923,25.428571267249225L125.16,25.428571267249225L125.61846153846153,25.428571267249225L126.07692307692308,25.428571267249225L126.87923076923077,25.428571267249225L126.99384615384615,25.428571267249225L127.10846153846154,25.428571267249225L127.22307692307692,25.428571267249225L127.4523076923077,25.428571267249225L127.79615384615384,25.428571267249225L127.91076923076923,25.428571267249225L128.0253846153846,25.428571267249225L128.36923076923077,25.428571267249225L128.48384615384614,25.428571267249225L128.59846153846155,25.428571267249225L128.71307692307693,25.428571267249225L129.63,25.428571267249225L129.74461538461537,25.428571267249225L130.08846153846153,25.428571267249225L130.89076923076925,25.428571267249225L131.23461538461538,25.428571267249225L132.15153846153845,25.428571267249225L132.26615384615386,25.428571267249225L132.4953846153846,25.428571267249225L132.61,25.428571267249225L132.7246153846154,25.428571267249225L133.06846153846155,25.428571267249225L133.18307692307692,25.428571267249225L133.41230769230768,25.428571267249225L133.64153846153846,25.428571267249225L134.21461538461537,25.428571267249225L134.32923076923078,25.428571267249225L134.7876923076923,25.428571267249225L134.9023076923077,25.428571267249225L135.0169230769231,25.428571267249225L135.13153846153847,25.428571267249225L135.4753846153846,25.428571267249225L135.59,25.428571267249225L135.70461538461538,25.428571267249225L136.04846153846154,25.428571267249225L136.16307692307691,25.428571267249225L137.08,25.428571267249225L137.53846153846155,25.428571267249225L137.7676923076923,25.428571267249225L137.99692307692308,25.428571267249225L138.11153846153846,25.428571267249225L138.45538461538462,25.428571267249225L138.79923076923077,25.428571267249225L138.91384615384615,25.428571267249225L139.02846153846153,25.428571267249225L139.14307692307693,25.428571267249225L139.48692307692306,25.428571267249225L140.40384615384616,25.428571267249225L140.63307692307694,25.428571267249225L140.8623076923077,25.428571267249225L141.09153846153848,25.428571267249225L141.20615384615385,25.428571267249225L141.54999999999998,25.428571267249225L141.77923076923076,25.428571267249225L142.00846153846155,25.428571267249225L142.58153846153846,25.428571267249225L143.38384615384615,25.428571267249225L143.49846153846153,25.428571267249225L143.84230769230768,25.428571267249225L144.07153846153847,25.428571267249225L144.75923076923078,25.428571267249225L144.87384615384616,25.428571267249225L145.1030769230769,25.428571267249225L145.3323076923077,25.428571267249225L145.79076923076923,25.428571267249225L146.24923076923076,25.428571267249225L146.47846153846154,25.428571267249225L147.05153846153846,25.428571267249225L147.16615384615383,25.428571267249225L147.28076923076924,25.428571267249225L148.08307692307693,25.428571267249225L148.1976923076923,25.428571267249225L148.88538461538462,25.428571267249225L149.34384615384616,25.428571267249225L149.45846153846153,25.428571267249225L149.5730769230769,25.428571267249225L150.60461538461539,25.428571267249225L150.83384615384617,25.428571267249225L151.17769230769233,25.428571267249225L151.8653846153846,25.428571267249225L151.98,25.428571267249225L152.43846153846152,25.428571267249225L152.78230769230768,25.428571267249225L152.8969230769231,25.428571267249225L153.01153846153844,25.428571267249225L153.3553846153846,25.428571267249225L154.61615384615385,25.428571267249225L154.96,25.428571267249225L155.30384615384617,25.428571267249225L155.41846153846154,25.428571267249225L155.53307692307692,25.428571267249225L155.87692307692308,25.428571267249225L155.99153846153845,25.428571267249225L156.10615384615386,25.428571267249225L157.82538461538462,25.428571267249225L158.16923076923078,25.428571267249225L158.39846153846153,25.428571267249225L158.51307692307694,25.428571267249225L158.7423076923077,25.428571267249225L158.8569230769231,25.428571267249225L159.20076923076923,25.428571267249225L159.54461538461538,25.428571267249225L159.65923076923076,25.428571267249225L159.88846153846154,25.428571267249225L160.1176923076923,25.428571267249225L160.34692307692308,25.428571267249225L160.57615384615386,25.428571267249225L160.92000000000002,25.428571267249225L161.14923076923077,25.428571267249225L161.37846153846152,25.428571267249225L161.6076923076923,25.428571267249225L161.83692307692309,25.428571267249225L162.06615384615384,25.428571267249225L163.2123076923077,25.428571267249225L163.67076923076922,25.428571267249225L164.1292307692308,25.428571267249225L164.24384615384614,25.428571267249225L164.35846153846154,25.428571267249225L164.5876923076923,25.428571267249225L164.93153846153845,25.428571267249225L165.2753846153846,25.428571267249225L165.5046153846154,25.428571267249225L165.84846153846155,25.428571267249225L166.53615384615387,25.428571267249225L166.76538461538462,25.428571267249225L166.99461538461537,25.428571267249225L167.10923076923078,25.428571267249225L167.45307692307694,25.428571267249225L167.5676923076923,25.428571267249225L167.6823076923077,25.428571267249225L168.02615384615385,25.428571267249225L168.94307692307694,25.428571267249225L169.51615384615386,25.428571267249225L169.7453846153846,25.428571267249225L170.43307692307695,25.428571267249225L170.89153846153846,25.428571267249225L171.00615384615386,25.428571267249225L171.1207692307692,25.428571267249225L171.23538461538462,25.428571267249225L171.9230769230769,25.428571267249225L172.26692307692306,25.428571267249225L173.06923076923078,25.428571267249225L173.29846153846154,25.428571267249225L173.6423076923077,25.428571267249225L173.75692307692307,25.428571267249225L174.10076923076923,25.428571267249225L174.21538461538464,25.428571267249225L174.78846153846155,25.428571267249225L174.90307692307692,25.428571267249225L175.0176923076923,25.428571267249225L175.36153846153846,25.428571267249225L175.70538461538462,25.428571267249225L175.82,25.428571267249225L175.9346153846154,25.428571267249225L176.04923076923077,25.428571267249225L176.16384615384615,25.428571267249225L176.85153846153847,25.428571267249225L177.53923076923076,25.428571267249225L178.22692307692307,25.428571267249225L178.68538461538463,25.428571267249225L178.9146153846154,25.428571267249225L179.4876923076923,25.428571267249225L179.94615384615383,25.428571267249225L180.74846153846156,25.428571267249225L180.9776923076923,25.428571267249225L181.32153846153847,25.428571267249225L181.55076923076925,25.428571267249225L181.66538461538462,25.428571267249225L182.00923076923075,25.428571267249225L182.12384615384616,25.428571267249225L182.3530769230769,25.428571267249225L182.46769230769232,25.428571267249225L182.81153846153848,25.428571267249225L184.76,25.428571267249225L184.8746153846154,25.428571267249225L184.98923076923077,25.428571267249225L185.10384615384615,25.428571267249225L185.56230769230768,25.428571267249225L185.90615384615384,25.428571267249225L186.3646153846154,25.428571267249225L186.47923076923075,25.428571267249225L186.59384615384616,25.428571267249225L187.0523076923077,25.428571267249225L187.16692307692307,25.428571267249225L187.28153846153847,25.428571267249225L187.51076923076923,25.428571267249225L187.74,25.428571267249225L187.96923076923076,25.428571267249225L188.19846153846152,25.428571267249225L189.1153846153846,25.428571267249225L189.68846153846152,25.428571267249225L189.80307692307693,25.428571267249225L190.83461538461538,25.428571267249225L190.94923076923075,25.428571267249225L192.21,25.428571267249225L192.78307692307692,25.428571267249225L193.12692307692308,25.428571267249225L193.24153846153845,25.428571267249225L193.5853846153846,25.428571267249225L193.81461538461537,25.428571267249225L193.92923076923077,25.428571267249225L194.84615384615384,25.428571267249225L194.96076923076924,25.428571267249225L195.07538461538462,25.428571267249225L195.19,25.428571267249225L195.53384615384616,25.428571267249225L195.76307692307694,25.428571267249225L195.87769230769229,25.428571267249225L195.9923076923077,25.428571267249225L196.90923076923076,25.428571267249225L197.4823076923077,25.428571267249225L197.59692307692308,25.428571267249225L197.9407692307692,25.428571267249225L198.74307692307693,25.428571267249225L198.97230769230768,25.428571267249225L200.11846153846153,25.428571267249225L200.69153846153844,25.428571267249225L200.80615384615385,25.428571267249225L201.03538461538463,25.428571267249225L201.15,25.428571267249225L201.8376923076923,25.428571267249225L201.9523076923077,25.428571267249225L202.64000000000001,25.428571267249225L202.7546153846154,25.428571267249225L203.78615384615387,25.428571267249225L204.24461538461537,25.428571267249225L204.47384615384615,25.428571267249225L204.9323076923077,25.428571267249225L205.96384615384613,25.428571267249225L206.19307692307694,25.428571267249225L206.53692307692307,25.428571267249225L206.76615384615386,25.428571267249225L206.88076923076923,25.428571267249225L207.45384615384614,25.428571267249225L207.7976923076923,25.428571267249225L208.3707692307692,25.428571267249225L208.6,25.428571267249225L209.05846153846156,25.428571267249225L209.2876923076923,25.428571267249225L209.40230769230772,25.428571267249225L209.51692307692306,25.428571267249225L209.74615384615387,25.428571267249225L209.97538461538463,25.428571267249225L210.54846153846154,25.428571267249225L210.8923076923077,25.428571267249225L211.12153846153848,25.428571267249225L211.46538461538464,25.428571267249225L211.8092307692308,25.428571267249225L212.2676923076923,25.428571267249225L212.61153846153846,25.428571267249225L213.07,25.428571267249225L213.1846153846154,25.428571267249225L213.29923076923077,25.428571267249225L214.10153846153847,25.428571267249225L214.33076923076922,25.428571267249225L214.56,25.428571267249225L214.90384615384616,25.428571267249225L215.01846153846154,25.428571267249225L215.70615384615382,25.428571267249225L215.82076923076923,25.428571267249225L216.27923076923076,25.428571267249225L216.7376923076923,25.428571267249225L217.08153846153846,25.428571267249225L217.19615384615383,25.428571267249225L217.31076923076924,25.428571267249225L217.42538461538464,25.428571267249225L217.6546153846154,25.428571267249225L217.99846153846156,25.428571267249225L218.80076923076925,25.428571267249225L218.91538461538462,25.428571267249225L219.48846153846156,25.428571267249225L219.71769230769232,25.428571267249225L219.83230769230767,25.428571267249225L219.94692307692307,25.428571267249225L220.97846153846154,25.428571267249225L221.43692307692308,25.428571267249225L221.55153846153848,25.428571267249225L221.66615384615383,25.428571267249225L221.78076923076924,25.428571267249225L222.01,25.428571267249225L222.58307692307693,25.428571267249225L222.6976923076923,25.428571267249225L222.9269230769231,25.428571267249225L223.04153846153847,25.428571267249225L223.15615384615384,25.428571267249225L223.5,25.428571267249225L223.72923076923075,25.428571267249225L223.84384615384616,25.428571267249225L223.95846153846153,25.428571267249225L224.99,25.428571267249225L225.33384615384617,25.428571267249225L226.3653846153846,25.428571267249225L227.05307692307693,25.428571267249225L227.16769230769233,25.428571267249225L227.8553846153846,25.428571267249225L227.97,25.428571267249225L228.08461538461538,25.428571267249225L228.31384615384616,25.428571267249225L229.00153846153844,25.428571267249225L229.68923076923076,25.428571267249225L229.80384615384617,25.428571267249225L230.72076923076924,25.428571267249225L230.8353846153846,25.428571267249225L231.17923076923077,25.428571267249225L231.52307692307693,25.428571267249225L231.98153846153846,25.428571267249225L232.21076923076924,25.428571267249225L232.66923076923078,25.428571267249225L233.3569230769231,25.428571267249225L233.8153846153846,25.428571267249225L233.93,25.428571267249225L234.27384615384616,25.428571267249225L234.50307692307692,25.428571267249225L234.84692307692308,25.428571267249225L235.3053846153846,25.428571267249225L235.53461538461536,25.428571267249225L235.76384615384617,25.428571267249225L235.87846153846152,25.428571267249225L235.99307692307693,25.428571267249225L236.79538461538462,25.428571267249225L237.02461538461537,25.428571267249225L237.13923076923078,25.428571267249225L237.8269230769231,25.428571267249225L237.94153846153844,25.428571267249225L238.05615384615385,25.428571267249225L238.28538461538463,25.428571267249225L238.51461538461538,25.428571267249225L239.89000000000001,25.428571267249225L240.92153846153846,25.428571267249225L241.38000000000002,25.428571267249225L241.95307692307694,25.428571267249225L242.0676923076923,25.428571267249225L242.64076923076922,25.428571267249225L242.75538461538463,25.428571267249225L242.86999999999998,25.428571267249225L243.32846153846154,25.428571267249225L243.44307692307694,25.428571267249225L244.13076923076923,25.428571267249225L244.58923076923077,25.428571267249225L244.70384615384614,25.428571267249225L244.81846153846155,25.428571267249225L245.0476923076923,25.428571267249225L245.1623076923077,25.428571267249225L245.73538461538462,25.428571267249225L246.07923076923078,25.428571267249225L246.30846153846156,25.428571267249225L246.65230769230772,25.428571267249225L246.99615384615387,25.428571267249225L247.33999999999997,25.428571267249225L247.56923076923078,25.428571267249225L248.25692307692307,25.428571267249225L248.37153846153848,25.428571267249225L248.60076923076923,25.428571267249225L248.82999999999998,25.428571267249225L249.86153846153846,25.428571267249225L249.97615384615384,25.428571267249225L250.09076923076924,25.428571267249225L250.20538461538462,25.428571267249225L251.81,25.428571267249225L252.26846153846154,25.428571267249225L252.72692307692307,25.428571267249225L252.84153846153848,25.428571267249225L253.18538461538463,25.428571267249225L253.29999999999998,25.428571267249225L253.64384615384614,25.428571267249225L253.87307692307692,25.428571267249225L254.10230769230768,25.428571267249225L254.67538461538464,25.428571267249225L255.01923076923075,25.428571267249225L255.24846153846156,25.428571267249225L255.3630769230769,25.428571267249225L255.59230769230768,25.428571267249225L255.93615384615384,25.428571267249225L256.28,25.428571267249225L256.5092307692308,25.428571267249225L256.8530769230769,25.428571267249225L257.1969230769231,25.428571267249225L257.3115384615385,25.428571267249225L257.6553846153846,25.428571267249225L257.99923076923073,25.428571267249225L258.91615384615386,25.428571267249225L259.03076923076924,25.428571267249225L259.26,25.428571267249225L259.83307692307693,25.428571267249225L260.4061538461538,25.428571267249225L260.52076923076925,25.428571267249225L260.6353846153846,25.428571267249225L260.8646153846154,25.428571267249225L260.97923076923075,25.428571267249225L261.2084615384615,25.428571267249225L261.4376923076923,25.428571267249225L261.7815384615385,25.428571267249225L261.8961538461538,25.428571267249225L262.3546153846154,25.428571267249225L262.9276923076923,25.428571267249225L263.1569230769231,25.428571267249225L263.8446153846154,25.428571267249225L263.95923076923077,25.428571267249225L264.07384615384615,25.428571267249225L264.1884615384615,25.428571267249225L264.3030769230769,25.428571267249225L264.6469230769231,25.428571267249225L264.87615384615384,25.428571267249225L265.22,25.428571267249225L265.33461538461535,25.428571267249225L265.67846153846153,25.428571267249225L265.90769230769234,25.428571267249225L266.1369230769231,25.428571267249225L266.2515384615385,25.428571267249225L266.36615384615385,25.428571267249225L266.82461538461536,25.428571267249225L267.2830769230769,25.428571267249225L267.3976923076923,25.428571267249225L267.5123076923077,25.428571267249225L267.97076923076924,25.428571267249225L268.0853846153846,25.428571267249225L268.31461538461537,25.428571267249225L268.42923076923074,25.428571267249225L268.65846153846155,25.428571267249225L268.7730769230769,25.428571267249225L268.8876923076923,25.428571267249225L269.1169230769231,25.428571267249225L269.23153846153843,25.428571267249225L269.46076923076924,25.428571267249225L269.8046153846154,25.428571267249225L270.0338461538462,25.428571267249225L270.1484615384615,25.428571267249225L270.8361538461539,25.428571267249225L270.9507692307692,25.428571267249225L271.06538461538463,25.428571267249225L271.5238461538462,25.428571267249225L271.75307692307695,25.428571267249225L271.9823076923077,25.428571267249225L272.4407692307692,25.428571267249225L273.24307692307696,25.428571267249225L273.5869230769231,25.428571267249225L273.81615384615384,25.428571267249225L274.0453846153846,25.428571267249225L274.16,25.428571267249225L274.61846153846153,25.428571267249225L274.8476923076923,25.428571267249225L274.9623076923077,25.428571267249225L275.0769230769231,25.428571267249225L275.4207692307692,25.428571267249225L275.5353846153846,25.428571267249225L275.8792307692308,25.428571267249225L275.99384615384616,25.428571267249225L276.3376923076923,25.428571267249225L276.6815384615385,25.428571267249225L277.14,25.428571267249225L277.8276923076923,25.428571267249225L277.9423076923077,25.428571267249225L278.28615384615387,25.428571267249225L278.40076923076924,25.428571267249225L278.63,25.428571267249225L278.8592307692308,25.428571267249225L278.9738461538461,25.428571267249225L279.20307692307694,25.428571267249225L279.3176923076923,25.428571267249225L279.54692307692306,25.428571267249225L279.66153846153844,25.428571267249225L279.7761538461539,25.428571267249225L279.8907692307692,25.428571267249225L280.12,25.428571267249225L280.34923076923076,25.428571267249225L280.46384615384613,25.428571267249225L280.9223076923077,25.428571267249225L281.0369230769231,25.428571267249225L281.2661538461539,25.428571267249225L281.61,25.428571267249225L281.83923076923077,25.428571267249225L282.18307692307695,25.428571267249225L283.55846153846153,25.428571267249225L284.0169230769231,25.428571267249225L284.3607692307692,25.428571267249225L284.93384615384616,25.428571267249225L285.1630769230769,25.428571267249225L285.50692307692304,25.428571267249225L286.19461538461536,25.428571267249225L286.3092307692308,25.428571267249225L286.53846153846155,25.428571267249225L286.8823076923077,25.428571267249225L287.2261538461538,25.428571267249225L287.34076923076924,25.428571267249225L287.4553846153846,25.428571267249225L288.48692307692306,25.428571267249225L288.6015384615385,25.428571267249225L288.7161538461538,25.428571267249225L288.83076923076925,25.428571267249225L289.06,25.428571267249225L289.28923076923076,25.428571267249225L289.6330769230769,25.428571267249225L290.2061538461538,25.428571267249225L290.43538461538463,25.428571267249225L290.55,25.428571267249225L290.6646153846154,25.428571267249225L290.77923076923076,25.428571267249225L291.69615384615383,25.428571267249225L292.72769230769234,25.428571267249225L293.3007692307692,25.428571267249225L294.2176923076923,25.428571267249225L294.33230769230767,25.428571267249225L294.67615384615385,25.428571267249225L295.1346153846154,25.428571267249225L295.47846153846154,25.428571267249225L295.93692307692305,25.428571267249225L296.28076923076924,25.428571267249225L296.6246153846154,25.428571267249225L296.73923076923074,25.428571267249225L296.8538461538462,25.428571267249225L297.08307692307693,25.428571267249225L298,25.428571267249225L298.2292307692308,25.428571267249225" style="fill: none;" fill="none"></path></g></g></g></g></g></g><g transform="translate(32, 178)" clip-path="url(#clip_1)"><clipPath id="clip_1"><rect width="298" height="22"></rect></clipPath><g><g><line x1="0" y1="0" x2="0" y2="5" style="visibility: inherit;" fill="rgb(0, 0, 0)" stroke="rgb(204, 204, 204)" stroke-width="1px"></line><line x1="22.923076923076923" y1="0" x2="22.923076923076923" y2="5" style="visibility: inherit;" fill="rgb(0, 0, 0)" stroke="rgb(204, 204, 204)" stroke-width="1px"></line><line x1="45.84615384615385" y1="0" x2="45.84615384615385" y2="5" style="visibility: inherit;" fill="rgb(0, 0, 0)" stroke="rgb(204, 204, 204)" stroke-width="1px"></line><line x1="68.76923076923077" y1="0" x2="68.76923076923077" y2="5" style="visibility: inherit;" fill="rgb(0, 0, 0)" stroke="rgb(204, 204, 204)" stroke-width="1px"></line><line x1="91.6923076923077" y1="0" x2="91.6923076923077" y2="5" style="visibility: inherit;" fill="rgb(0, 0, 0)" stroke="rgb(204, 204, 204)" stroke-width="1px"></line><line x1="114.61538461538463" y1="0" x2="114.61538461538463" y2="5" style="visibility: inherit;" fill="rgb(0, 0, 0)" stroke="rgb(204, 204, 204)" stroke-width="1px"></line><line x1="137.53846153846155" y1="0" x2="137.53846153846155" y2="5" style="visibility: inherit;" fill="rgb(0, 0, 0)" stroke="rgb(204, 204, 204)" stroke-width="1px"></line><line x1="160.46153846153845" y1="0" x2="160.46153846153845" y2="5" style="visibility: inherit;" fill="rgb(0, 0, 0)" stroke="rgb(204, 204, 204)" stroke-width="1px"></line><line x1="183.3846153846154" y1="0" x2="183.3846153846154" y2="5" style="visibility: inherit;" fill="rgb(0, 0, 0)" stroke="rgb(204, 204, 204)" stroke-width="1px"></line><line x1="206.3076923076923" y1="0" x2="206.3076923076923" y2="5" style="visibility: inherit;" fill="rgb(0, 0, 0)" stroke="rgb(204, 204, 204)" stroke-width="1px"></line><line x1="229.23076923076925" y1="0" x2="229.23076923076925" y2="5" style="visibility: inherit;" fill="rgb(0, 0, 0)" stroke="rgb(204, 204, 204)" stroke-width="1px"></line><line x1="252.15384615384616" y1="0" x2="252.15384615384616" y2="5" style="visibility: inherit;" fill="rgb(0, 0, 0)" stroke="rgb(204, 204, 204)" stroke-width="1px"></line><line x1="275.0769230769231" y1="0" x2="275.0769230769231" y2="5" style="visibility: inherit;" fill="rgb(0, 0, 0)" stroke="rgb(204, 204, 204)" stroke-width="1px"></line><line x1="298" y1="0" x2="298" y2="5" style="visibility: inherit;" fill="rgb(0, 0, 0)" stroke="rgb(204, 204, 204)" stroke-width="1px"></line></g><g transform="translate(0, 8)"><text x="0" y="0" dx="0em" dy="0.95em" style="text-anchor: middle; visibility: hidden; font-family: &quot;Helvetica Neue&quot;, sans-serif; font-size: 12px; font-weight: 200;" fill="rgb(50, 49, 63)" stroke="none" stroke-width="1px">-20k</text><text x="22.923076923076923" y="0" dx="0em" dy="0.95em" style="text-anchor: middle; visibility: inherit; font-family: &quot;Helvetica Neue&quot;, sans-serif; font-size: 12px; font-weight: 200;" fill="rgb(50, 49, 63)" stroke="none" stroke-width="1px">0</text><text x="45.84615384615385" y="0" dx="0em" dy="0.95em" style="text-anchor: middle; visibility: hidden; font-family: &quot;Helvetica Neue&quot;, sans-serif; font-size: 12px; font-weight: 200;" fill="rgb(50, 49, 63)" stroke="none" stroke-width="1px">20k</text><text x="68.76923076923077" y="0" dx="0em" dy="0.95em" style="text-anchor: middle; visibility: inherit; font-family: &quot;Helvetica Neue&quot;, sans-serif; font-size: 12px; font-weight: 200;" fill="rgb(50, 49, 63)" stroke="none" stroke-width="1px">40k</text><text x="91.6923076923077" y="0" dx="0em" dy="0.95em" style="text-anchor: middle; visibility: hidden; font-family: &quot;Helvetica Neue&quot;, sans-serif; font-size: 12px; font-weight: 200;" fill="rgb(50, 49, 63)" stroke="none" stroke-width="1px">60k</text><text x="114.61538461538463" y="0" dx="0em" dy="0.95em" style="text-anchor: middle; visibility: inherit; font-family: &quot;Helvetica Neue&quot;, sans-serif; font-size: 12px; font-weight: 200;" fill="rgb(50, 49, 63)" stroke="none" stroke-width="1px">80k</text><text x="137.53846153846155" y="0" dx="0em" dy="0.95em" style="text-anchor: middle; visibility: hidden; font-family: &quot;Helvetica Neue&quot;, sans-serif; font-size: 12px; font-weight: 200;" fill="rgb(50, 49, 63)" stroke="none" stroke-width="1px">100k</text><text x="160.46153846153845" y="0" dx="0em" dy="0.95em" style="text-anchor: middle; visibility: inherit; font-family: &quot;Helvetica Neue&quot;, sans-serif; font-size: 12px; font-weight: 200;" fill="rgb(50, 49, 63)" stroke="none" stroke-width="1px">120k</text><text x="183.3846153846154" y="0" dx="0em" dy="0.95em" style="text-anchor: middle; visibility: hidden; font-family: &quot;Helvetica Neue&quot;, sans-serif; font-size: 12px; font-weight: 200;" fill="rgb(50, 49, 63)" stroke="none" stroke-width="1px">140k</text><text x="206.3076923076923" y="0" dx="0em" dy="0.95em" style="text-anchor: middle; visibility: inherit; font-family: &quot;Helvetica Neue&quot;, sans-serif; font-size: 12px; font-weight: 200;" fill="rgb(50, 49, 63)" stroke="none" stroke-width="1px">160k</text><text x="229.23076923076925" y="0" dx="0em" dy="0.95em" style="text-anchor: middle; visibility: hidden; font-family: &quot;Helvetica Neue&quot;, sans-serif; font-size: 12px; font-weight: 200;" fill="rgb(50, 49, 63)" stroke="none" stroke-width="1px">180k</text><text x="252.15384615384616" y="0" dx="0em" dy="0.95em" style="text-anchor: middle; visibility: inherit; font-family: &quot;Helvetica Neue&quot;, sans-serif; font-size: 12px; font-weight: 200;" fill="rgb(50, 49, 63)" stroke="none" stroke-width="1px">200k</text><text x="275.0769230769231" y="0" dx="0em" dy="0.95em" style="text-anchor: middle; visibility: hidden; font-family: &quot;Helvetica Neue&quot;, sans-serif; font-size: 12px; font-weight: 200;" fill="rgb(50, 49, 63)" stroke="none" stroke-width="1px">220k</text><text x="298" y="0" dx="0em" dy="0.95em" style="text-anchor: middle; visibility: hidden; font-family: &quot;Helvetica Neue&quot;, sans-serif; font-size: 12px; font-weight: 200;" fill="rgb(50, 49, 63)" stroke="none" stroke-width="1px">240k</text></g><line x1="0" y1="0" x2="298" y2="0" fill="rgb(0, 0, 0)" stroke="rgb(204, 204, 204)" stroke-width="1px"></line></g></g></g></g></svg>