<svg viewBox="0 0 1433 400" xmlns="http://www.w3.org/2000/svg"><g><g><g><g><g><line x1="65" y1="378" x2="60" y2="378" style="visibility: inherit;" fill="rgb(0, 0, 0)" stroke="rgb(204, 204, 204)" stroke-width="1px"></line><line x1="65" y1="343.6363636363636" x2="60" y2="343.6363636363636" style="visibility: inherit;" fill="rgb(0, 0, 0)" stroke="rgb(204, 204, 204)" stroke-width="1px"></line><line x1="65" y1="309.2727272727273" x2="60" y2="309.2727272727273" style="visibility: inherit;" fill="rgb(0, 0, 0)" stroke="rgb(204, 204, 204)" stroke-width="1px"></line><line x1="65" y1="274.9090909090909" x2="60" y2="274.9090909090909" style="visibility: inherit;" fill="rgb(0, 0, 0)" stroke="rgb(204, 204, 204)" stroke-width="1px"></line><line x1="65" y1="240.5454545454545" x2="60" y2="240.5454545454545" style="visibility: inherit;" fill="rgb(0, 0, 0)" stroke="rgb(204, 204, 204)" stroke-width="1px"></line><line x1="65" y1="206.18181818181822" x2="60" y2="206.18181818181822" style="visibility: inherit;" fill="rgb(0, 0, 0)" stroke="rgb(204, 204, 204)" stroke-width="1px"></line><line x1="65" y1="171.81818181818178" x2="60" y2="171.81818181818178" style="visibility: inherit;" fill="rgb(0, 0, 0)" stroke="rgb(204, 204, 204)" stroke-width="1px"></line><line x1="65" y1="137.4545454545454" x2="60" y2="137.4545454545454" style="visibility: inherit;" fill="rgb(0, 0, 0)" stroke="rgb(204, 204, 204)" stroke-width="1px"></line><line x1="65" y1="103.09090909090901" x2="60" y2="103.09090909090901" style="visibility: inherit;" fill="rgb(0, 0, 0)" stroke="rgb(204, 204, 204)" stroke-width="1px"></line><line x1="65" y1="68.72727272727263" x2="60" y2="68.72727272727263" style="visibility: inherit;" fill="rgb(0, 0, 0)" stroke="rgb(204, 204, 204)" stroke-width="1px"></line><line x1="65" y1="34.36363636363643" x2="60" y2="34.36363636363643" style="visibility: inherit;" fill="rgb(0, 0, 0)" stroke="rgb(204, 204, 204)" stroke-width="1px"></line><line x1="65" y1="0" x2="60" y2="0" style="visibility: inherit;" fill="rgb(0, 0, 0)" stroke="rgb(204, 204, 204)" stroke-width="1px"></line></g><g transform="translate(55, 0)"><text x="0" y="378" dx="0em" dy="0.3em" style="text-anchor: end; visibility: hidden; font-family: &quot;Helvetica Neue&quot;, sans-serif; font-size: 12px; font-weight: 200;" fill="rgb(50, 49, 63)" stroke="none" stroke-width="1px">0.095</text><text x="0" y="343.6363636363636" dx="0em" dy="0.3em" style="text-anchor: end; visibility: inherit; font-family: &quot;Helvetica Neue&quot;, sans-serif; font-size: 12px; font-weight: 200;" fill="rgb(50, 49, 63)" stroke="none" stroke-width="1px">0.1</text><text x="0" y="309.2727272727273" dx="0em" dy="0.3em" style="text-anchor: end; visibility: inherit; font-family: &quot;Helvetica Neue&quot;, sans-serif; font-size: 12px; font-weight: 200;" fill="rgb(50, 49, 63)" stroke="none" stroke-width="1px">0.105</text><text x="0" y="274.9090909090909" dx="0em" dy="0.3em" style="text-anchor: end; visibility: inherit; font-family: &quot;Helvetica Neue&quot;, sans-serif; font-size: 12px; font-weight: 200;" fill="rgb(50, 49, 63)" stroke="none" stroke-width="1px">0.11</text><text x="0" y="240.5454545454545" dx="0em" dy="0.3em" style="text-anchor: end; visibility: inherit; font-family: &quot;Helvetica Neue&quot;, sans-serif; font-size: 12px; font-weight: 200;" fill="rgb(50, 49, 63)" stroke="none" stroke-width="1px">0.115</text><text x="0" y="206.18181818181822" dx="0em" dy="0.3em" style="text-anchor: end; visibility: inherit; font-family: &quot;Helvetica Neue&quot;, sans-serif; font-size: 12px; font-weight: 200;" fill="rgb(50, 49, 63)" stroke="none" stroke-width="1px">0.12</text><text x="0" y="171.81818181818178" dx="0em" dy="0.3em" style="text-anchor: end; visibility: inherit; font-family: &quot;Helvetica Neue&quot;, sans-serif; font-size: 12px; font-weight: 200;" fill="rgb(50, 49, 63)" stroke="none" stroke-width="1px">0.125</text><text x="0" y="137.4545454545454" dx="0em" dy="0.3em" style="text-anchor: end; visibility: inherit; font-family: &quot;Helvetica Neue&quot;, sans-serif; font-size: 12px; font-weight: 200;" fill="rgb(50, 49, 63)" stroke="none" stroke-width="1px">0.13</text><text x="0" y="103.09090909090901" dx="0em" dy="0.3em" style="text-anchor: end; visibility: inherit; font-family: &quot;Helvetica Neue&quot;, sans-serif; font-size: 12px; font-weight: 200;" fill="rgb(50, 49, 63)" stroke="none" stroke-width="1px">0.135</text><text x="0" y="68.72727272727263" dx="0em" dy="0.3em" style="text-anchor: end; visibility: inherit; font-family: &quot;Helvetica Neue&quot;, sans-serif; font-size: 12px; font-weight: 200;" fill="rgb(50, 49, 63)" stroke="none" stroke-width="1px">0.14</text><text x="0" y="34.36363636363643" dx="0em" dy="0.3em" style="text-anchor: end; visibility: inherit; font-family: &quot;Helvetica Neue&quot;, sans-serif; font-size: 12px; font-weight: 200;" fill="rgb(50, 49, 63)" stroke="none" stroke-width="1px">0.145</text><text x="0" y="0" dx="0em" dy="0.3em" style="text-anchor: end; visibility: hidden; font-family: &quot;Helvetica Neue&quot;, sans-serif; font-size: 12px; font-weight: 200;" fill="rgb(50, 49, 63)" stroke="none" stroke-width="1px">0.15</text></g><line x1="65" y1="0" x2="65" y2="378" fill="rgb(0, 0, 0)" stroke="rgb(204, 204, 204)" stroke-width="1px"></line></g></g><g transform="translate(65, 0)" clip-path="url(#clip_0)"><clipPath id="clip_0"><rect width="1368" height="378"></rect></clipPath><g><g><g><line x1="0" y1="0" x2="0" y2="378" fill="rgb(0, 0, 0)" stroke="rgb(60, 60, 60)" stroke-width="1px" opacity="0.25"></line><line x1="105.23076923076924" y1="0" x2="105.23076923076924" y2="378" fill="rgb(0, 0, 0)" stroke="rgb(60, 60, 60)" stroke-width="1px" opacity="0.25"></line><line x1="210.46153846153848" y1="0" x2="210.46153846153848" y2="378" fill="rgb(0, 0, 0)" stroke="rgb(60, 60, 60)" stroke-width="1px" opacity="0.25"></line><line x1="315.69230769230774" y1="0" x2="315.69230769230774" y2="378" fill="rgb(0, 0, 0)" stroke="rgb(60, 60, 60)" stroke-width="1px" opacity="0.25"></line><line x1="420.92307692307696" y1="0" x2="420.92307692307696" y2="378" fill="rgb(0, 0, 0)" stroke="rgb(60, 60, 60)" stroke-width="1px" opacity="0.25"></line><line x1="526.1538461538462" y1="0" x2="526.1538461538462" y2="378" fill="rgb(0, 0, 0)" stroke="rgb(60, 60, 60)" stroke-width="1px" opacity="0.25"></line><line x1="631.3846153846155" y1="0" x2="631.3846153846155" y2="378" fill="rgb(0, 0, 0)" stroke="rgb(60, 60, 60)" stroke-width="1px" opacity="0.25"></line><line x1="736.6153846153845" y1="0" x2="736.6153846153845" y2="378" fill="rgb(0, 0, 0)" stroke="rgb(60, 60, 60)" stroke-width="1px" opacity="0.25"></line><line x1="841.8461538461539" y1="0" x2="841.8461538461539" y2="378" fill="rgb(0, 0, 0)" stroke="rgb(60, 60, 60)" stroke-width="1px" opacity="0.25"></line><line x1="947.0769230769231" y1="0" x2="947.0769230769231" y2="378" fill="rgb(0, 0, 0)" stroke="rgb(60, 60, 60)" stroke-width="1px" opacity="0.25"></line><line x1="1052.3076923076924" y1="0" x2="1052.3076923076924" y2="378" fill="rgb(0, 0, 0)" stroke="rgb(60, 60, 60)" stroke-width="1px" opacity="0.25"></line><line x1="1157.5384615384614" y1="0" x2="1157.5384615384614" y2="378" fill="rgb(0, 0, 0)" stroke="rgb(60, 60, 60)" stroke-width="1px" opacity="0.25"></line><line x1="1262.769230769231" y1="0" x2="1262.769230769231" y2="378" fill="rgb(0, 0, 0)" stroke="rgb(60, 60, 60)" stroke-width="1px" opacity="0.25"></line><line x1="1368" y1="0" x2="1368" y2="378" fill="rgb(0, 0, 0)" stroke="rgb(60, 60, 60)" stroke-width="1px" opacity="0.25"></line></g><g><line x1="0" y1="378" x2="1368" y2="378" fill="rgb(0, 0, 0)" stroke="rgb(60, 60, 60)" stroke-width="1px" opacity="0.25"></line><line x1="0" y1="343.6363636363636" x2="1368" y2="343.6363636363636" fill="rgb(0, 0, 0)" stroke="rgb(60, 60, 60)" stroke-width="1px" opacity="0.25"></line><line x1="0" y1="309.2727272727273" x2="1368" y2="309.2727272727273" fill="rgb(0, 0, 0)" stroke="rgb(60, 60, 60)" stroke-width="1px" opacity="0.25"></line><line x1="0" y1="274.9090909090909" x2="1368" y2="274.9090909090909" fill="rgb(0, 0, 0)" stroke="rgb(60, 60, 60)" stroke-width="1px" opacity="0.25"></line><line x1="0" y1="240.5454545454545" x2="1368" y2="240.5454545454545" fill="rgb(0, 0, 0)" stroke="rgb(60, 60, 60)" stroke-width="1px" opacity="0.25"></line><line x1="0" y1="206.18181818181822" x2="1368" y2="206.18181818181822" fill="rgb(0, 0, 0)" stroke="rgb(60, 60, 60)" stroke-width="1px" opacity="0.25"></line><line x1="0" y1="171.81818181818178" x2="1368" y2="171.81818181818178" fill="rgb(0, 0, 0)" stroke="rgb(60, 60, 60)" stroke-width="1px" opacity="0.25"></line><line x1="0" y1="137.4545454545454" x2="1368" y2="137.4545454545454" fill="rgb(0, 0, 0)" stroke="rgb(60, 60, 60)" stroke-width="1px" opacity="0.25"></line><line x1="0" y1="103.09090909090901" x2="1368" y2="103.09090909090901" fill="rgb(0, 0, 0)" stroke="rgb(60, 60, 60)" stroke-width="1px" opacity="0.25"></line><line x1="0" y1="68.72727272727263" x2="1368" y2="68.72727272727263" fill="rgb(0, 0, 0)" stroke="rgb(60, 60, 60)" stroke-width="1px" opacity="0.25"></line><line x1="0" y1="34.36363636363643" x2="1368" y2="34.36363636363643" fill="rgb(0, 0, 0)" stroke="rgb(60, 60, 60)" stroke-width="1px" opacity="0.25"></line><line x1="0" y1="0" x2="1368" y2="0" fill="rgb(0, 0, 0)" stroke="rgb(60, 60, 60)" stroke-width="1px" opacity="0.25"></line></g></g></g><g><g><line x1="0" y1="1030.909090909091" x2="1368" y2="1030.909090909091" fill="rgb(0, 0, 0)" stroke="rgb(153, 153, 153)" stroke-width="1.5px"></line></g></g><g><g><line x1="105.23076923076924" y1="0" x2="105.23076923076924" y2="378" fill="rgb(0, 0, 0)" stroke="rgb(153, 153, 153)" stroke-width="1.5px"></line></g></g><g><g><g><g><g><path stroke="rgb(204, 51, 17)" stroke-width="2px" d="M134.69538461538463,-24.28949145821923L135.22153846153847,8.82068855669229L139.43076923076922,34.42152587468354L141.00923076923078,-4.0133627564432L142.5876923076923,25.50469009138203L143.11384615384614,34.41378979011802L143.64,13.530140127487925L144.16615384615383,45.47968249206258L146.7969230769231,46.29895397479237L151.00615384615384,34.91485793554119L151.5323076923077,38.54800836675918L154.68923076923076,73.39573606486334L158.89846153846153,63.73642138266672L160.47692307692307,64.41832771519177L161.00307692307692,79.90594420740467L164.68615384615384,96.78647729785445L166.26461538461538,78.35190963663854L167.31692307692308,101.274129687347L171.52615384615382,106.77570692804272L173.10461538461539,121.16488195103915L173.63076923076923,104.48686417368015L178.36615384615382,115.04590385975916L179.41846153846154,129.15490193417455L179.9446153846154,124.01094388484418L180.47076923076924,67.96662070363749L184.15384615384613,61.6199007880042L186.78461538461536,74.9817499248611L187.83692307692306,83.68800765879007L188.36307692307693,82.17832137919197L190.46769230769232,80.82529856263926L193.09846153846155,116.76266466996117L193.62461538461537,124.69495837783256L195.20307692307694,129.41726159718476L198.35999999999999,128.57746654658482L198.88615384615386,102.02781648685328L199.93846153846155,97.2212798832432L201.51692307692306,104.00915198881569L202.56923076923078,112.0563472113588L203.0953846153846,56.34956722267668L204.1476923076923,59.5700553183616L205.2,93.46022095666149L205.72615384615386,73.6484339617827L209.4092307692308,105.85234845017675L213.61846153846153,93.79618736163468L214.14461538461538,90.34369146423575L214.67076923076922,84.89953359233664L216.7753846153846,90.46378777403191L222.0369230769231,104.10249106762848L222.56307692307692,61.538380904337714L223.6153846153846,37.820588532184956L225.72,50.08883706082264L227.29846153846154,81.35622149426439L227.8246153846154,107.69830704976528L228.35076923076923,133.64019878005072L229.92923076923077,88.8561957100552L236.24307692307693,96.17759173141155L239.39999999999998,96.63536537522003L240.97846153846154,86.72056525250622L242.03076923076924,107.83215250877015L242.55692307692308,128.35821331055715L243.60923076923078,129.38665584305693L245.71384615384616,81.19848216196482L247.81846153846155,67.14226736308558L248.8707692307692,111.49713897190071L251.50153846153847,112.21245803524005L258.8676923076923,129.63001620714138L261.4984615384615,100.23174035082468L262.0246153846154,104.85837122680493L264.1292307692308,100.29528749514674L264.6553846153846,122.79378982989331L266.76,113.82587167278825L267.28615384615387,107.9804587901802L268.33846153846156,87.57709671125025L269.91692307692307,106.88555883262222L272.54769230769233,106.41633818140366L273.07384615384615,124.89518025002593L273.6,132.96482478667332L276.2307692307692,144.47704880128092L276.75692307692304,147.8054658800839L277.2830769230769,122.1610062476465L278.86153846153843,134.02155562271383L283.5969230769231,134.60484338041152L284.64923076923077,136.56702067342448L287.80615384615385,95.85772993605667L290.9630769230769,114.94767082108939L291.4892307692308,117.64720358421192L294.6461538461539,113.73317296812081L296.2246153846154,100.78089192271261L298.3292307692308,121.10193104221622L300.43384615384616,139.9172270284004L301.48615384615385,132.95722798783657L303.59076923076924,160.99513038671543L304.1169230769231,136.09386339590873L304.64307692307693,157.4951763385347L305.6953846153846,152.51568732354815L308.32615384615383,107.7236947767471L310.95692307692303,114.29539597510131L311.4830769230769,103.87547417189148L312.0092307692307,82.69944483624829L319.90153846153845,74.79672724575147L323.58461538461535,103.37655966946954L326.7415384615385,128.88874359573254L327.2676923076923,98.78866834212369L328.32,119.06862407947631L329.3723076923077,111.45636721647634L331.4769230769231,105.42620652706262L336.2123076923077,89.86068895280306L337.2646153846154,106.08815182285934L337.79076923076923,132.05609250036784L339.3692307692308,125.31075573381892L342.5261538461538,114.98232149025961L346.7353846153846,121.82660203215914L347.26153846153846,151.1350921454276L348.84000000000003,144.41485764917832L349.36615384615385,141.20864615966417L354.10153846153844,142.79063277213413L354.62769230769226,139.55770298592347L360.41538461538465,156.17837113265188L361.99384615384616,147.67395484629762L362.52000000000004,150.59869629145666L363.5723076923077,136.52254858992927L364.6246153846154,141.1828842343021L371.9907692307693,159.18622758384404L374.6215384615385,170.28641525742924L375.6738461538461,155.2481689356743L377.2523076923077,145.90012570583153L378.3046153846154,149.6534830353457L380.93538461538463,127.87686457547161L381.46153846153845,123.10758630440384L384.61846153846153,112.17475498809779L385.6707692307693,146.90406104436673L386.1969230769231,122.48054382238746L387.24923076923073,146.02225930440065L387.77538461538467,156.05748067141874L389.3538461538461,125.96627009362214L390.40615384615387,128.66927245365076L393.0369230769231,138.02401120563596L393.56307692307695,145.60508284032488L398.29846153846154,147.76196395465553L399.3507692307692,147.77299795703303L401.45538461538456,162.0347419303756L401.9815384615385,156.90074792852784L402.5076923076923,118.7122564450496L404.6123076923077,133.73135938585622L406.7169230769231,113.93889845379329L407.24307692307696,126.76317856021879L408.8215384615385,127.2173272362567L409.87384615384616,141.63531861903112L410.4,168.8545070909479L410.9261538461538,173.39377309546254L411.4523076923077,173.24825076749067L411.97846153846154,175.36493777870672L412.50461538461536,145.1844653194789L413.5569230769231,149.572982700099L414.08307692307693,158.31977990679968L416.71384615384613,128.79194546913186L417.24,144.28897076353476L419.3446153846154,144.42994880056125L420.92307692307696,153.39427824515292L421.9753846153846,168.12846387119737L425.1323076923077,154.1761228884395L426.18461538461537,128.77804962015426L428.81538461538463,149.39568387344707L430.92,152.73700084232604L431.44615384615383,175.6940608378846L432.4984615384616,184.68553094821942L438.8123076923077,157.21380099184717L442.49538461538464,173.07321190281428L443.02153846153846,149.51412553889156L444.0738461538462,158.09910058342788L444.6,169.34593228480878L445.12615384615384,142.63576688972285L445.65230769230766,158.47666036469226L446.7046153846154,182.76335068464675L448.2830769230769,168.50116930610722L450.3876923076923,179.98468738484087L450.9138461538461,194.23116805258917L453.0184615384615,171.01371751218434L454.5969230769231,151.60991976796686L456.70153846153846,161.07104999993595L458.28000000000003,136.08030317854778L458.80615384615385,144.6819422380225L459.33230769230767,151.09578843060976L459.85846153846154,150.54101108777655L460.3846153846154,149.6611437537179L461.43692307692305,148.0857573352995L461.9630769230769,159.8201282589554L462.48923076923074,153.15617161153716L464.0676923076923,139.25684732130912L464.59384615384613,136.70789232104977L465.12000000000006,153.13686744340427L466.1723076923077,129.38577074118635L467.22461538461533,110.07503665652615L467.75076923076927,141.24610170929765L471.43384615384616,156.72642066115708L473.0123076923077,160.74049568955485L475.1169230769231,176.6019355300493L476.6953846153846,174.24200132477117L477.7476923076923,148.4953756033648L478.79999999999995,151.73239967981232L480.90461538461534,144.771644548585L483.0092307692307,154.2772605980587L484.5876923076923,157.00393416998983L485.11384615384617,166.02494242175075L485.64,122.72245087743883L486.16615384615386,127.46988932855118L489.32307692307694,162.04020736772318L492.47999999999996,143.1347443297471L493.5323076923077,152.3472804697244L494.05846153846153,153.65937614219175L496.1630769230769,155.34191590089395L497.7415384615384,151.86683505065153L498.26769230769236,167.90266189908763L499.8461538461538,192.12209422658447L500.37230769230774,165.73427037324487L500.89846153846156,127.38806162920093L501.9507692307692,143.42480630284615L503.00307692307695,144.19312303535875L506.15999999999997,144.70130434794862L507.73846153846154,147.4298454971748L508.2646153846154,149.46600681092525L509.8430769230769,163.94326930750927L510.3692307692308,168.94485682823702L510.8953846153846,165.63764290179066L511.94769230769236,136.8081983641156L512.4738461538461,143.8433270013823L515.6307692307693,166.62460489663997L517.7353846153846,176.75974072084037L518.2615384615384,164.14349234739072L519.3138461538462,164.41527793788399L520.3661538461538,166.98600544161064L521.4184615384615,178.37044411891756L521.9446153846154,167.8894066344253L522.4707692307692,167.84260833716422L522.996923076923,154.1234889729545L523.5230769230769,161.68655138742366L525.1015384615384,166.89414032851886L526.1538461538462,147.823085402417L527.2061538461538,176.4581941347039L528.7846153846154,165.14009316719591L529.8369230769231,161.05076911207072L530.3630769230768,182.35351552947893L530.8892307692308,203.57375772120182L534.0461538461539,187.64212039629865L534.5723076923077,182.9218820781723L535.6246153846154,186.02334527841143L537.2030769230769,179.66126675788934L539.3076923076923,156.03855511775242L540.8861538461539,159.02768136888034L542.4646153846154,180.87748914421815L542.9907692307693,203.0132373268351L544.0430769230769,199.29296502765962L545.0953846153847,175.57730229457212L546.1476923076923,173.46151938728846L548.7784615384616,171.80747353901424L550.3569230769231,165.03518015827348L551.4092307692307,181.97149052269987L559.3015384615385,195.7607576600665L561.4061538461539,183.89163244242826L562.4584615384615,169.70932693548048L562.9846153846154,173.70018270012326L565.0892307692308,195.26854728046453L566.1415384615385,179.51843948701156L566.6676923076923,161.1771620874679L568.2461538461539,165.54734928616514L569.2984615384615,189.1853085514063L570.3507692307692,196.49268020780355L571.9292307692308,184.53171756349158L572.9815384615385,183.71774843134864L573.5076923076923,192.98120593958666L574.56,206.81866568612466L576.6646153846153,224.09741734654332L578.7692307692307,197.54218760788274L582.4523076923077,150.28735794818306L582.9784615384616,164.62031848872522L583.5046153846154,188.45333125596318L584.0307692307692,200.71049825194518L585.083076923077,186.4720668653322L586.6615384615384,162.4961508667275L587.1876923076924,158.74592479203974L587.7138461538461,152.35115004533168L589.2923076923078,183.15640742263466L589.8184615384615,180.2581259128689L590.3446153846154,162.15208058839283L590.8707692307692,182.0372546250916L595.08,189.3472396562764L595.6061538461538,181.41850000908678L597.1846153846154,186.7993303803952L600.8676923076923,186.48694694774736L602.4461538461538,174.36676107109196L606.6553846153846,174.47778976227303L607.1815384615385,181.0886936398637L608.2338461538462,189.45164378737977L608.76,190.88398316709083L609.2861538461539,161.33321981608154L610.8646153846154,180.11758285802713L611.3907692307693,168.7309003409815L612.4430769230769,198.92206266743375L613.4953846153846,212.50734003427175L616.1261538461539,209.1690290800377L616.6523076923077,209.33651335211283L618.756923076923,198.98198628365373L619.2830769230769,210.1092773043747L619.8092307692308,210.33701770413992L620.3353846153847,181.2022302161562L621.9138461538461,175.9661822195486L622.44,148.8868620798371L622.9661538461538,140.9091309572307L624.5446153846154,163.67836556930718L625.0707692307692,178.72266798837248L629.28,193.50894022305218L631.3846153846155,197.47381479713783L632.4369230769231,187.16236306478118L633.4892307692307,175.23441967408482L634.0153846153846,198.05470140817326L635.5938461538461,208.19720187646055L637.1723076923076,203.08626538378593L637.6984615384615,208.33296649265748L638.2246153846154,232.59121665016792L638.7507692307693,236.6602208046565L640.3292307692308,246.86284672191442L644.5384615384615,221.40065912803615L645.5907692307693,193.10043957472203L646.6430769230769,191.42812042509635L647.6953846153847,186.37650012960557L648.2215384615384,165.27700541230547L649.8,155.5885563416577L650.8523076923077,180.86075125692253L651.9046153846153,188.13270009871914L654.5353846153846,179.29456137011408L658.2184615384615,200.2520649467217L658.7446153846154,199.2981153898748L660.3230769230769,185.3890904291459L661.3753846153846,190.85486514754655L664.5323076923078,154.75440056609182L665.0584615384615,188.2215988128607L666.1107692307692,205.44819757278105L667.1630769230769,203.96286581553582L669.2676923076923,180.06338132542544L671.3723076923077,203.3512958311731L672.4246153846154,218.64769420114774L675.0553846153846,204.19196341902767L675.5815384615385,206.85610541385861L676.1076923076923,192.6437731306698L679.7907692307692,184.41299876803922L680.316923076923,177.76872529419035L683.4738461538461,132.43609261087363L685.5784615384615,154.97302199888756L686.1046153846153,190.20281705009603L686.6307692307693,177.22599168269429L691.3661538461539,179.36804728948766L692.4184615384615,182.7269930025017L693.9969230769232,194.01798539909896L697.1538461538461,185.9785356245718L697.6800000000001,197.82784567824868L699.7846153846153,189.0492115302902L701.3630769230768,195.2308305216065L701.8892307692308,192.03219980128543L702.4153846153846,181.13846607176134L703.9938461538461,187.5351335020739L709.7815384615385,142.0750490943445L711.36,131.22139762379032L712.9384615384616,180.25804609380543L713.4646153846153,167.82899537603754L713.9907692307693,197.9416557811216L715.5692307692308,204.51213474321187L716.0953846153845,198.9188764679031L716.6215384615384,176.11593859880378L724.5138461538461,184.10289688131016L726.0923076923077,189.16572527204252L727.1446153846153,203.51300343451572L727.6707692307692,212.97622058085662L728.7230769230769,218.6485387120532L729.2492307692308,204.4449966906026L730.8276923076922,201.03620158186644L732.4061538461538,199.1655977704644L732.9323076923077,185.1350294976002L733.9846153846154,204.414709143824L735.036923076923,178.35679610549607L736.0892307692309,172.2794280917921L737.1415384615385,187.9566456360506L738.72,193.03069849616696L739.7723076923077,215.4052614612311L740.8246153846154,232.4278217547169L741.876923076923,225.94689205518273L742.9292307692308,220.95445989887273L743.9815384615385,208.79668384927186L749.243076923077,201.91748166708206L751.3476923076922,202.21408076227175L753.4523076923077,238.1681867613279L753.9784615384615,223.01719636219585L754.5046153846154,198.94286086097432L755.556923076923,214.66974602465513L757.1353846153846,205.8206311191057L758.7138461538461,207.1889321401676L759.7661538461538,198.67521676336938L761.3446153846154,216.00496316068134L764.5015384615385,226.30758867764493L765.5538461538462,177.0987349245463L766.6061538461538,187.10303690449032L767.1323076923077,217.29704445631506L768.7107692307693,194.78852203019272L769.2369230769231,226.61476379947558L769.7630769230769,199.2773275318382L771.3415384615386,211.16937260285846L775.5507692307693,222.92578048327513L778.1815384615385,231.61667490818743L779.2338461538462,216.06139828563008L782.3907692307693,208.58526216192837L784.4953846153846,237.73706523325322L785.0215384615385,220.52234530731172L785.5476923076923,222.8464891060512L786.0738461538461,236.1601514219562L789.2307692307692,229.29352329315117L790.8092307692307,222.88593716380547L794.4923076923078,239.09355959921157L795.5446153846154,193.40541922933397L797.123076923077,226.8270632151863L797.6492307692307,236.94352150919823L799.2276923076923,229.3180548118411L799.7538461538462,216.63396634099396L802.3846153846155,230.4483922025359L802.9107692307691,210.2484094268016L803.4369230769231,205.1022412279804L805.0153846153846,212.28032175462442L806.5938461538462,211.862205300207L807.12,222.76439064027093L807.6461538461539,223.82752011369223L808.1723076923078,222.64445780171928L808.6984615384615,213.51364087136974L811.8553846153847,243.34796661777733L815.0123076923077,227.0185032221826L818.1692307692307,209.16967447272577L820.2738461538462,206.85470926349166L821.3261538461538,232.86438110927713L823.9569230769231,207.5170280272634L826.0615384615384,188.95979726901692L829.7446153846155,210.07344322340137L830.7969230769231,215.1884668124268L832.3753846153846,202.51556602162694L833.4276923076923,194.28289532524252L833.9538461538463,175.3520635900069L835.5323076923077,200.5491454249558L836.0584615384615,202.74872207265184L837.1107692307692,203.15968785493587L837.6369230769232,227.3230257315523L839.2153846153847,235.66291551976832L848.16,216.95899020167033L848.6861538461538,217.6914093255185L849.2123076923076,221.62588253319814L849.7384615384616,248.78986126818776L851.8430769230769,238.62277219134225L853.4215384615385,240.04334114021287L855.5261538461539,244.11069039988976L856.0523076923076,193.76606339182254L856.5784615384615,204.27497131912477L858.6830769230769,215.7268480258499L859.2092307692308,235.6970752898695L859.7353846153846,230.6346004543644L860.7876923076924,245.60804179970432L861.84,240.32713103744345L862.8923076923077,228.64529120541846L863.9446153846153,236.23379580746433L868.1538461538461,247.9879714132838L870.7846153846153,223.54480810542765L871.3107692307692,206.36701942756966L876.0461538461537,188.8807388511718L876.5723076923077,214.37161983165763L882.36,231.28685322254884L884.9907692307693,233.40638994918626L886.5692307692308,242.47251677361942L887.0953846153845,234.938136212569L888.6738461538462,228.12998055316953L889.7261538461538,220.19623328765817L890.2523076923077,202.22507068500002L894.4615384615385,206.6132408916061L894.9876923076923,203.74731510297897L895.5138461538461,197.8845133258977L896.0400000000001,226.62438191400258L897.6184615384616,215.39078667580495L898.6707692307692,229.78064494946523L899.196923076923,241.2216213691279L899.7230769230769,221.93071038521686L903.9323076923077,220.27556867001866L906.5630769230769,223.1523728568893L907.0892307692309,238.19481261315642L908.6676923076923,229.10093728258917L912.3507692307693,261.3237303273797L913.4030769230769,250.40677599227496L918.6646153846153,251.3097112250744L921.2953846153846,248.40247441203272L921.8215384615385,211.86661203209906L922.8738461538461,214.25660883001183L923.4000000000001,238.5082223961184L926.556923076923,228.19248245219606L927.083076923077,220.843185959438L930.2400000000001,249.77129304192144L930.7661538461538,246.15923534826717L935.5015384615385,248.96361364069801L937.6061538461538,235.49464671426225L938.6584615384614,212.86520479741162L940.7630769230769,235.2446475163629L945.4984615384615,236.9217885618363L946.5507692307693,247.61414343625032L948.1292307692307,214.55043105624313L949.1815384615385,226.95416623449543L949.7076923076922,223.47299993854134L952.3384615384615,237.32772020265995L953.916923076923,212.04413467397532L956.5476923076923,222.88366653228488L957.5999999999999,239.907127420876L959.7046153846154,246.94363775082655L960.756923076923,260.237390282214L961.2830769230769,249.71664953811938L961.8092307692307,245.29546090387407L962.8615384615385,259.0185496117062L963.9138461538462,244.0537956517353L966.5446153846154,239.3572440731284L968.123076923077,234.96307544743655L969.1753846153846,216.47350175878782L970.7538461538462,203.43627180875168L972.3323076923077,207.56338274935658L974.4369230769231,247.99910911704066L976.0153846153846,240.99810848270462L978.12,239.4237311243907L978.6461538461539,258.6301469974022L979.1723076923078,258.41301669800987L982.8553846153847,254.38808617341073L983.9076923076923,252.82339006706965L984.9599999999999,243.9335188055546L986.5384615384615,268.24872181973467L987.0646153846154,273.60052060418656L990.2215384615384,257.04447825641347L990.7476923076923,276.58462944832706L992.8523076923076,274.4835820064111L994.9569230769231,274.9396794758969L996.5353846153847,279.723955213753L997.0615384615384,297.92054202432007L997.5876923076924,242.52045876818363L998.1138461538462,259.6443733071263L999.1661538461539,260.92821100324244L1000.7446153846155,272.16285070975715L1004.4276923076923,294.7699795924539L1004.9538461538463,234.46477811115471L1007.5846153846154,243.36640527375852L1008.6369230769232,241.39424993548155L1009.1630769230769,230.3729281281812L1009.6892307692308,254.26146884403016L1014.4246153846154,230.34803274331048L1016.5292307692308,233.66730635471404L1017.0553846153847,234.2210319021506L1017.5815384615385,235.11827212122773L1018.1076923076923,248.19853684957707L1019.16,245.4692756903251L1021.7907692307692,273.4008408107155L1022.3169230769231,265.8570320914861L1023.3692307692307,246.50273270291333L1023.8953846153847,269.3253628642475L1024.4215384615384,248.0527474150998L1026,244.56252957650403L1027.0523076923077,263.81937759461846L1027.5784615384616,268.1860547882704L1028.1046153846153,290.53924351305466L1032.84,277.861674440491L1034.4184615384615,276.5571547388198L1039.1538461538462,267.46388358002787L1042.3107692307692,248.86590917727335L1042.836923076923,266.7126957059073L1045.993846153846,242.05045783672466L1046.52,234.79700060632615L1047.0461538461539,247.179373638963L1048.0984615384616,247.29789839595492L1051.2553846153846,243.77700771554444L1054.4123076923076,244.39777791625016L1054.9384615384615,260.41213979579277L1059.1476923076923,262.0683924571112L1059.6738461538462,258.42052185735804L1061.2523076923078,239.3834089616313L1062.8307692307692,279.52362886977795L1064.9353846153845,278.4148922134739L1065.9876923076924,278.35490287576107L1068.0923076923077,285.286647489707L1071.2492307692307,287.3637684974586L1073.3538461538462,256.74954128660215L1073.88,252.08658779554585L1075.4584615384615,254.22095917236982L1076.5107692307693,284.3215013895761L1078.0892307692309,252.99396783058012L1080.1938461538462,257.42403373359866L1081.246153846154,269.27894371077764L1082.2984615384617,219.8448852791455L1082.8246153846153,227.60657675176714L1083.3507692307692,259.02753636956675L1087.033846153846,239.57146968783303L1088.0861538461538,274.11770809225334L1088.6123076923077,269.913383957393L1091.769230769231,260.79935250515916L1092.2953846153846,250.58888660571083L1092.8215384615385,271.71560823576675L1093.8738461538462,282.86374181846446L1094.9261538461537,289.46647331591964L1101.24,288.83103907121404L1105.9753846153847,281.7701446685711L1108.0800000000002,272.0022541848567L1110.7107692307693,241.81495116106603L1111.236923076923,249.07347030285882L1113.8676923076923,266.88475137151516L1114.3938461538462,244.7109093108879L1114.9199999999998,248.39097675534904L1117.0246153846153,230.03447778950013L1117.5507692307692,269.2179396841898L1120.7076923076922,286.10386957923777L1122.8123076923077,289.22275108218315L1123.3384615384614,274.9542959079533L1123.8646153846155,285.00122925909693L1124.916923076923,282.46894558667896L1125.443076923077,286.7868122428099L1128.0738461538463,307.09984206429306L1129.6523076923077,271.74052698828046L1130.7046153846154,261.2660117027921L1132.283076923077,274.0820112762419L1133.8615384615384,291.89452826062796L1135.44,293.048848265886L1136.4923076923078,283.2262046065806L1139.6492307692308,256.73450845044124L1140.1753846153847,268.0994763987574L1141.2276923076922,269.61535833743727L1142.28,274.3381226101478L1147.0153846153846,229.5151906686943L1147.5415384615385,262.86606879807135L1148.0676923076924,282.31791982300865L1148.5938461538462,279.8953280566637L1155.96,277.594624101593L1158.0646153846155,295.58918926576115L1160.1692307692308,313.71812904317414L1160.6953846153847,274.80321054503685L1162.2738461538463,266.2353076356644L1162.8,272.3644522753517L1164.3784615384616,258.8095664067634L1165.430769230769,260.69984417568145L1166.4830769230769,282.20036330847057L1169.1138461538462,289.6013962644389L1170.6923076923076,279.93837972987L1171.7446153846154,282.86737092277747L1172.2707692307692,287.3749681642677L1173.3230769230768,301.9929265306282L1174.9015384615384,301.7001710403224L1176.48,282.1192163703163L1177.5323076923075,270.1036360006468L1179.1107692307692,238.07769994058557L1180.6892307692308,255.3916247006448L1181.2153846153847,294.18396440678356L1182.793846153846,300.88349500724877L1184.3723076923077,326.56181610374085L1188.5815384615385,330.50352101121854L1189.1076923076923,299.73721838568537L1190.16,318.18920529014616L1192.7907692307692,284.4387653076618L1195.4215384615384,275.5232552216469L1195.9476923076923,298.9456326895747L1196.4738461538461,269.31939850325864L1197.5261538461539,247.32890789662184L1198.0523076923077,252.5513150878919L1199.1046153846153,223.1691324736308L1200.156923076923,223.5596999270371L1201.7353846153846,237.04284694069707L1202.2615384615385,247.80317950737196L1204.366153846154,279.68257137504975L1206.9969230769232,249.21627495074557L1208.0492307692307,225.45360443116704L1211.206153846154,273.88145644466243L1211.7323076923076,297.50049995780086L1212.2584615384617,281.1357108687277L1212.7846153846153,292.1598340342482L1213.3107692307692,276.77063949525603L1214.8892307692308,301.5975060483665L1215.9415384615384,321.9197211624782L1217.52,315.9578874630148L1218.0461538461539,307.20037753011184L1219.6246153846153,301.4958134785996L1220.6769230769232,288.56167805440197L1221.7292307692308,254.30171982522256L1222.2553846153846,228.39223905955114L1222.7815384615385,220.9432539994597L1224.8861538461538,252.71057502901482L1226.9907692307693,256.3542915155862L1227.5169230769231,258.383585845742L1228.0430769230768,283.3986932466489L1230.1476923076923,269.2260180534595L1230.6738461538462,295.93887999295333L1231.7261538461537,325.0815517149354L1232.2523076923078,300.66640434948874L1233.3046153846153,262.7791573790912L1233.8307692307692,263.13907215850054L1234.356923076923,266.9425204496067L1235.4092307692308,267.78285916342134L1235.9353846153845,295.4947566621042L1236.9876923076924,271.3209021522668L1238.5661538461538,280.517771399968L1239.6184615384616,253.97513745733193L1240.1446153846155,276.86061045451004L1243.3015384615385,275.1343354041758L1243.8276923076921,296.9340464473269L1244.3538461538462,310.1209956245288L1246.4584615384615,289.82712145395345L1247.5107692307693,291.74767409304053L1248.563076923077,303.8225323394927L1250.6676923076923,300.6147236758791L1254.3507692307692,310.977609582801L1255.9292307692308,322.784700908913L1256.9815384615385,323.71874894365357L1258.033846153846,333.40300823466964L1258.56,319.6054055026374L1260.6646153846154,317.74207140664186L1261.716923076923,315.3524873485669L1262.2430769230768,277.4448600256202L1262.769230769231,295.32611181129835L1264.3476923076923,281.0092621866616L1264.8738461538462,312.4843998825619L1266.4523076923076,325.7249433389402L1266.9784615384615,340.7885358577536L1268.556923076923,330.0567022253233L1270.1353846153845,305.583776561676L1272.24,310.88591447802264L1275.396923076923,301.3847269278498L1275.923076923077,287.51861328579645L1277.5015384615385,302.55725296067885L1278.0276923076922,310.6790301956939L1279.0800000000002,298.4398322286404L1280.1323076923077,307.5570555318711L1280.6584615384616,257.4722825705057L1281.7107692307693,279.30572470431713L1282.236923076923,318.74751210454224L1283.2892307692307,317.16347148346597L1283.8153846153846,309.3557905465931L1284.3415384615384,333.7397567814928L1284.8676923076923,306.3889315575348L1285.9199999999998,327.6507750172499L1286.9723076923078,331.4547298236863L1287.4984615384615,285.99362618666305L1289.603076923077,307.1849412681599L1290.1292307692306,297.5449538912629L1291.1815384615386,289.6660908761285L1292.76,297.18138547230467L1293.8123076923077,291.0714811879807L1295.3907692307694,287.71359276111855L1301.7046153846154,325.825451734226L1303.8092307692307,301.295057521526L1305.3876923076923,288.2435086125084L1308.0184615384615,318.44094160629095L1309.0707692307692,320.0117733032924L1310.6492307692308,327.5752857677809L1313.8061538461538,308.0149361484667L1314.3323076923077,283.9901721202657L1315.3846153846155,274.2409616652217L1316.963076923077,302.5293237803955L1318.5415384615385,310.42684886251993L1319.0676923076924,286.807259466077L1319.5938461538462,314.74275901122934L1324.3292307692307,318.9040707546172L1324.8553846153845,325.10647878308015L1325.3815384615384,301.8790234857517L1325.9076923076923,305.9135974703642L1326.96,316.1932250036031L1328.0123076923076,323.286167588589L1329.5907692307692,332.2838777560718L1332.2215384615383,316.53487364187015L1333.2738461538463,314.42266953916754L1333.8,310.95298525541773L1334.3261538461538,289.7319386901352L1334.8523076923077,285.3205208969161L1339.0615384615385,310.03627230315044L1343.7969230769231,322.8851029577445L1346.4276923076923,308.8333460327089L1350.636923076923,300.66725121301465L1351.163076923077,318.5498163537451L1352.7415384615383,312.9711861816263L1354.8461538461538,325.3468130148507L1356.4246153846154,334.798239097203L1358.5292307692307,323.83884095480533L1360.1076923076923,335.8850955403044L1361.686153846154,295.85291846122595L1362.2123076923076,305.59610057895225L1362.7384615384615,294.0519028247884L1363.7907692307692,268.9190360782169L1368,274.3256949167568L1369.0523076923077,274.2256027275448" style="fill: none;" fill="none"></path></g></g></g></g><g opacity="0.2"><g><g><g><path stroke="rgb(204, 51, 17)" stroke-width="2px" d="M134.16923076923078,-27.85262118686336L134.69538461538463,10.838999748229924L135.22153846153847,58.48293217745692L139.43076923076922,72.82137784090907L141.00923076923078,-61.664430986751256L142.5876923076923,69.7811865806579L143.11384615384614,47.77733380144292L143.64,-17.79518593441361L144.16615384615383,93.40385978872126L146.7969230769231,47.527859102595926L151.00615384615384,17.838731353933156L151.5323076923077,43.99773066694087L154.68923076923076,125.66730835221028L158.89846153846153,49.24745256250554L160.47692307692307,65.44118707830256L161.00307692307692,103.13736709681422L164.68615384615384,122.10727572441098L166.26461538461538,50.7000589370727L167.31692307692308,135.6574591723355L171.52615384615382,115.02807270396835L173.10461538461539,142.74864435195923L173.63076923076923,79.46983760053462L178.36615384615382,130.88446335359052L179.41846153846154,150.31839901750735L179.9446153846154,116.2950068170374L180.47076923076924,-16.099864027716933L184.15384615384613,52.09982091730291L186.78461538461536,95.0245236266743L187.83692307692306,96.74739425832576L188.36307692307693,79.91379195993596L190.46769230769232,78.79576433788645L193.09846153846155,170.6687138297341L193.62461538461537,136.59339893947947L195.20307692307694,136.50071642615578L198.35999999999999,127.31777397069061L198.88615384615386,62.20334139737213L199.93846153846155,90.01147497784007L201.51692307692306,114.19096014716405L202.56923076923078,124.12714004516599L203.0953846153846,-27.21060276031494L204.1476923076923,64.40078746188766L205.2,144.2954694141041L205.72615384615386,43.930753469467106L209.4092307692308,154.1582201827656L213.61846153846153,75.71194572882217L214.14461538461538,85.16494761813766L214.67076923076922,76.7332967844876L216.7753846153846,98.81016904657537L222.0369230769231,124.56054600802335L222.56307692307692,-2.3077843405984027L223.6153846153846,2.2438999739559904L225.72,68.49120985377914L227.29846153846154,128.25729814442718L227.8246153846154,147.21143538301638L228.35076923076923,172.55303637547925L229.92923076923077,21.680191105062306L236.24307692307693,107.15968576344574L239.39999999999998,97.32202584093267L240.97846153846154,71.84836506843561L242.03076923076924,139.49953339316627L242.55692307692308,159.14730451323769L243.60923076923078,130.92931964180684L245.71384615384616,8.91622164032674L247.81846153846155,46.05794516476715L248.8707692307692,178.0294463851235L251.50153846153847,113.28543663024897L258.8676923076923,155.75635346499357L261.4984615384615,56.13432656634933L262.0246153846154,111.7983175407756L264.1292307692308,93.45066189765924L264.6553846153846,156.54154333201322L266.76,100.37399443713099L267.28615384615387,99.21233946626836L268.33846153846156,56.972053592855275L269.91692307692307,135.8482520146803L272.54769230769233,105.71250720457596L273.07384615384615,152.61344335295937L273.6,145.0692915916443L276.2307692307692,161.74538482319224L276.75692307692304,152.79809149828824L277.2830769230769,83.69431679899043L278.86153846153843,151.81237968531522L283.5969230769231,135.47977501695803L284.64923076923077,139.51028661294416L287.80615384615385,34.793793830004574L290.9630769230769,143.5825821486386L291.4892307692308,121.69650272889572L294.6461538461539,107.86212704398412L296.2246153846154,81.35247035460037L298.3292307692308,151.58348972147158L300.43384615384616,168.1401710076765L301.48615384615385,122.51722942699084L303.59076923076924,203.0519839850339L304.1169230769231,98.74196290969843L304.64307692307693,189.5971457524733L305.6953846153846,145.0464538010684L308.32615384615383,40.53570595654571L310.95692307692303,124.15294777263293L311.4830769230769,88.24559146707708L312.0092307692307,50.935400832783046L319.90153846153845,62.942650860006154L323.58461538461535,146.24630830504677L326.7415384615385,167.15701948512682L327.2676923076923,53.638555461710155L328.32,149.48855768550524L329.3723076923077,100.03798192197627L331.4769230769231,96.3809654929421L336.2123076923077,66.51241259141398L337.2646153846154,130.42934612794355L337.79076923076923,171.00800351663068L339.3692307692308,115.19275058399546L342.5261538461538,99.4896701249209L346.7353846153846,132.09302284500814L347.26153846153846,195.09782731533048L348.84000000000003,134.33450590480456L349.36615384615385,136.39932892539284L354.10153846153844,145.1636126908389L354.62769230769226,134.70830830660734L360.41538461538465,181.10937335274434L361.99384615384616,134.91733041676605L362.52000000000004,154.98580845919523L363.5723076923077,115.40832703763789L364.6246153846154,148.17338770086113L371.9907692307693,186.19124260815704L374.6215384615385,186.936696767807L375.6738461538461,132.69079945304176L377.2523076923077,131.87806086106733L378.3046153846154,155.2835190296173L380.93538461538463,95.21193688566035L381.46153846153845,115.95366889780217L384.61846153846153,95.77550801363856L385.6707692307693,198.9980201287703L386.1969230769231,85.84526798941869L387.24923076923073,181.33483252742073L387.77538461538467,171.110312721946L389.3538461538461,80.82945422692728L390.40615384615387,132.72377599369395L393.0369230769231,152.056119333614L393.56307692307695,156.9766902923584L398.29846153846154,150.99728562615132L399.3507692307692,147.78954896059903L401.45538461538456,183.42735789038917L401.9815384615385,149.19975692575625L402.5076923076923,61.429519219831946L404.6123076923077,156.26001379706642L406.7169230769231,84.2502070556987L407.24307692307696,145.99959871985695L408.8215384615385,127.89855025031349L409.87384615384616,163.26230569319287L410.4,209.68328979882327L410.9261538461538,180.20267210223457L411.4523076923077,173.0299672755328L411.97846153846154,178.53996829553083L412.50461538461536,99.91375663063741L413.5569230769231,156.15575877102935L414.08307692307693,171.43997571685097L416.71384615384613,84.50019381263036L417.24,167.53450870513916L419.3446153846154,144.64141585610128L420.92307692307696,166.84077241204L421.9753846153846,190.22974231026387L425.1323076923077,133.24761141430247L426.18461538461537,90.68093971772623L428.81538461538463,180.32213525338605L430.92,157.74897629564455L431.44615384615383,210.1296508312225L432.4984615384616,198.17273611372167L438.8123076923077,116.00620605728841L442.49538461538464,196.8623282692649L443.02153846153846,114.1754959930073L444.0738461538462,170.97656315023247L444.6,186.21617983688006L445.12615384615384,102.57051879709417L445.65230769230766,182.23800057714632L446.7046153846154,219.19338616457853L448.2830769230769,147.10789723829785L450.3876923076923,197.20996450294146L450.9138461538461,215.6008890542117L453.0184615384615,136.18754170157692L454.5969230769231,122.50422315164045L456.70153846153846,175.26274534789L458.28000000000003,98.5941829464652L458.80615384615385,157.58440082723442L459.33230769230767,160.71655771949074L459.85846153846154,149.70884507352653L460.3846153846154,148.34134275263003L461.43692307692305,145.72267770767212L461.9630769230769,177.42168464443898L462.48923076923074,143.16023664040998L464.0676923076923,118.4078608859669L464.59384615384613,132.88445982066068L465.12000000000006,177.78033012693575L466.1723076923077,93.75912568785924L467.22461538461533,81.10893552953547L467.75076923076927,188.0026992884549L471.43384615384616,179.94689908894622L473.0123076923077,166.76160823215136L475.1169230769231,200.3940952907909L476.6953846153846,170.70210001685402L477.7476923076923,109.87543702125544L478.79999999999995,156.5879357944835L480.90461538461534,134.3305118517442L483.0092307692307,168.53568467226896L484.5876923076923,161.09394452788612L485.11384615384617,179.556454799392L485.64,57.76871356097132L486.16615384615386,134.59104700521985L489.32307692307694,213.89568442648107L492.47999999999996,114.77654977278274L493.5323076923077,166.16608467969024L494.05846153846153,155.62751965089276L496.1630769230769,157.86572553894734L497.7415384615384,146.65421377528796L498.26769230769236,191.95640217174181L499.8461538461538,228.45124271782962L500.37230769230774,126.15253459323534L500.89846153846156,69.86874851313502L501.9507692307692,167.47992331331423L503.00307692307695,145.3455981341275L506.15999999999997,145.4635763168335L507.73846153846154,151.52265722101382L508.2646153846154,152.520248781551L509.8430769230769,185.65916305238548L510.3692307692308,176.4472381093285L510.8953846153846,160.676822012121L511.94769230769236,93.5640315576033L512.4738461538461,154.3960199572823L515.6307692307693,200.7965217395262L517.7353846153846,191.96244445714083L518.2615384615384,145.2191197872162L519.3138461538462,164.82295632362366L520.3661538461538,170.84209669720042L521.4184615384615,195.44710213487798L521.9446153846154,152.16785040768707L522.4707692307692,167.77241089127278L522.996923076923,133.54480992663989L523.5230769230769,173.0311450091275L525.1015384615384,174.70552374016154L526.1538461538462,119.216503013264L527.2061538461538,219.41085723313418L528.7846153846154,148.16294171593404L529.8369230769231,154.91678302938286L530.3630769230768,214.3076351555911L530.8892307692308,235.4041210087863L534.0461538461539,163.74466440894386L534.5723076923077,175.84152460098267L535.6246153846154,190.67554007877L537.2030769230769,170.11814897710624L539.3076923076923,120.60448765754694L540.8861538461539,163.51137074557218L542.4646153846154,213.6522008072246L542.9907692307693,236.21685960076073L544.0430769230769,193.71255657889625L545.0953846153847,140.00380819494072L546.1476923076923,170.28784502636302L548.7784615384616,169.3264047666029L550.3569230769231,154.87674008716235L551.4092307692307,207.3759560693394L559.3015384615385,216.4446583661166L561.4061538461539,166.08794461597094L562.4584615384615,148.43586867505852L562.9846153846154,179.6864663470875L565.0892307692308,227.6210941509767L566.1415384615385,155.89327779683197L566.6676923076923,133.66524598815224L568.2461538461539,172.10263008421114L569.2984615384615,224.64224744926798L570.3507692307692,207.45373769239944L571.9292307692308,166.5902735970237L572.9815384615385,182.49679473313415L573.5076923076923,206.87639220194382L574.56,227.57485530593178L576.6646153846153,250.01554483717138L578.7692307692307,157.7093429998918L582.4523076923077,79.40511345863337L582.9784615384616,186.11975929953834L583.5046153846154,224.20285040682012L584.0307692307692,219.09624874591825L585.083076923077,165.11441978541288L586.6615384615384,126.53227686882016L587.1876923076924,153.12058568000793L587.7138461538461,142.75898792526937L589.2923076923078,229.3642934885892L589.8184615384615,175.9107036482204L590.3446153846154,134.993012601679L590.8707692307692,211.8650156801397L595.08,200.31221720305356L595.6061538461538,169.5253905383023L597.1846153846154,194.8705759373578L600.8676923076923,186.0183717987754L602.4461538461538,156.18648225610903L606.6553846153846,174.6443327990445L607.1815384615385,191.00504945624957L608.2338461538462,201.9960690086538L608.76,193.03249223665756L609.2861538461539,117.00707478956741L610.8646153846154,208.29412742094559L611.3907692307693,151.65087656541303L612.4430769230769,244.20880615711212L613.4953846153846,232.88525608452883L616.1261538461539,204.1615626486865L616.6523076923077,209.58773976022545L618.756923076923,183.45019568096507L619.2830769230769,226.80021383545616L619.8092307692308,210.67862830378792L620.3353846153847,137.50004898418078L621.9138461538461,168.11211022463712L622.44,108.26788187026972L622.9661538461538,128.94253427332094L624.5446153846154,197.8322174874219L625.0707692307692,201.2891216169704L629.28,215.68834857507184L631.3846153846155,203.42112665826622L632.4369230769231,171.69518546624616L633.4892307692307,157.34250458804044L634.0153846153846,232.28512400930578L635.5938461538461,223.4109525788914L637.1723076923076,195.419860644774L637.6984615384615,216.20301815596494L638.2246153846154,268.97859188643366L638.7507692307693,242.76372703638944L640.3292307692308,262.1667855978012L644.5384615384615,183.20737773721865L645.5907692307693,150.65011024475098L646.6430769230769,188.91964170065793L647.6953846153847,178.79906968636945L648.2215384615384,133.627763336355L649.8,141.05588273568586L650.8523076923077,218.7690436298197L651.9046153846153,199.0406233614141L654.5353846153846,166.03735327720642L658.2184615384615,231.68832031163302L658.7446153846154,197.86719105460426L660.3230769230769,164.52555298805237L661.3753846153846,199.05352722514758L664.5323076923078,100.60370369391006L665.0584615384615,238.42239618301392L666.1107692307692,231.28809571266174L667.1630769230769,201.73486817966807L669.2676923076923,144.21415459025988L671.3723076923077,238.2831675897945L672.4246153846154,241.59229175610974L675.0553846153846,182.5083672458475L675.5815384615385,210.852318406105L676.1076923076923,171.32527470588684L679.7907692307692,172.06683722409332L680.316923076923,167.80231508341703L683.4738461538461,64.43714358589864L685.5784615384615,188.77841608090833L686.1046153846153,243.04750962690872L686.6307692307693,157.7607536315918L691.3661538461539,182.5811306996779L692.4184615384615,187.76541157202288L693.9969230769232,210.95447399399495L697.1538461538461,173.91936096278104L697.6800000000001,215.6018107587641L699.7846153846153,175.88126030835235L701.3630769230768,204.50325900858098L701.8892307692308,187.2342537208037L702.4153846153846,164.79786547747526L703.9938461538461,197.13013464754277L709.7815384615385,73.8849224827506L711.36,114.94092041795903L712.9384615384616,253.81301879882812L713.4646153846153,149.18541929938576L713.9907692307693,243.11064638874748L715.5692307692308,214.36785318634728L716.0953846153845,190.52898905493996L716.6215384615384,141.9115317951549L724.5138461538461,196.08333430506966L726.0923076923077,196.7599678581411L727.1446153846153,225.03392067822543L727.6707692307692,227.17104630036786L728.7230769230769,227.15701590884814L729.2492307692308,183.13968365842643L730.8276923076922,195.92300891876218L732.4061538461538,196.35969205336136L732.9323076923077,164.08917708830396L733.9846153846154,233.33422861315987L735.036923076923,139.26992654800412L736.0892307692309,163.16337607123634L737.1415384615385,211.47247195243833L738.72,200.64177778634158L739.7723076923077,248.96710590882734L740.8246153846154,257.9616621949456L741.876923076923,216.22549750588158L742.9292307692308,213.46581166440788L743.9815384615385,190.56001977487043L749.243076923077,191.59867839379743L751.3476923076922,202.65897940505633L753.4523076923077,292.09934575991196L753.9784615384615,200.29071076349777L754.5046153846154,162.83135760914195L755.556923076923,238.26007377017626L757.1353846153846,192.5469587607817L758.7138461538461,209.24138367176053L759.7661538461538,185.90464369817212L761.3446153846154,241.99958275664935L764.5015384615385,241.7615269530903L765.5538461538462,103.28545429489827L766.6061538461538,202.10948987440628L767.1323076923077,262.5880557840521L768.7107692307693,161.0257383910092L769.2369230769231,274.35412645339966L769.7630769230769,158.27117313038218L771.3415384615386,229.00744020938873L775.5507692307693,240.56039230390027L778.1815384615385,244.6530165455558L779.2338461538462,192.72848335179415L782.3907692307693,197.3710579763759L784.4953846153846,281.4647698402405L785.0215384615385,194.70026541839945L785.5476923076923,226.3327048041604L786.0738461538461,256.1306448958137L789.2307692307692,218.99358109994367L790.8092307692307,213.2745579697869L794.4923076923078,263.4049932523207L795.5446153846154,124.87320867451751L797.123076923077,276.95952919396484L797.6492307692307,252.11820895021611L799.2276923076923,217.87985476580533L799.7538461538462,197.6078336347233L802.3846153846155,251.1700309948488L802.9107692307691,179.94843526320025L803.4369230769231,197.3829889297485L805.0153846153846,223.04744254459033L806.5938461538462,211.2350306185809L807.12,239.11766865036705L807.6461538461539,225.42221432382408L808.1723076923078,220.86986433375964L808.6984615384615,199.8174154758453L811.8553846153847,288.0994552373886L815.0123076923077,202.5243081287904L818.1692307692307,182.39643134854055L820.2738461538462,203.38226144964042L821.3261538461538,271.8788888779553L823.9569230769231,169.49599840424275L826.0615384615384,161.12395113164726L829.7446153846155,241.74391215497795L830.7969230769231,222.86100219596514L832.3753846153846,183.50621483542702L833.4276923076923,181.933889280666L833.9538461538463,146.95581598715344L835.5323076923077,238.34476817737925L836.0584615384615,206.04808704419568L837.1107692307692,203.77613652836192L837.6369230769232,263.5680325464769L839.2153846153847,248.17275020209226L848.16,188.90310222452334L848.6861538461538,218.79003801129082L849.2123076923076,227.52759234471753L849.7384615384616,289.53582937067205L851.8430769230769,223.37213857607406L853.4215384615385,242.17419456351885L855.5261538461539,250.2117142894051L856.0523076923076,118.24912287972188L856.5784615384615,220.03833321007815L858.6830769230769,232.9046630859375L859.2092307692308,265.6524161858992L859.7353846153846,223.04088820110667L860.7876923076924,268.06820381771433L861.84,232.40576489405197L862.8923076923077,211.1225314573808L863.9446153846153,247.61655271053314L868.1538461538461,265.61923482201314L870.7846153846153,186.88006314364347L871.3107692307692,180.60033641078255L876.0461538461537,162.651317986575L876.5723076923077,252.60794130238617L882.36,256.65970330888575L884.9907692307693,236.58569503914225L886.5692307692308,256.07170701026917L887.0953846153845,223.63656537099317L888.6738461538462,217.91774706407026L889.7261538461538,208.2956123893911L890.2523076923077,175.26832678101277L894.4615384615385,213.19549620151517L894.9876923076923,199.44842642003837L895.5138461538461,189.09031066027555L896.0400000000001,269.7341847961599L897.6184615384616,198.54039381850848L898.6707692307692,251.36543235995555L899.196923076923,258.3830859986218L899.7230769230769,192.9943439093503L903.9323076923077,217.79285609722135L906.5630769230769,227.46757913719523L907.0892307692309,260.7584722475572L908.6676923076923,215.4601242867383L912.3507692307693,309.6579198945652L913.4030769230769,234.03134448961777L918.6646153846153,252.66411407427353L921.2953846153846,244.0416191924702L921.8215384615385,157.0628184621984L922.8738461538461,217.84160402688113L923.4000000000001,274.8856427452781L926.556923076923,212.71887253631243L927.083076923077,209.81924122030082L930.2400000000001,293.1634536656466L930.7661538461538,240.74114880778572L935.5015384615385,253.17018107934433L937.6061538461538,215.29119632460853L938.6584615384614,178.9210419221358L940.7630769230769,268.8138115947897L945.4984615384615,239.4375001300465L946.5507692307693,263.6526757478714L948.1292307692307,164.9548624862324L949.1815384615385,245.55976900187406L949.7076923076922,218.25125049461016L952.3384615384615,258.1098005988381L953.916923076923,174.11875638094816L956.5476923076923,239.1429643197493L957.5999999999999,265.44231875376266L959.7046153846154,257.4984032457525L960.756923076923,280.17801907929504L961.2830769230769,233.93553842197764L961.8092307692307,238.66367795250633L962.8615384615385,279.6031826734543L963.9138461538462,221.6066647117788L966.5446153846154,232.31241670521823L968.123076923077,228.37182250889865L969.1753846153846,188.73914122581482L970.7538461538462,183.8804268836975L972.3323076923077,213.75404916026375L974.4369230769231,308.6526986685666L976.0153846153846,230.49660753120074L978.12,237.0621650869196L978.6461538461539,287.43977080691946L979.1723076923078,258.08732124892146L982.8553846153847,248.35069038651207L983.9076923076923,250.47634590755808L984.9599999999999,230.59871191328222L986.5384615384615,304.7215263410048L987.0646153846154,281.62821878086436L990.2215384615384,232.2104147347537L990.7476923076923,305.8948562361977L992.8523076923076,271.3320108435371L994.9569230769231,275.62382568012583L996.5353846153847,286.9003688205372L997.0615384615384,325.2154222401706L997.5876923076924,159.42033388397908L998.1138461538462,285.33024511554027L999.1661538461539,262.8539675474167L1000.7446153846155,289.01481026952916L1004.4276923076923,328.680672916499L1004.9538461538463,144.00697588920593L1007.5846153846154,256.71884601766413L1008.6369230769232,238.4360169280659L1009.1630769230769,213.84094541723076L1009.6892307692308,290.09427991780365L1014.4246153846154,194.47787859223104L1016.5292307692308,238.64621677181938L1017.0553846153847,235.05162022330543L1017.5815384615385,236.46413244984367L1018.1076923076923,267.81893394210124L1019.16,241.37538395144722L1021.7907692307692,315.2981884913011L1022.3169230769231,254.5413190126419L1023.3692307692307,217.47128362005407L1023.8953846153847,303.55930810624903L1024.4215384615384,216.1438242413781L1026,239.32720281861046L1027.0523076923077,292.7046496217901L1027.5784615384616,274.7360705787485L1028.1046153846153,324.0690266002308L1032.84,258.8453208316456L1034.4184615384615,274.6003751863133L1039.1538461538462,253.82397684183985L1042.3107692307692,220.9689475731416L1042.836923076923,293.48287549885833L1045.993846153846,205.05710103295064L1046.52,223.9168147607283L1047.0461538461539,265.75293318791825L1048.0984615384616,247.4756855314428L1051.2553846153846,238.49567169492894L1054.4123076923076,245.32893321730873L1054.9384615384615,284.43368261510676L1059.1476923076923,264.55277144908905L1059.6738461538462,252.94871595772827L1061.2523076923078,210.82773961804128L1062.8307692307692,339.7339587319981L1064.9353846153845,276.7517872290178L1065.9876923076924,278.26491886919194L1068.0923076923077,295.6842644106258L1071.2492307692307,290.4794500090859L1073.3538461538462,210.82820047031748L1073.88,245.09215755896133L1075.4584615384615,257.4225162376057L1076.5107692307693,329.47231471538544L1078.0892307692309,206.00266749208623L1080.1938461538462,264.0691325881264L1081.246153846154,287.0613086765463L1082.2984615384617,145.6937976316972L1082.8246153846153,239.2491139606996L1083.3507692307692,306.158975796266L1087.033846153846,210.38736966523257L1088.0861538461538,325.93706569888377L1088.6123076923077,263.6068977551027L1091.769230769231,247.12830532680857L1092.2953846153846,235.2731877565384L1092.8215384615385,303.4056906808506L1093.8738461538462,299.58594219251114L1094.9261538461537,299.37057056210256L1101.24,287.8778877041557L1105.9753846153847,271.1788030646064L1108.0800000000002,257.3504184592854L1110.7107692307693,196.53399662538007L1111.236923076923,259.961249015548L1113.8676923076923,293.60167297449976L1114.3938461538462,211.4501462199471L1114.9199999999998,253.91107792204076L1117.0246153846153,202.49972934072667L1117.5507692307692,327.9931325262243L1120.7076923076922,311.4327644218098L1122.8123076923077,293.90107333660126L1123.3384615384614,253.55161314660853L1123.8646153846155,300.0716292858124L1124.916923076923,278.67052007805216L1125.443076923077,293.2636122270064L1128.0738461538463,337.5693867965178L1129.6523076923077,218.70155437426132L1130.7046153846154,245.5542387745597L1132.283076923077,293.3060106364163L1133.8615384615384,318.6133037372069L1135.44,294.7803282737732L1136.4923076923078,268.4922391176224L1139.6492307692308,216.99696421623227L1140.1753846153847,285.1469283212315L1141.2276923076922,271.88918124545705L1142.28,281.42226901921356L1147.0153846153846,162.2807927565141L1147.5415384615385,312.89238599213684L1148.0676923076924,311.4956963604147L1148.5938461538462,276.2614404071461L1155.96,274.1435681689869L1158.0646153846155,322.58103701201355L1160.1692307692308,340.9115387092937L1160.6953846153847,216.43083279783073L1162.2738461538463,253.38345327160573L1162.8,281.5581692348827L1164.3784615384616,238.47723760388115L1165.430769230769,263.53526082905853L1166.4830769230769,314.45114200765437L1169.1138461538462,300.7029456983913L1170.6923076923076,265.44385492801666L1171.7446153846154,287.2608577121388L1172.2707692307692,294.13636402650314L1173.3230769230768,323.91986408016896L1174.9015384615384,301.2610378048637L1176.48,252.7477843653072L1177.5323076923075,252.08026544614273L1179.1107692307692,190.03879585049367L1180.6892307692308,281.3625118407336L1181.2153846153847,352.3724739659916L1182.793846153846,310.93279090794647L1184.3723076923077,365.079297748479L1188.5815384615385,336.41607837243515L1189.1076923076923,253.5877644473856L1190.16,345.8671856468374L1192.7907692307692,233.8131053339351L1195.4215384615384,262.1499900926243L1195.9476923076923,334.0791988914663L1196.4738461538461,224.88004722378471L1197.5261538461539,214.3431719866666L1198.0523076923077,260.38492587479675L1199.1046153846153,179.09585855223915L1200.156923076923,224.14555110714653L1201.7353846153846,257.2675674611872L1202.2615384615385,263.94367835738444L1204.366153846154,327.50165917656636L1206.9969230769232,203.51683031428942L1208.0492307692307,189.8095986517993L1211.206153846154,346.5232344649055L1211.7323076923076,332.92906522750854L1212.2584615384617,256.5885272351178L1212.7846153846153,308.696018782529L1213.3107692307692,253.68684768676758L1214.8892307692308,338.8378058780323L1215.9415384615384,352.40304383364594L1217.52,307.01513691381973L1218.0461538461539,294.0641126307574L1219.6246153846153,292.9389674013311L1220.6769230769232,269.16047491810536L1221.7292307692308,202.91178248145363L1222.2553846153846,189.52801791104403L1222.7815384615385,209.76977640932256L1224.8861538461538,300.3615565733476L1226.9907692307693,261.81986624544317L1227.5169230769231,261.42752734097564L1228.0430769230768,320.9213543480093L1230.1476923076923,247.96700526367533L1230.6738461538462,336.00817290219396L1231.7261538461537,368.7955592979084L1232.2523076923078,264.04368330131877L1233.3046153846153,205.9482869234952L1233.8307692307692,263.67894432761454L1234.356923076923,272.6476928862658L1235.4092307692308,269.0433672341433L1235.9353846153845,337.06260291012853L1236.9876923076924,235.0601203875108L1238.5661538461538,294.3130752715197L1239.6184615384616,214.16118654337797L1240.1446153846155,311.18881995027715L1243.3015384615385,272.5449228286743L1243.8276923076921,329.63361301205373L1244.3538461538462,329.9014193903316L1246.4584615384615,259.3863101980903L1247.5107692307693,294.6285030516711L1248.563076923077,321.93481970917094L1250.6676923076923,295.8030106804588L1254.3507692307692,326.5219384431839L1255.9292307692308,340.495337898081L1256.9815384615385,325.1198209957643L1258.033846153846,347.9293971711939L1258.56,298.9090014045889L1260.6646153846154,314.9470702626488L1261.716923076923,311.76811126145446L1262.2430769230768,220.5834190412001L1262.769230769231,322.1479894898155L1264.3476923076923,259.5339877497066L1264.8738461538462,359.6971064264124L1266.4523076923076,345.58575852350754L1266.9784615384615,363.38392463597387L1268.556923076923,313.9589517766779L1270.1353846153845,268.8743880662051L1272.24,318.8391213525425L1275.396923076923,287.1329456025904L1275.923076923077,266.7194428227165L1277.5015384615385,325.1152124730023L1278.0276923076922,322.8616960482164L1279.0800000000002,280.0810352780602L1280.1323076923077,321.2328904867172L1280.6584615384616,182.34512312845752L1281.7107692307693,312.0558879050342L1282.236923076923,377.91019320487976L1283.2892307692307,314.78741055185145L1283.8153846153846,297.64426914128387L1284.3415384615384,370.31570613384247L1284.8676923076923,265.36269372159785L1285.9199999999998,359.5435402068225L1286.9723076923078,337.16066203334117L1287.4984615384615,217.80197073112834L1289.603076923077,338.9719138904051L1290.1292307692306,283.0849728259173L1291.1815384615386,277.8477963534268L1292.76,308.4543273665688L1293.8123076923077,281.9066247614947L1295.3907692307694,282.67676012082535L1301.7046153846154,382.9932401938872L1303.8092307692307,264.4994662024758L1305.3876923076923,268.66618524898183L1308.0184615384615,363.7370910969648L1309.0707692307692,322.3680208487944L1310.6492307692308,338.9205544645136L1313.8061538461538,278.6744117194956L1314.3323076923077,247.9530260779641L1315.3846153846155,259.6171459826556L1316.963076923077,344.96186695315623L1318.5415384615385,322.2731364857067L1319.0676923076924,251.3778753714128L1319.5938461538462,356.646008328958L1324.3292307692307,325.14603836969894L1324.8553846153845,334.41009082577443L1325.3815384615384,267.03784053975886L1325.9076923076923,311.96545844728297L1326.96,331.61266630346125L1328.0123076923076,333.9255814660679L1329.5907692307692,345.7804430072958L1332.2215384615383,292.9113674705679L1333.2738461538463,311.25436338511383L1333.8,305.7484588297931L1334.3261538461538,257.9003688422116L1334.8523076923077,278.7033942070874L1339.0615384615385,347.10989941250193L1343.7969230769231,342.1583489396355L1346.4276923076923,287.7557106451555L1350.636923076923,288.41810898347336L1351.163076923077,345.37366406484085L1352.7415384615383,304.603240923448L1354.8461538461538,343.9102532646873L1356.4246153846154,348.97537822073156L1358.5292307692307,307.39974374120885L1360.1076923076923,353.95447741855276L1361.686153846154,235.80465284260836L1362.2123076923076,320.2108737555417L1362.7384615384615,276.7356061935425L1363.7907692307692,231.21973595835945L1368,282.4356831745668L1369.0523076923077,274.07546444372696" style="fill: none;" fill="none"></path></g></g></g></g></g></g><g transform="translate(65, 378)" clip-path="url(#clip_1)"><clipPath id="clip_1"><rect width="1368" height="22"></rect></clipPath><g><g><line x1="0" y1="0" x2="0" y2="5" style="visibility: inherit;" fill="rgb(0, 0, 0)" stroke="rgb(204, 204, 204)" stroke-width="1px"></line><line x1="105.23076923076924" y1="0" x2="105.23076923076924" y2="5" style="visibility: inherit;" fill="rgb(0, 0, 0)" stroke="rgb(204, 204, 204)" stroke-width="1px"></line><line x1="210.46153846153848" y1="0" x2="210.46153846153848" y2="5" style="visibility: inherit;" fill="rgb(0, 0, 0)" stroke="rgb(204, 204, 204)" stroke-width="1px"></line><line x1="315.69230769230774" y1="0" x2="315.69230769230774" y2="5" style="visibility: inherit;" fill="rgb(0, 0, 0)" stroke="rgb(204, 204, 204)" stroke-width="1px"></line><line x1="420.92307692307696" y1="0" x2="420.92307692307696" y2="5" style="visibility: inherit;" fill="rgb(0, 0, 0)" stroke="rgb(204, 204, 204)" stroke-width="1px"></line><line x1="526.1538461538462" y1="0" x2="526.1538461538462" y2="5" style="visibility: inherit;" fill="rgb(0, 0, 0)" stroke="rgb(204, 204, 204)" stroke-width="1px"></line><line x1="631.3846153846155" y1="0" x2="631.3846153846155" y2="5" style="visibility: inherit;" fill="rgb(0, 0, 0)" stroke="rgb(204, 204, 204)" stroke-width="1px"></line><line x1="736.6153846153845" y1="0" x2="736.6153846153845" y2="5" style="visibility: inherit;" fill="rgb(0, 0, 0)" stroke="rgb(204, 204, 204)" stroke-width="1px"></line><line x1="841.8461538461539" y1="0" x2="841.8461538461539" y2="5" style="visibility: inherit;" fill="rgb(0, 0, 0)" stroke="rgb(204, 204, 204)" stroke-width="1px"></line><line x1="947.0769230769231" y1="0" x2="947.0769230769231" y2="5" style="visibility: inherit;" fill="rgb(0, 0, 0)" stroke="rgb(204, 204, 204)" stroke-width="1px"></line><line x1="1052.3076923076924" y1="0" x2="1052.3076923076924" y2="5" style="visibility: inherit;" fill="rgb(0, 0, 0)" stroke="rgb(204, 204, 204)" stroke-width="1px"></line><line x1="1157.5384615384614" y1="0" x2="1157.5384615384614" y2="5" style="visibility: inherit;" fill="rgb(0, 0, 0)" stroke="rgb(204, 204, 204)" stroke-width="1px"></line><line x1="1262.769230769231" y1="0" x2="1262.769230769231" y2="5" style="visibility: inherit;" fill="rgb(0, 0, 0)" stroke="rgb(204, 204, 204)" stroke-width="1px"></line><line x1="1368" y1="0" x2="1368" y2="5" style="visibility: inherit;" fill="rgb(0, 0, 0)" stroke="rgb(204, 204, 204)" stroke-width="1px"></line></g><g transform="translate(0, 8)"><text x="0" y="0" dx="0em" dy="0.95em" style="text-anchor: middle; visibility: hidden; font-family: &quot;Helvetica Neue&quot;, sans-serif; font-size: 12px; font-weight: 200;" fill="rgb(50, 49, 63)" stroke="none" stroke-width="1px">-20k</text><text x="105.23076923076924" y="0" dx="0em" dy="0.95em" style="text-anchor: middle; visibility: inherit; font-family: &quot;Helvetica Neue&quot;, sans-serif; font-size: 12px; font-weight: 200;" fill="rgb(50, 49, 63)" stroke="none" stroke-width="1px">0</text><text x="210.46153846153848" y="0" dx="0em" dy="0.95em" style="text-anchor: middle; visibility: inherit; font-family: &quot;Helvetica Neue&quot;, sans-serif; font-size: 12px; font-weight: 200;" fill="rgb(50, 49, 63)" stroke="none" stroke-width="1px">20k</text><text x="315.69230769230774" y="0" dx="0em" dy="0.95em" style="text-anchor: middle; visibility: inherit; font-family: &quot;Helvetica Neue&quot;, sans-serif; font-size: 12px; font-weight: 200;" fill="rgb(50, 49, 63)" stroke="none" stroke-width="1px">40k</text><text x="420.92307692307696" y="0" dx="0em" dy="0.95em" style="text-anchor: middle; visibility: inherit; font-family: &quot;Helvetica Neue&quot;, sans-serif; font-size: 12px; font-weight: 200;" fill="rgb(50, 49, 63)" stroke="none" stroke-width="1px">60k</text><text x="526.1538461538462" y="0" dx="0em" dy="0.95em" style="text-anchor: middle; visibility: inherit; font-family: &quot;Helvetica Neue&quot;, sans-serif; font-size: 12px; font-weight: 200;" fill="rgb(50, 49, 63)" stroke="none" stroke-width="1px">80k</text><text x="631.3846153846155" y="0" dx="0em" dy="0.95em" style="text-anchor: middle; visibility: inherit; font-family: &quot;Helvetica Neue&quot;, sans-serif; font-size: 12px; font-weight: 200;" fill="rgb(50, 49, 63)" stroke="none" stroke-width="1px">100k</text><text x="736.6153846153845" y="0" dx="0em" dy="0.95em" style="text-anchor: middle; visibility: inherit; font-family: &quot;Helvetica Neue&quot;, sans-serif; font-size: 12px; font-weight: 200;" fill="rgb(50, 49, 63)" stroke="none" stroke-width="1px">120k</text><text x="841.8461538461539" y="0" dx="0em" dy="0.95em" style="text-anchor: middle; visibility: inherit; font-family: &quot;Helvetica Neue&quot;, sans-serif; font-size: 12px; font-weight: 200;" fill="rgb(50, 49, 63)" stroke="none" stroke-width="1px">140k</text><text x="947.0769230769231" y="0" dx="0em" dy="0.95em" style="text-anchor: middle; visibility: inherit; font-family: &quot;Helvetica Neue&quot;, sans-serif; font-size: 12px; font-weight: 200;" fill="rgb(50, 49, 63)" stroke="none" stroke-width="1px">160k</text><text x="1052.3076923076924" y="0" dx="0em" dy="0.95em" style="text-anchor: middle; visibility: inherit; font-family: &quot;Helvetica Neue&quot;, sans-serif; font-size: 12px; font-weight: 200;" fill="rgb(50, 49, 63)" stroke="none" stroke-width="1px">180k</text><text x="1157.5384615384614" y="0" dx="0em" dy="0.95em" style="text-anchor: middle; visibility: inherit; font-family: &quot;Helvetica Neue&quot;, sans-serif; font-size: 12px; font-weight: 200;" fill="rgb(50, 49, 63)" stroke="none" stroke-width="1px">200k</text><text x="1262.769230769231" y="0" dx="0em" dy="0.95em" style="text-anchor: middle; visibility: inherit; font-family: &quot;Helvetica Neue&quot;, sans-serif; font-size: 12px; font-weight: 200;" fill="rgb(50, 49, 63)" stroke="none" stroke-width="1px">220k</text><text x="1368" y="0" dx="0em" dy="0.95em" style="text-anchor: middle; visibility: hidden; font-family: &quot;Helvetica Neue&quot;, sans-serif; font-size: 12px; font-weight: 200;" fill="rgb(50, 49, 63)" stroke="none" stroke-width="1px">240k</text></g><line x1="0" y1="0" x2="1368" y2="0" fill="rgb(0, 0, 0)" stroke="rgb(204, 204, 204)" stroke-width="1px"></line></g></g></g></g></svg>