<svg viewBox="0 0 330 200" xmlns="http://www.w3.org/2000/svg"><g><g><g><g><g><line x1="76" y1="178" x2="71" y2="178" style="visibility: inherit;" fill="rgb(0, 0, 0)" stroke="rgb(204, 204, 204)" stroke-width="1px"></line><line x1="76" y1="155.75" x2="71" y2="155.75" style="visibility: inherit;" fill="rgb(0, 0, 0)" stroke="rgb(204, 204, 204)" stroke-width="1px"></line><line x1="76" y1="133.5" x2="71" y2="133.5" style="visibility: inherit;" fill="rgb(0, 0, 0)" stroke="rgb(204, 204, 204)" stroke-width="1px"></line><line x1="76" y1="111.25" x2="71" y2="111.25" style="visibility: inherit;" fill="rgb(0, 0, 0)" stroke="rgb(204, 204, 204)" stroke-width="1px"></line><line x1="76" y1="89" x2="71" y2="89" style="visibility: inherit;" fill="rgb(0, 0, 0)" stroke="rgb(204, 204, 204)" stroke-width="1px"></line><line x1="76" y1="66.75" x2="71" y2="66.75" style="visibility: inherit;" fill="rgb(0, 0, 0)" stroke="rgb(204, 204, 204)" stroke-width="1px"></line><line x1="76" y1="44.5" x2="71" y2="44.5" style="visibility: inherit;" fill="rgb(0, 0, 0)" stroke="rgb(204, 204, 204)" stroke-width="1px"></line><line x1="76" y1="22.25" x2="71" y2="22.25" style="visibility: inherit;" fill="rgb(0, 0, 0)" stroke="rgb(204, 204, 204)" stroke-width="1px"></line><line x1="76" y1="0" x2="71" y2="0" style="visibility: inherit;" fill="rgb(0, 0, 0)" stroke="rgb(204, 204, 204)" stroke-width="1px"></line></g><g transform="translate(66, 0)"><text x="0" y="178" dx="0em" dy="0.3em" style="text-anchor: end; visibility: hidden; font-family: &quot;Helvetica Neue&quot;, sans-serif; font-size: 12px; font-weight: 200;" fill="rgb(50, 49, 63)" stroke="none" stroke-width="1px">-5e-4</text><text x="0" y="155.75" dx="0em" dy="0.3em" style="text-anchor: end; visibility: inherit; font-family: &quot;Helvetica Neue&quot;, sans-serif; font-size: 12px; font-weight: 200;" fill="rgb(50, 49, 63)" stroke="none" stroke-width="1px">0</text><text x="0" y="133.5" dx="0em" dy="0.3em" style="text-anchor: end; visibility: inherit; font-family: &quot;Helvetica Neue&quot;, sans-serif; font-size: 12px; font-weight: 200;" fill="rgb(50, 49, 63)" stroke="none" stroke-width="1px">5e-4</text><text x="0" y="111.25" dx="0em" dy="0.3em" style="text-anchor: end; visibility: inherit; font-family: &quot;Helvetica Neue&quot;, sans-serif; font-size: 12px; font-weight: 200;" fill="rgb(50, 49, 63)" stroke="none" stroke-width="1px">1e-3</text><text x="0" y="89" dx="0em" dy="0.3em" style="text-anchor: end; visibility: inherit; font-family: &quot;Helvetica Neue&quot;, sans-serif; font-size: 12px; font-weight: 200;" fill="rgb(50, 49, 63)" stroke="none" stroke-width="1px">1.5e-3</text><text x="0" y="66.75" dx="0em" dy="0.3em" style="text-anchor: end; visibility: inherit; font-family: &quot;Helvetica Neue&quot;, sans-serif; font-size: 12px; font-weight: 200;" fill="rgb(50, 49, 63)" stroke="none" stroke-width="1px">2e-3</text><text x="0" y="44.5" dx="0em" dy="0.3em" style="text-anchor: end; visibility: inherit; font-family: &quot;Helvetica Neue&quot;, sans-serif; font-size: 12px; font-weight: 200;" fill="rgb(50, 49, 63)" stroke="none" stroke-width="1px">2.5e-3</text><text x="0" y="22.25" dx="0em" dy="0.3em" style="text-anchor: end; visibility: inherit; font-family: &quot;Helvetica Neue&quot;, sans-serif; font-size: 12px; font-weight: 200;" fill="rgb(50, 49, 63)" stroke="none" stroke-width="1px">3e-3</text><text x="0" y="0" dx="0em" dy="0.3em" style="text-anchor: end; visibility: hidden; font-family: &quot;Helvetica Neue&quot;, sans-serif; font-size: 12px; font-weight: 200;" fill="rgb(50, 49, 63)" stroke="none" stroke-width="1px">3.5e-3</text></g><line x1="76" y1="0" x2="76" y2="178" fill="rgb(0, 0, 0)" stroke="rgb(204, 204, 204)" stroke-width="1px"></line></g></g><g transform="translate(76, 0)" clip-path="url(#clip_0)"><clipPath id="clip_0"><rect width="254" height="178"></rect></clipPath><g><g><g><line x1="0" y1="0" x2="0" y2="178" fill="rgb(0, 0, 0)" stroke="rgb(60, 60, 60)" stroke-width="1px" opacity="0.25"></line><line x1="31.75" y1="0" x2="31.75" y2="178" fill="rgb(0, 0, 0)" stroke="rgb(60, 60, 60)" stroke-width="1px" opacity="0.25"></line><line x1="63.5" y1="0" x2="63.5" y2="178" fill="rgb(0, 0, 0)" stroke="rgb(60, 60, 60)" stroke-width="1px" opacity="0.25"></line><line x1="95.25" y1="0" x2="95.25" y2="178" fill="rgb(0, 0, 0)" stroke="rgb(60, 60, 60)" stroke-width="1px" opacity="0.25"></line><line x1="127" y1="0" x2="127" y2="178" fill="rgb(0, 0, 0)" stroke="rgb(60, 60, 60)" stroke-width="1px" opacity="0.25"></line><line x1="158.75" y1="0" x2="158.75" y2="178" fill="rgb(0, 0, 0)" stroke="rgb(60, 60, 60)" stroke-width="1px" opacity="0.25"></line><line x1="190.5" y1="0" x2="190.5" y2="178" fill="rgb(0, 0, 0)" stroke="rgb(60, 60, 60)" stroke-width="1px" opacity="0.25"></line><line x1="222.25" y1="0" x2="222.25" y2="178" fill="rgb(0, 0, 0)" stroke="rgb(60, 60, 60)" stroke-width="1px" opacity="0.25"></line><line x1="254" y1="0" x2="254" y2="178" fill="rgb(0, 0, 0)" stroke="rgb(60, 60, 60)" stroke-width="1px" opacity="0.25"></line></g><g><line x1="0" y1="178" x2="254" y2="178" fill="rgb(0, 0, 0)" stroke="rgb(60, 60, 60)" stroke-width="1px" opacity="0.25"></line><line x1="0" y1="155.75" x2="254" y2="155.75" fill="rgb(0, 0, 0)" stroke="rgb(60, 60, 60)" stroke-width="1px" opacity="0.25"></line><line x1="0" y1="133.5" x2="254" y2="133.5" fill="rgb(0, 0, 0)" stroke="rgb(60, 60, 60)" stroke-width="1px" opacity="0.25"></line><line x1="0" y1="111.25" x2="254" y2="111.25" fill="rgb(0, 0, 0)" stroke="rgb(60, 60, 60)" stroke-width="1px" opacity="0.25"></line><line x1="0" y1="89" x2="254" y2="89" fill="rgb(0, 0, 0)" stroke="rgb(60, 60, 60)" stroke-width="1px" opacity="0.25"></line><line x1="0" y1="66.75" x2="254" y2="66.75" fill="rgb(0, 0, 0)" stroke="rgb(60, 60, 60)" stroke-width="1px" opacity="0.25"></line><line x1="0" y1="44.5" x2="254" y2="44.5" fill="rgb(0, 0, 0)" stroke="rgb(60, 60, 60)" stroke-width="1px" opacity="0.25"></line><line x1="0" y1="22.25" x2="254" y2="22.25" fill="rgb(0, 0, 0)" stroke="rgb(60, 60, 60)" stroke-width="1px" opacity="0.25"></line><line x1="0" y1="0" x2="254" y2="0" fill="rgb(0, 0, 0)" stroke="rgb(60, 60, 60)" stroke-width="1px" opacity="0.25"></line></g></g></g><g><g><line x1="0" y1="155.75" x2="254" y2="155.75" fill="rgb(0, 0, 0)" stroke="rgb(153, 153, 153)" stroke-width="1.5px"></line></g></g><g><g><line x1="31.75" y1="0" x2="31.75" y2="178" fill="rgb(0, 0, 0)" stroke="rgb(153, 153, 153)" stroke-width="1.5px"></line></g></g><g><g><g><g><g><path stroke="rgb(204, 51, 17)" stroke-width="2px" d="M41.719500000000004,-16.87723103985647L41.783,0.3909990483996637L42.037,-3.5093118399824164L42.3545,3.543589634516792L42.418,14.298837747329344L42.6085,4.327973545982104L42.9895,14.312010827402702L43.053000000000004,18.726236374827238L43.18,27.213071106250254L43.3705,37.18938822761817L43.4975,20.65052642912923L43.561,19.180649131484046L43.687999999999995,-41.24086150381956L44.323,-28.49515212286937L44.830999999999996,11.730624168049957L44.8945,7.941537778560274L44.958,7.988315998604293L45.211999999999996,11.20712042769216L45.847,31.178589717569537L45.9105,15.293454761667562L46.0375,12.082213481732339L46.2915,14.272716734837388L46.482,20.62203672284238L46.5455,40.55476768913479L46.609,40.14406634816592L46.7995,35.40424895405209L47.5615,33.781427093562144L47.9425,34.8622509018133L48.133,37.68902589421273L48.26,41.99207926193358L48.3235,46.59094224065231L48.4505,47.50028924757058L48.7045,43.513207943670835L48.9585,40.243178321530166L49.0855,52.64719613074345L49.403,31.13316691140284L50.292,28.110310566618722L50.609500000000004,36.201197253358174L50.673,43.67018167589117L50.927,49.66560336896188L50.990500000000004,51.621700465744155L51.2445,54.59356612976815L51.308,54.98920744294779L51.435,23.338496941386836L51.625499999999995,33.28540907274731L51.943,30.468598888641907L52.006499999999996,21.09179673944493L52.07,41.665378531133086L52.387499999999996,56.52391382977514L52.451,43.48186742171734L52.5145,47.537150436074086L52.705,37.25763750765057L53.2765,51.67034492216753L53.4035,47.733980163244894L53.7845,52.08240625593574L54.1655,59.48004442745305L54.229,54.20322424944554L54.61,56.632570557825645L54.8005,27.158545051087685L55.0545,17.57135545406922L55.3085,36.21691040549686L55.4355,24.06084723609098L55.6895,25.05461260132438L55.753,33.4004871972796L55.8165,52.430123638005355L55.9435,54.536302329758584L56.261,45.22679120103109L56.5785,50.50629968933515L56.642,44.145544568403096L56.7055,50.83512106259376L57.658,-7.385873326094696L58.1025,17.6915269130875L58.4835,36.71115623917635L58.547000000000004,32.763903496825435L58.674,51.61186702216489L58.801,32.47649518498673L59.055,37.10645450412568L59.6265,44.50948966672621L59.753499999999995,52.068551729652896L59.817,67.13011051485454L60.0075,46.61126143385181L60.3885,39.751489048595516L60.896499999999996,-9.115166729453023L60.96,33.27158755633218L61.1505,48.51223365521716L61.214,61.13635924268537L61.7855,58.50177925711138L61.849,66.06219451433576L62.5475,72.69296220164692L62.738,72.18561666646568L62.8015,75.08635272626707L62.9285,70.40747905660943L63.0555,72.0144703532489L63.94449999999999,68.54365257182609L64.262,76.16389974193358L64.389,83.67862181208481L64.5795,73.76348925175935L64.70649999999999,78.69505235596847L65.024,63.25737607580038L65.08749999999999,42.784613796184146L65.46849999999999,48.6934740926979L65.5955,57.94952756139833L65.659,61.46098677015722L65.786,76.46900888891619L65.84949999999999,78.11016718439222L66.04,74.84906773689066L66.167,74.45955976853625L66.4845,71.54168779706869L66.548,67.11721019219408L67.1195,66.62038494957118L67.2465,72.67818150669413L67.5005,70.36372673772321L67.56400000000001,62.685953089669624L67.6275,64.21140865516678L67.8815,57.06608022172462L68.1355,65.84709407732164L68.199,62.82266483177412L68.3895,62.81698180381754L68.5165,62.69304911356747L68.58,73.85668799243318L68.6435,68.09866802110939L68.70700000000001,69.90739963294368L68.7705,44.680988007210516L68.834,52.142365436805974L68.961,64.65257334362191L69.0245,72.12449033014907L69.342,73.08145853830386L69.4055,74.6962262690992L69.6595,68.66240997729784L69.85000000000001,55.602353981468596L69.977,69.16629814063522L70.358,54.916147338330816L70.485,-1.3076959538578592L70.8025,28.96967263143543L71.0565,2.8195998765306456L71.12,32.57775124984394L71.247,51.72521994867867L72.009,69.44589539793995L72.4535,82.56684664780121L72.517,62.64645568851664L72.64399999999999,69.35006034939906L72.7075,72.30414663128956L72.771,68.38259199372176L72.8345,77.27210462979224L72.9615,82.83121497547923L73.152,85.13072779992999L73.40599999999999,82.10591110680866L73.4695,79.85595386661959L73.7235,78.38109882772189L73.914,81.84190965131059L74.16799999999999,89.32155165298363L74.3585,74.29468148558485L74.422,72.74305554786561L74.4855,65.70174104867422L74.54899999999999,65.60961333974028L74.6125,74.67918973398254L74.7395,76.2314381078678L74.803,74.1394413637473L74.8665,75.39235908570758L75.057,45.54774684962854L75.1205,34.93294697631731L75.184,49.86508517305157L75.31099999999999,67.56392381133199L75.438,66.5950279301647L75.50150000000001,58.56271944068334L75.946,76.66194341106691L76.1365,77.52361412155464L76.3905,86.33386961479685L76.581,86.77320141820431L76.708,84.24062093185377L76.835,86.85280736047473L77.089,82.9527443852779L77.343,86.84761540259461L77.5335,84.59941788451695L77.597,86.47627557757839L77.6605,75.74834745194522L77.724,71.58035565169754L78.105,82.22391006463529L78.486,92.40412398868061L78.613,82.9768079493538L78.6765,87.65388189865475L78.93050000000001,88.39911923606441L79.121,89.97788194316921L79.1845,86.95491569264708L79.375,88.62025842923063L79.43849999999999,82.3490536237993L79.502,79.60015724954683L79.629,85.52900022518742L79.756,69.503077640397L80.137,69.42197501261543L80.3275,78.03282863985456L80.391,75.26748230548772L80.58149999999999,61.18183203819139L80.645,75.13993805480148L80.7085,75.30682554517475L80.8355,79.90423584591173L80.899,84.24725879515454L81.28,79.8926994489744L81.534,86.89420040098516L81.5975,84.48309453702085L81.72449999999999,82.45548557062364L81.8515,85.66147887189341L81.9785,71.66838844070821L82.042,79.03061496250325L82.10549999999999,90.03203658592697L82.169,87.2494724760994L82.2325,91.73226178802072L82.423,82.08895916151712L82.55,70.38644876276084L82.677,84.02675756983982L82.86749999999999,68.74696374675945L82.9945,69.1064038164396L83.058,75.14261478610958L83.1215,85.3725246074982L83.5025,89.44518646236881L83.566,92.93038161124512L83.693,86.53422208406462L83.8835,81.78599659407398L84.1375,73.75996958608484L84.328,82.6097619525421L84.5185,94.24169224004915L84.58200000000001,87.38152063340527L84.709,92.64172713224191L84.836,-47.15321187219564L84.96300000000001,6.554936269609385L85.2805,46.24201911129103L85.471,59.8509679574522L85.598,74.51003185648487L86.5505,81.87569244050245L86.8045,80.92269912883347L86.9315,85.78082930721168L86.995,87.34857699362085L87.24900000000001,96.88749715328304L87.37599999999999,88.27384508670917L87.4395,85.64962476597906L87.63,77.08816638019191L87.75699999999999,85.40099294570243L87.884,98.2136315757947L88.0745,101.42374607372534L88.2015,94.39887467200758L88.265,83.0264468766016L88.392,91.70763144820255L88.646,94.2481060184051L88.89999999999999,97.441061254636L89.3445,98.11523039045666L89.408,81.7672638224228L89.4715,87.46201857953005L89.535,96.63455665706088L89.66199999999999,98.7756131785273L89.8525,98.9987539330667L89.916,91.45923825753007L89.9795,89.5377511812137L90.17,98.27198255556146L90.2335,92.13797367511583L90.297,85.8438184096941L90.3605,89.74909082074633L90.8685,92.7560894967298L90.932,94.43351609557452L91.1225,90.76019830696036L91.567,79.32322138103693L91.75750000000001,86.86157488910315L92.2655,86.14847094226903L92.329,97.84259930468887L92.456,96.98722540455931L92.51950000000001,93.77028480782583L92.583,96.04582830623968L92.7735,73.33774548869542L92.837,88.50241850656248L92.964,93.8370655761926L93.091,94.25605319491885L93.4085,97.90566570454456L93.472,103.17859282188039L93.726,92.85659755840105L93.7895,80.52393886714697L93.853,93.22475195594592L93.9165,90.3848440707428L94.107,91.5428171501355L94.1705,91.95013606150727L94.234,89.8413494902091L94.42450000000001,92.62489347582977L94.488,97.63805731323164L94.996,95.283384002741L95.25,100.15454383734364L95.377,105.87260286256522L95.504,103.26277267724929L95.5675,108.28759750971591L95.758,108.96214965283511L95.9485,100.73891901347571L96.012,96.23206369559337L96.07549999999999,102.80554485048573L96.139,105.80156392626894L96.3295,92.23186247939876L96.83749999999999,94.96376934454597L96.9645,102.48328770385761L97.0915,103.76003337688195L97.21849999999999,98.37904331091461L97.282,101.76623331384907L97.4725,99.48714105245949L97.59949999999999,98.3015641236006L97.7265,95.68994677968018L98.044,82.77845059652444L98.4885,87.91328717865387L98.552,99.58944770752096L98.74249999999999,105.4972590178025L98.8695,103.63711803691967L99.2505,88.92433878801694L99.31400000000001,91.15765059566456L99.441,90.50495913111244L99.568,101.18746649175108L99.822,93.2615177820204L100.07600000000001,99.90818282828202L100.203,100.23509390907272L100.5205,96.07559297964295L100.584,92.39260680405987L100.6475,89.5463804738071L101.092,99.2047316177992L101.1555,102.14416125904368L101.5365,97.7540490198335L101.7905,100.21189798038905L101.854,103.4354074714509L101.9175,102.7792784720169L102.489,98.0334617167417L102.616,102.14268735913657L102.8065,103.36190035581275L103.1875,108.31643053078463L103.25099999999999,107.5404939684797L103.505,89.22302068559995L103.6955,88.6442442140053L103.759,72.68990237905503L103.8225,81.93111841596766L104.01299999999999,92.43363130687985L104.7115,86.25160973727293L104.902,91.92394268935674L105.0925,101.54677923603433L105.15599999999999,95.75572792453217L105.2195,98.26662997834472L105.41,93.24905475784891L105.4735,91.86537570355567L105.53699999999999,96.03095555438537L106.4895,96.35858124742025L106.67999999999999,66.6198564294673L106.807,88.69868263557237L106.8705,102.6403784313332L106.9975,100.69337331405467L107.06099999999999,105.57331956817545L107.25150000000001,106.36288285397046L107.442,102.53122806559534L107.5055,106.41577848165055L107.63250000000001,108.54993431247811L107.7595,93.0526997320878L107.8865,97.19378043271021L108.01350000000001,101.79398428664008L108.204,104.18454345902293L108.331,108.38964826751419L108.458,110.60030944905009L108.585,111.96374453080118L108.712,114.01138983184796L108.839,108.98690958516123L109.474,109.18244997901513L109.728,112.2250265243965L109.982,116.10832924950154L110.0455,104.07945855816025L110.109,101.61721337503087L110.236,103.37146325843568L110.4265,103.71514299455754L110.617,100.57729594357146L110.744,94.94912422249367L110.9345,105.34159063419119L111.3155,108.70739127283046L111.4425,104.55329354176521L111.56949999999999,112.01099980654702L111.633,111.07834750265559L111.8235,111.61642769150842L111.887,115.94068307188024L111.95049999999999,104.8710596474297L112.141,107.68877287170513L112.649,108.48897544644012L112.9665,110.7661481136932L113.09349999999999,106.08910262401278L113.47449999999999,107.23255134189353L113.7285,112.69665459144026L113.792,111.86241387485212L113.85549999999999,109.59427661431579L113.919,111.66644982834308L114.3,111.86576648258954L114.4905,101.734797188923L114.935,107.37394640822201L115.062,104.38478745060557L115.2525,108.54766812896293L115.316,101.30023158699608L115.5065,105.37248330349676L115.57000000000001,111.53796700595291L115.8875,111.23525420495702L115.95100000000001,113.87765739912217L116.0145,103.17338323346182L116.205,105.41377377790305L116.3955,100.68984450661148L116.459,109.62959381470758L116.5225,111.50495252934279L116.586,105.49206163597663L116.6495,96.76507028501516L117.0305,109.84746741651765L117.4115,112.18353129276572L117.7925,105.48762582990638L118.0465,102.63866455854841L118.1735,108.09281661437075L118.491,115.16037963227106L118.745,103.2975907041992L119.1895,89.6907028366992L119.3165,101.23662082574482L119.50699999999999,102.71860868746319L119.634,107.25166528550106L119.6975,109.40679771510402L119.88799999999999,73.97689000439726L119.9515,89.81351918261625L120.0785,101.04850462349206L120.142,107.38585761081472L120.3325,113.83640530649971L121.41199999999999,111.34492300268502L121.4755,113.00418033825748L121.539,114.05497836164695L121.6025,106.65816072056926L121.8565,104.34450077093534L122.047,110.72842108271283L122.301,112.80932248653403L122.3645,113.69538397969413L122.428,117.41941509073814L122.682,106.72728104491289L122.7455,107.81306062083247L122.809,106.08167250400516L122.93599999999999,112.03970820796926L123.063,111.95430164336376L123.19,116.13696395970412L123.317,109.81374245113598L123.825,114.13151469970995L124.1425,95.85875211928936L124.206,99.67019757568629L124.7775,90.14442659096295L124.841,103.52158312818855L125.5395,97.940499200539L125.857,101.64486140779626L126.0475,106.85228378804457L126.111,115.27441500554269L126.3015,109.49693602728716L126.4285,106.43555195779574L126.492,108.29756274238808L127,106.97538807751586L127.06349999999999,110.87903239594385L127.12699999999998,110.20539631424984L127.19050000000001,118.55347914347732L127.38099999999999,122.07426030415853L127.508,116.35542778639382L127.5715,102.67369953766249L127.63499999999999,88.66129413828124L128.143,98.99447700888211L128.4605,107.38305016035763L128.524,108.43260038897351L128.71450000000002,109.18816235738967L129.159,114.18931294511913L129.286,115.24697345029509L129.921,117.38108819117738L130.23850000000002,117.54097219342347L130.302,121.2419335840455L130.429,118.02173425191262L130.4925,117.46585834498997L130.8735,82.32144385897098L130.93699999999998,92.27591897851514L131.318,103.9679740959408L131.3815,113.29941923843339L131.953,115.09619291446143L132.207,113.36082758331469L132.334,113.90320604236301L132.588,115.94946070287826L133.1595,118.22411842071907L133.28650000000002,113.94255775261013L133.477,117.50323789725803L133.604,112.90967168903413L133.6675,109.29449825191385L133.98499999999999,111.90264906399406L134.1755,102.27394711230222L134.493,111.27562209472596L134.62,117.22460394588808L134.874,106.74544330250589L135.001,110.00953072904866L135.06449999999998,112.67121701467379L135.12800000000001,102.7230152878737L135.255,108.1027177897178L135.382,116.98978673669816L135.6995,105.12438156662508L135.89000000000001,111.58514161252602L136.017,114.261949320323L136.2075,111.42608990091784L136.398,100.62163259558353L136.65200000000002,110.57670888297616L136.8425,111.22476951028621L137.0965,114.79577072241584L137.16,109.79527445135969L137.2235,105.58592268618767L137.668,101.25580268304245L137.795,97.25551930562075L137.922,102.7020116580377L138.11249999999998,93.8600666410312L138.17600000000002,106.06629376182467L138.557,115.35699681606596L138.6205,120.44192217399079L138.87449999999998,119.28258584197624L139.1285,121.19107963399969L139.319,126.06360510638362L139.3825,127.35580324182887L139.446,124.70741525024164L139.5095,119.4747175047844L139.63649999999998,117.2573375562049L139.827,122.60177495255125L140.2715,127.47244027034746L140.335,119.46773307916555L140.6525,118.15977369951179L140.7795,112.17239352085126L140.843,103.25246359046061L140.9065,113.55416136846772L141.478,111.06865563945968L141.732,112.20619806323647L141.7955,112.49023878361552L141.859,114.62500970990297L141.92249999999999,104.27224970083438L142.0495,108.11011816795394L142.367,113.03300573016392L142.4305,113.34357251845785L142.5575,115.52865230430581L142.621,121.38716752630869L142.68449999999999,114.8367849058801L142.875,119.01130931682998L143.00199999999998,112.17478843469985L143.06550000000001,118.18718023096513L143.129,124.23138133712852L143.7005,121.43933268467035L143.891,125.91919350392041L144.4625,126.70851417668638L144.8435,127.011628320667L144.907,128.17061856626145L145.28799999999998,121.99539040934994L145.35150000000002,121.5351208307189L145.415,123.97324041482238L145.542,126.73294528789924L145.923,125.41233377837827L146.304,122.33968144205922L146.3675,122.79238626799116L146.87550000000002,108.85796343723612L146.939,115.50232770714344L147.1295,118.13073272566157L147.32,120.55485289691484L147.57399999999998,124.47220894522128L147.701,128.83444196757915L147.955,127.92840865447593L148.33599999999998,130.54164477646782L148.59,124.25507978521918L148.6535,121.41427023206657L148.844,119.22023414854411L148.971,121.57033269863473L149.16150000000002,122.84215170738412L149.4155,127.74413674089388L149.5425,126.10515654681593L149.6695,112.18533343079518L149.733,118.69654341053044L149.7965,120.00496144143014L150.241,122.84598075552147L150.368,122.70045060776314L150.4315,122.05376999445343L150.8125,117.50510738431713L150.876,121.42754901153177L150.93949999999998,123.89081533615936L151.0665,122.47965253818496L151.1935,118.62501584388517L151.9555,125.88452817010256L152.52700000000002,114.05180801604612L152.781,117.17578634339228L153.0985,118.06717691420857L153.162,112.12281994226929L153.4795,115.32994580064107L153.543,117.86207107797347L153.6065,119.92006351287341L153.8605,116.82063476043298L153.924,117.93736013751763L154.305,126.4044670623558L154.559,121.98785743710502L154.6225,123.01116410216454L154.686,126.99911613199197L154.81300000000002,124.9920616591086L154.8765,124.8773993090941L155.194,126.1530032418797L155.3845,126.51552926293415L155.51149999999998,127.78560791934373L155.702,130.8265967268115L155.8925,131.13794744107443L156.083,125.59024320337663L156.21,125.8646322982184L156.591,123.16185559778195L156.6545,110.25978987689335L156.7815,118.96602280713927L156.9085,121.76934717360697L157.48,118.62290583093352L157.5435,125.11095075193055L157.607,127.41578699820792L157.6705,128.46169011472796L158.55949999999999,69.85353064718326L158.8135,93.21241169811029L159.0675,104.26944794263757L159.131,111.68321512457024L159.3215,115.90538573779564L159.385,121.20514310553162L159.5755,124.76284114829147L159.70250000000001,123.6963698020142L159.8295,127.86944885760167L160.147,127.95157956224081L160.3375,121.09789393274573L160.46450000000002,128.19529770621375L160.528,125.23372991250434L160.655,128.0831242420203L160.8455,121.21884480914778L161.036,115.54346569099312L161.16299999999998,115.24895385056456L161.3535,114.35985071645884L161.544,121.10751977245782L161.6075,127.87886537244259L161.798,117.20797939117456L161.98850000000002,126.66961656184915L162.4965,129.08779916092783L162.56,126.28471566505748L162.68699999999998,124.5203166619056L163.0045,121.53231663188643L163.322,125.57836929230054L163.3855,123.40641271045078L163.44899999999998,122.2250049504542L163.576,122.36221689967982L163.6395,127.42838878787822L163.7665,119.16849387258895L163.8935,122.85338198500861L164.084,125.18683531972687L164.1475,124.81277154143405L164.4015,123.04390420367645L164.719,116.14440976571487L164.846,108.61028734943388L165.227,118.5316254258595L165.2905,123.9733001772019L165.354,128.60546940792443L165.4175,123.91615215620453L165.481,125.57670254377533L165.6715,129.0740725246307L165.79850000000002,131.18689366236623L165.989,131.2426747886966L166.0525,131.21745482203767L166.243,133.88607870224064L166.37,112.70075868588951L166.49699999999999,116.93541382322321L166.56050000000002,-22.303499325694986L166.624,36.465733737374904L166.87800000000001,74.49942503282837L167.132,84.12928038576638L167.1955,105.50699667109375L167.259,116.76229253916935L167.513,124.091055781541L167.57649999999998,127.44940746936439L167.7035,130.81081949083574L167.767,131.13205045146387L167.894,125.79630937629277L167.9575,122.57530219573653L168.021,118.84319121660741L168.148,119.55032988157168L168.2115,125.41264410973926L168.33849999999998,106.13750045060421L168.529,111.84736912360374L168.656,116.79304061888506L168.7195,114.84235309900403L169.10049999999998,87.85736965815163L169.16400000000002,105.8942964829985L169.2275,111.97539787442513L169.4815,119.00960408084705L169.6085,126.01733788686985L169.7355,122.94348306317178L169.9895,127.64562952178335L170.434,132.02626625537755L170.62449999999998,131.52645941793477L170.7515,131.71894695749987L170.8785,133.27897901959074L170.942,132.54623814040036L171.196,130.53237987992085L171.323,134.49857623963268L171.38649999999998,133.7935549149921L171.45000000000002,134.57022929356495L171.6405,132.74198864573836L171.704,133.11850383516162L171.8945,133.89877579046458L171.958,135.66328460292172L172.14849999999998,132.8040308606097L172.339,132.19208391028832L172.593,128.31917593760082L172.97400000000002,125.59999875999041L173.0375,122.47923447794273L173.228,125.90607518887329L173.2915,129.76497019365354L173.4185,132.50825229443004L173.5455,132.2037768838034L173.609,115.51127217592901L173.73600000000002,124.46295347292485L173.7995,124.59079763588242L173.9265,88.81501301145217L173.99,93.1745632336477L174.0535,106.04472247309997L174.117,113.98789507849523L174.244,123.2899342062906L174.371,129.2603196217692L174.43449999999999,131.6079508765609L174.6885,133.08408311238563L174.75199999999998,131.06890917809338L174.879,130.3427106831649L175.0695,127.37824817525919L175.1965,128.49089289584802L175.387,127.5512590733598L176.149,133.81601433177065L176.403,130.77194838142333L176.5935,124.19557787018083L176.911,129.44231022776773L177.03799999999998,129.1509883894979L177.2285,133.6770131877115L177.6095,128.70065487495367L177.673,132.47078808206726L177.79999999999998,130.02229214960133L177.9905,131.83129832285854L178.181,131.0428777179537L178.2445,130.63254544842124L178.308,130.01251215751324L178.8795,125.2314566316067L178.943,128.73361822886295L179.0065,131.34433890321048L179.07,132.47309933724296L179.197,132.2790472518491L179.32399999999998,131.1700709109284L179.5145,133.98966153773083L179.832,125.73446394521693L179.959,127.92590846439793L180.0225,129.569724374499L180.08599999999998,131.2257030943698L180.14950000000002,126.67062648147218L180.6575,131.4813069654286L181.229,97.43215944895326L181.5465,84.97345973456906L182.0545,103.9620516108275L182.118,118.53634531887735L182.3085,123.53475195354886L182.5625,126.42814726028095L182.75300000000001,130.31888049022928L183.007,132.14038382748151L183.1975,132.4796350330003L183.388,133.47664959203715L183.45149999999998,135.0566590978463L183.51500000000001,125.6600315915799L183.642,125.96143087160249L184.15,123.82658159624283L184.27700000000002,117.84454019265321L184.404,109.45160997206389L184.531,117.59831724584501L184.8485,124.13976180183754L185.166,114.71623747704396L185.674,123.82932150765416L185.73749999999998,126.42748235667739L185.80100000000002,126.96588922136647L186.055,123.95031588124036L186.2455,126.9568855790603L186.436,130.30455917568105L186.944,132.83927234549728L187.071,128.06444718730842L187.32500000000002,129.27312036293682L187.3885,131.78548844117L187.452,133.4108657508918L187.5155,130.36655473743474L187.6425,127.19755298329648L187.7695,128.24027569906121L187.96,127.57736808510843L188.1505,132.17639871802575L188.214,128.635941426965L188.341,132.2355327201522L188.468,128.98313452771748L188.9125,133.09742490180514L189.1665,134.41595443800125L189.2935,136.06821536410246L189.4205,132.79621876989094L189.54749999999999,130.92110765406065L189.61100000000002,133.16917599387733L189.738,129.25338342976357L189.9285,126.84564922882936L190.0555,126.85713024982853L190.246,129.19928992708574L190.37300000000002,129.65913329570398L190.5635,125.94142971105222L190.62699999999998,125.78436171940322L190.69050000000001,123.14007019173417L191.3255,129.12803834098986L191.38899999999998,132.43920668459296L191.516,134.18259133862026L191.5795,130.96943408854867L191.643,133.70436243185924L191.7065,129.91614185208917L191.897,131.7588225652305L191.9605,133.91901390675434L192.0875,133.80655104202393L192.278,128.50177819384925L192.405,130.09422978690293L192.532,122.773000351301L192.659,127.56073336237588L193.2305,131.54198747195966L193.294,133.9103075993585L193.4845,121.57749861542298L193.6115,120.76373178987676L193.73850000000002,127.95432790626347L193.8655,130.28370315074852L193.9925,124.6830257660109L194.056,130.50881133172786L194.2465,119.63631476894096L194.6275,124.07806813687503L194.691,123.44321643934649L194.945,125.0878831378244L195.1355,124.33089256810382L195.326,127.90076181252888L195.453,66.08997304266745L195.5165,94.64334745492484L195.7705,107.94852790481416L196.02450000000002,118.01313822910006L196.215,116.27611621659884L196.2785,122.79695265798651L196.342,129.4556082504586L196.4055,131.92280346935252L196.596,128.3031895731815L196.85,129.9461985366376L196.977,129.91917516650375L197.231,129.10877773977288L197.2945,132.62734339272475L197.4215,129.75866019191886L197.48499999999999,127.78710555961383L197.8025,125.89829794089886L197.993,127.40494338975634L198.0565,127.6625588339383L198.1835,131.8970833870267L198.31050000000002,134.64249553318106L198.4375,134.19067427071352L198.501,129.75012770466085L198.6915,130.0025757697423L198.755,129.13209821257811L198.882,129.01103585095376L199.0725,117.28258682940107L199.136,126.34324405443266L199.263,125.48946627913993L199.644,126.6294044646529L199.8345,127.12220863285108L200.025,130.5428111273401L200.08849999999998,132.43026597255337L200.3425,133.65041283597682L200.7235,133.1208935536564L201.549,128.91134501601357L201.803,124.9832667170769L201.93,123.87711341703644L202.2475,128.76500551943494L202.43800000000002,126.5095985811063L202.565,129.67306887436746L202.819,131.82436730321922L203.13649999999998,129.06869584013032L203.3905,127.23837225540508L203.6445,132.3669597671235L203.835,132.07423786009798L204.4065,133.89864110335418L204.7875,127.73784471243818L205.42249999999999,101.9791774548751L205.48600000000002,114.37125719753128L205.5495,109.91437539930476L205.74,114.6605902726223L205.8035,121.89606503988176L206.121,123.82402037159277L206.24800000000002,125.83439917395292L206.50199999999998,130.27367812794688L206.56550000000001,135.30073516752975L206.629,136.65867643835452L206.6925,130.18074898310635L206.756,127.80606325518718L206.8195,133.1912526424792L206.883,128.22624879619877L207.391,103.17524419675111L207.5815,103.23611646655851L207.9625,117.54335765371786L208.2165,121.45421565083082L208.85150000000002,129.4103851424972L208.915,117.15338547031253L208.9785,122.4818661616194L209.423,126.53121325446355L209.7405,130.6785174939953L209.931,134.35095355303122L210.058,133.8155628318923L210.1215,135.14409427905602L210.185,136.75918169819093L210.2485,134.945844505837L210.5025,127.68429205077761L211.0105,132.64755298928395L211.07399999999998,136.34454333359398L211.2645,138.04114331824346L211.3915,134.27797654256753L211.455,135.19445608482454L211.582,132.7615239149187L211.89950000000002,133.76720409021215L212.344,132.13533738108612L212.471,136.44546805518092L212.66150000000002,132.91703257277814L212.7885,126.95427790276457L213.106,131.9656898962803L213.2965,133.82588769191898L213.487,137.33792896097913L214.0585,132.10133377543323L214.12199999999999,127.38355698177581L214.3125,30.818236086454164L214.50300000000001,69.78933579703715L214.63,98.01399046101187L214.6935,110.4853189757795L215.0745,121.85259832284896L215.26500000000001,127.49046604227192L215.3285,128.05426323619062L215.4555,129.4261440328528L215.646,133.0707545885567L215.773,129.82631103320415L215.9,130.15935736930965L216.0905,129.65110966296328L216.154,130.39781646251728L216.2175,135.03428962351597L216.662,133.49569260695856L216.9795,134.84800094344038L217.1065,136.02844761466423L217.17,136.60642753568928L217.2335,129.19338316524113L217.48749999999998,132.30741778933083L217.55100000000002,136.77302909079722L217.8685,135.75511656065902L217.932,131.75527400486615L218.186,132.2761127251786L218.3765,121.51825371170204L218.44,126.79256099534093L218.567,132.47640953083635L219.01149999999998,131.03704944873851L219.07500000000002,127.79498819932344L219.3925,124.60240436160939L220.1545,123.54420204238221L220.472,131.8367034360461L220.59900000000002,134.73054369514838L220.6625,123.84700142000261L220.853,130.30276186176252L220.9165,128.87985307156285L221.488,127.04291865792791L221.869,127.96004765790727L222.05949999999999,131.62661177850975" style="fill: none;" fill="none"></path></g></g></g></g><g opacity="0.2"><g><g><g><path stroke="rgb(204, 51, 17)" stroke-width="2px" d="M38.481,-29.758578084409237L38.9255,24.735262466594577L39.116,-48.98682740703225L39.751,-103.32282903790474L39.9415,12.388785917311907L40.005,-35.34630794264376L40.5765,24.603999418206513L40.7035,6.549709442071617L40.767,-53.15218345448375L41.719500000000004,-9.308988728560507L41.783,26.293344179168344L42.037,-9.359778172336519L42.3545,14.12294184602797L42.418,30.431709916330874L42.6085,-10.628322755917907L42.9895,29.288066749460995L43.053000000000004,25.347574695944786L43.18,39.943323203362525L43.3705,52.15386390965432L43.4975,-4.1577662685886025L43.561,16.97583318501711L43.687999999999995,-131.87312745675445L43.815,-191.44373658299446L43.878499999999995,9.070252150297165L44.323,14.50977878458798L44.830999999999996,72.06928860442713L44.8945,2.257908194325836L44.958,8.058483328670263L45.211999999999996,16.03532707132399L45.847,61.13579365238547L45.9105,-8.534247672185302L46.0375,7.265351561829448L46.2915,17.55847161449492L46.482,30.1460167048499L46.5455,70.45386413857341L46.609,39.52801433671266L46.7995,28.294522862881422L47.5615,31.34719430282712L47.9425,36.48348661419004L48.133,41.929188382811844L48.26,48.44665931351483L48.3235,53.48923670873046L48.4505,48.86430975794792L48.7045,37.53258598782122L48.9585,35.338133888319135L49.0855,71.25322284456342L49.403,-1.1378769176080823L50.292,23.57602604944259L50.609500000000004,48.33752728346735L50.673,54.873658309690654L50.927,58.658735908567905L50.990500000000004,54.55584611091763L51.2445,59.051364625804126L51.308,55.58266941271722L51.435,-24.13756881095469L51.625499999999995,48.205777269788086L51.943,26.24338361248374L52.006499999999996,7.026593515649438L52.07,72.52575121866539L52.387499999999996,78.81171677773818L52.451,23.918797809630632L52.5145,53.62007495760918L52.705,21.838368115015328L53.2765,73.28940604394302L53.4035,41.82943302486092L53.7845,58.60504539497197L54.1655,70.57650168472901L54.229,46.28799398243427L54.61,60.276590020395815L54.8005,-17.052493209019303L55.0545,3.190571058541508L55.3085,64.18524283263832L55.4355,5.826752481982112L55.6895,26.545260649174452L55.753,45.91929909121245L55.8165,80.97457829909399L55.9435,57.69557036738843L56.261,31.262524507939816L56.5785,58.425562421791255L56.642,34.60441188700497L56.7055,60.8694858038798L57.658,-94.71736490912735L58.1025,55.30762727186084L58.4835,65.24060022830963L58.547000000000004,26.843024383299053L58.674,79.88381231017411L58.801,3.773437429219456L59.055,44.0513934828341L59.6265,55.61404241062701L59.753499999999995,63.407144824042916L59.817,89.72244869265705L60.0075,15.83298781234771L60.3885,29.461830470710993L60.896499999999996,-82.41515039652586L60.96,96.85171898500994L61.1505,71.3732028035447L61.214,80.07254762388766L61.7855,54.54990927875042L61.849,77.40281740017235L62.5475,82.63911373261362L62.738,71.4245983636938L62.8015,79.4374568159692L62.9285,63.38916855212301L63.0555,74.42495729820803L63.94449999999999,63.33742589969188L64.262,87.59427049709484L64.389,94.95070491731167L64.5795,58.890790411271155L64.70649999999999,86.09239701228216L65.024,40.100861655548215L65.08749999999999,12.075470376759768L65.46849999999999,57.55676453746855L65.5955,71.83360776444897L65.659,66.72817558329552L65.786,98.98104206705466L65.84949999999999,80.57190462760627L66.04,69.95741856563836L66.167,73.8752978160046L66.4845,67.16487983986735L66.548,60.48049378488213L67.1195,65.87514708563685L67.2465,81.76487634237856L67.5005,66.89204458426684L67.56400000000001,51.169292617589235L67.6275,66.49959200341254L67.8815,46.34808757156134L68.1355,79.01861486071721L68.199,58.286020963452756L68.3895,62.80845726188272L68.5165,62.50715007819235L68.58,90.60214631073177L68.6435,59.46163806412369L68.70700000000001,72.62049705069512L68.7705,6.841370568610728L68.834,63.33443158119917L68.961,83.4178852038458L69.0245,83.3323658099398L69.342,74.51691085053608L69.4055,77.11837786529213L69.6595,59.61168553959578L69.85000000000001,36.01226998772472L69.977,89.51221437938511L70.358,33.540921134874225L70.485,-85.64346089214087L70.8025,74.38572550937533L71.0565,-36.40550925582647L71.12,77.21497830981389L71.247,80.44642299693078L72.009,96.02690857183188L72.4535,102.24827352259308L72.517,32.76586924958974L72.64399999999999,79.40546734072268L72.7075,76.73527605412528L72.771,62.500260037370026L72.8345,90.60637358389795L72.9615,91.1698804940097L73.152,88.57999703660607L73.40599999999999,77.56868606712669L73.4695,76.48101800633594L73.7235,76.16881626937538L73.914,87.0331258866936L74.16799999999999,100.5410146554932L74.3585,51.7543762344867L74.422,70.41561664128676L74.4855,55.13976929988712L74.54899999999999,65.47142177633941L74.6125,88.2835543253459L74.7395,78.55981066869572L74.803,71.00144624756649L74.8665,77.27173566864803L75.057,0.7808284955098941L75.1205,19.010747166350484L75.184,72.26329246815294L75.31099999999999,94.11218176875263L75.438,65.14168410841376L75.50150000000001,46.51425670646131L75.946,103.81077936664224L76.1365,78.81612018728629L76.3905,99.54925285466015L76.581,87.43219912331551L76.708,80.44175020232797L76.835,90.77108700340614L77.089,77.10264992248267L77.343,92.68992192856967L77.5335,81.22712160740048L77.597,89.29156211717054L77.6605,59.656455263495445L77.724,65.32836795132607L78.105,98.18924168404192L78.486,107.67444487474859L78.613,68.83583389036357L78.6765,94.66949282260612L78.93050000000001,89.51697524217889L79.121,92.34602600382641L79.1845,82.4204663168639L79.375,91.11827253410593L79.43849999999999,72.94224641565233L79.502,75.47681268816814L79.629,94.42226468864828L79.756,45.46419376321137L80.137,69.30032107094303L80.3275,90.94910908071324L80.391,71.1194628039375L80.58149999999999,40.05335663724691L80.645,96.07709707971662L80.7085,75.55715678073466L80.8355,86.80035129701719L80.899,90.76179321901873L81.28,73.36086042970419L81.534,97.39645182900131L81.5975,80.86643574107438L81.72449999999999,79.41407212102786L81.8515,90.470468823798L81.9785,50.67875279393047L82.042,90.0739547451958L82.10549999999999,106.53416902106255L82.169,83.07562631135806L82.2325,98.45644575590268L82.423,67.62400522176176L82.55,52.83268316462636L82.677,104.4872207804583L82.86749999999999,45.8272730121389L82.9945,69.64556392095983L83.058,84.1969312406145L83.1215,100.71738933958113L83.5025,95.55417924467474L83.566,98.15817433455959L83.693,76.9399827932939L83.8835,74.663658359088L84.1375,61.72092907410115L84.328,95.88445050222799L84.5185,111.68958767130971L84.58200000000001,77.09126322343946L84.709,100.53203688049689L84.836,-256.8456203788519L84.96300000000001,87.11715848231688L85.2805,105.77264337381348L85.471,80.26439122669399L85.598,96.49862770503387L86.5505,92.9241833165288L86.8045,79.49320916133001L86.9315,93.06802457477897L86.995,89.70019852323458L87.24900000000001,111.19587739277631L87.37599999999999,75.35336698684841L87.4395,81.71329428488389L87.63,64.24597880151123L87.75699999999999,97.87023279396817L87.884,117.4325895209331L88.0745,106.23891782062128L88.2015,83.86156756943092L88.265,65.9678051834926L88.392,104.72940830560401L88.646,98.0588178737089L88.89999999999999,102.23049410898238L89.3445,99.12648409418762L89.408,57.24531397037208L89.4715,96.00415071519092L89.535,110.39336377335712L89.66199999999999,101.98719796072692L89.8525,99.33346506487578L89.916,80.14996474422514L89.9795,86.65552056673914L90.17,111.37332961708307L90.2335,82.93696035444736L90.297,76.40258551156148L90.3605,95.6069994373247L90.8685,97.266587510705L90.932,96.94965599384159L91.1225,85.25022162403911L91.567,62.1677559921518L91.75750000000001,98.16910515120253L92.2655,85.0788150220178L92.329,115.38379184831865L92.456,95.70416455436498L92.51950000000001,88.9448739127256L92.583,99.45914355386049L92.7735,39.27562126237899L92.837,111.24942803336307L92.964,101.83903618063778L93.091,94.88453462300822L93.4085,103.38008446898311L93.472,111.08798349788412L93.726,77.37360466318205L93.7895,62.02495083026588L93.853,112.27597158914432L93.9165,86.12498224293813L94.107,93.27977676922455L94.1705,92.5611144285649L94.234,86.67816963326186L94.42450000000001,96.80020945426077L94.488,105.15780306933448L94.996,91.75137403700501L95.25,107.46128358924761L95.377,114.44969140039757L95.504,99.34802739927545L95.5675,115.82483475841582L95.758,109.9739778675139L95.9485,88.4040730544366L96.012,89.47178071876988L96.07549999999999,112.66576658282429L96.139,110.29559253994375L96.3295,71.87731030909345L96.83749999999999,99.06162964226678L96.9645,113.76256524282508L97.0915,105.67515188641846L97.21849999999999,90.30755821196362L97.282,106.84701831825078L97.4725,96.06850266037509L97.59949999999999,96.52319873031229L97.7265,91.77252076379955L98.044,63.411206321790814L98.4885,95.61554205184802L98.552,117.10368850082159L98.74249999999999,114.35897598322481L98.8695,100.84690656559542L99.2505,66.85516991466284L99.31400000000001,94.507618307136L99.441,89.52592193428427L99.568,117.21122753270902L99.822,81.37259471742436L100.07600000000001,109.87818039767444L100.203,100.72546053025872L100.5205,89.8363415854983L100.584,86.86812754068524L100.6475,85.27704097842798L101.092,113.69225833378732L101.1555,106.55330572091043L101.5365,91.16888066101819L101.7905,103.89867142122239L101.854,108.27067170804366L101.9175,101.79508497286588L102.489,90.91473658382893L102.616,108.30652582272887L102.8065,105.19071985082701L103.1875,115.74822579324245L103.25099999999999,106.37658912502229L103.505,61.74681076128036L103.6955,87.77607950661331L103.759,48.75838962662965L103.8225,95.79294247133657L104.01299999999999,108.18740064324811L104.7115,76.97857738286257L104.902,100.43244211748242L105.0925,115.9810340560507L105.15599999999999,87.06915095727891L105.2195,102.03298305906355L105.41,85.72269192710519L105.4735,89.78985712211579L105.53699999999999,102.27932533062994L106.4895,96.85001978697255L106.67999999999999,22.011769202537835L106.807,121.81692194472998L106.8705,123.55292212497443L106.9975,97.77286563813686L107.06099999999999,112.8932389493566L107.25150000000001,107.54722778266296L107.442,96.78374588303268L107.5055,112.24260410573334L107.63250000000001,111.75116805871949L107.7595,69.80684786150232L107.8865,103.4054014836438L108.01350000000001,108.6942900675349L108.204,107.77038221759722L108.331,114.69730548025109L108.458,113.91630122135393L108.585,114.00889715342782L108.712,117.08285778341815L108.839,101.4501892151311L109.474,109.47576056979597L109.728,116.78889134246856L109.982,121.93328333715908L110.0455,86.03615252114832L110.109,97.92384560033679L110.236,106.00283808354288L110.4265,104.23066259874031L110.617,95.87052536709234L110.744,86.50686664087698L110.9345,120.93029025173746L111.3155,113.75609223078936L111.4425,98.32214694516733L111.56949999999999,123.19755920371972L111.633,109.67936904681846L111.8235,112.42354797478765L111.887,122.42706614243798L111.95049999999999,88.2666245107539L112.141,111.91534270811826L112.649,109.68927930854261L112.9665,114.18190711457282L113.09349999999999,99.07353438949212L113.47449999999999,108.94772441871464L113.7285,120.89280946576037L113.792,110.61105279996991L113.85549999999999,106.19207072351128L113.919,114.77470964938402L114.3,112.16474146395922L114.4905,86.53834324842319L114.935,115.83267023717053L115.062,99.9010490141809L115.2525,114.79198914649896L115.316,90.42907677404583L115.5065,111.48086087824777L115.57000000000001,120.78619255963713L115.8875,110.78118500346318L115.95100000000001,117.84126219036989L116.0145,87.11697198497131L116.205,108.77435959456488L116.3955,93.60395059967414L116.459,123.03921777685173L116.5225,114.3179906012956L116.586,96.47272529592738L116.6495,83.67458325857297L117.0305,129.47106311377138L117.4115,115.68762710713781L117.7925,95.4437676356174L118.0465,98.36522265151143L118.1735,116.27404469810426L118.491,125.76172415912151L118.745,85.50340731209144L119.1895,69.2803710354492L119.3165,118.55549780931324L119.50699999999999,104.94159048004076L119.634,114.05125018255785L119.6975,112.63949635950848L119.88799999999999,20.832028438337147L119.9515,113.56846294994466L120.0785,117.90098278480582L120.142,116.89188709179871L120.3325,123.51222685002722L121.41199999999999,107.60769954696298L121.4755,115.49306634161621L121.539,115.63117539673112L121.6025,95.56293425895274L121.8565,100.87401084648445L122.047,120.30430155037902L122.301,115.93067459226586L122.3645,115.02447621943429L122.428,123.00546175730415L122.682,90.68907997617498L122.7455,109.44172998471186L122.809,103.48459032876417L122.93599999999999,120.97676176391542L123.063,111.82619179645553L123.19,122.41095743421465L123.317,100.32891018828377L123.825,120.60817307257093L124.1425,68.44960824865848L124.206,105.38736576028168L124.7775,75.85577011387795L124.841,123.58731793402694L125.5395,89.56887330906466L125.857,107.20140471868217L126.0475,114.66341735841706L126.111,127.90761183178984L126.3015,100.83071755990386L126.4285,101.84347585355863L126.492,111.0905789192766L127,104.99212608020753L127.06349999999999,116.73449887358584L127.12699999999998,109.19494219170883L127.19050000000001,131.07560338731855L127.38099999999999,127.35543204518035L127.508,107.77717900974676L127.5715,82.15110716456547L127.63499999999999,67.64268603920937L128.143,114.49425131478347L128.4605,119.96590988757089L128.524,110.00692573189735L128.71450000000002,110.32150531001389L129.159,121.69103882671334L129.286,116.83346420805901L129.921,120.5822603025008L130.23850000000002,117.7807981967926L130.302,126.79337566997856L130.429,113.19143525371328L130.4925,116.63204448460601L130.8735,29.604822129942477L130.93699999999998,107.20763165783137L131.318,121.50605677207932L131.3815,127.29658695217222L131.953,117.7913534285035L132.207,110.75777958659455L132.334,114.71677373093553L132.588,119.0188426936511L133.1595,121.63610499748029L133.28650000000002,107.5202167504467L133.477,122.84425811422989L133.604,106.01932237669826L133.6675,103.87173809623346L133.98499999999999,115.81487528211437L134.1755,87.83089418476447L134.493,124.77813456836157L134.62,126.14807672263123L134.874,91.02670233743265L135.001,114.90566186886281L135.06449999999998,116.66374644311145L135.12800000000001,87.80071269767359L135.255,116.17227154248394L135.382,130.32039015716873L135.6995,87.32627381151542L135.89000000000001,121.27628168137744L136.017,118.2771608820185L136.2075,107.17230077181011L136.398,84.41494663758203L136.65200000000002,125.50932331406511L136.8425,112.19686045125127L137.0965,120.15227254061028L137.16,102.29453004477546L137.2235,99.27189503842965L137.668,94.76062267832458L137.795,91.25509423948824L137.922,110.87175018666312L138.11249999999998,80.59714911552146L138.17600000000002,124.37563444301486L138.557,129.29305139742792L138.6205,128.06931021087803L138.87449999999998,117.54358134395443L139.1285,124.05382032203488L139.319,133.37239331495948L139.3825,129.29410044499673L139.446,120.73483326286077L139.5095,111.62567088659853L139.63649999999998,113.93126763333566L139.827,130.61843104707077L140.2715,134.77843824704178L140.335,107.4606722923927L140.6525,116.19783463003114L140.7795,103.19132325286046L140.843,89.87256869487464L140.9065,129.00670803547837L141.478,107.34039704594761L141.732,113.91251169890165L141.7955,112.91629986418411L141.859,117.82716609933414L141.92249999999999,88.74310968723148L142.0495,113.86692086863331L142.367,120.41733707347885L142.4305,113.80942270089872L142.5575,118.80627198307775L142.621,130.17494035931304L142.68449999999999,105.01121097523719L142.875,125.27309593325481L143.00199999999998,101.92000711150467L143.06550000000001,127.20576792536303L143.129,133.29768299637362L143.7005,117.2512597059831L143.891,132.6389847327955L144.4625,127.89249518583529L144.8435,127.46629953663796L144.907,129.9091039346531L145.28799999999998,112.73254817398265L145.35150000000002,120.84471646277234L145.415,127.63041979097761L145.542,130.87250259751454L145.923,123.43141651409678L146.304,117.73070293758065L146.3675,123.47144350688905L146.87550000000002,87.95632919110358L146.939,125.46887411200441L147.1295,122.0733402534388L147.32,124.1910331537947L147.57399999999998,130.34824301768094L147.701,135.377791501116L147.955,126.56935868482105L148.33599999999998,134.46149895945564L148.59,114.82523229834624L148.6535,117.15305590233766L148.844,115.92918002326041L148.971,125.09548052377068L149.16150000000002,124.7498802205082L149.4155,135.0971142911585L149.5425,123.64668625569902L149.6695,91.30559875676408L149.733,128.4633583801333L149.7965,121.96758848777972L150.241,127.10750972665846L150.368,122.48215538612567L150.4315,121.08374907448888L150.8125,110.68211346911266L150.876,127.31121145235375L150.93949999999998,127.58571482310072L151.0665,120.36290834122337L151.1935,112.8430608024355L151.9555,136.77379665942863L152.52700000000002,96.30272778496146L152.781,121.8617538344115L153.0985,119.40426277043298L153.162,103.20628448436037L153.4795,120.14063458819874L153.543,121.66025899397209L153.6065,123.00705216522329L153.8605,112.17149163177237L153.924,119.6124482031446L154.305,139.10512744961306L154.559,115.36294299922884L154.6225,124.5461240997538L154.686,132.98104417673312L154.81300000000002,121.98147994978353L154.8765,124.70540578407235L155.194,128.0664091410581L155.3845,127.05931829451583L155.51149999999998,129.69072590395808L155.702,135.3880799380131L155.8925,131.60497351246886L156.083,117.26868684682995L156.21,126.27621594048105L156.591,119.10769054712728L156.6545,90.90669129556045L156.7815,132.02537220250815L156.9085,125.97433372330852L157.48,113.90324381692335L157.5435,134.84301813342609L157.607,130.87304136762396L157.6705,130.03054478950799L158.55949999999999,-18.058708554133773L158.8135,128.25073327450082L159.0675,120.85500230942853L159.131,122.80386589746922L159.3215,122.2386416576337L159.385,129.15477915713564L159.5755,130.09938821243122L159.70250000000001,122.09666278259829L159.8295,134.1290674409829L160.147,128.0747756191995L160.3375,110.81736548850313L160.46450000000002,138.84140336641576L160.528,120.79137822194025L160.655,132.35721573629417L160.8455,110.92242565983906L161.036,107.0303970137611L161.16299999999998,114.80718608992174L161.3535,113.02619601530023L161.544,131.2290233564563L161.6075,138.03588377241977L161.798,101.20165041927248L161.98850000000002,140.86207231786102L162.4965,132.71507305954583L162.56,122.08009042125195L162.68699999999998,121.87371815717779L163.0045,117.05031658685766L163.322,131.6474482829217L163.3855,120.14847783767618L163.44899999999998,120.45289331045933L163.576,122.56803482351825L163.6395,135.0276466201758L163.7665,106.7786514996551L163.8935,128.3807141536381L164.084,128.6870153218042L164.1475,124.25167587399483L164.4015,120.39060319704004L164.719,105.79516810877249L164.846,97.30910372501239L165.227,133.41363254049793L165.2905,132.1358123042155L165.354,135.55372325400822L165.4175,116.88217627862468L165.481,128.0675281251315L165.6715,134.32012749591377L165.79850000000002,134.35612536896951L165.989,131.32634647819214L166.0525,131.17962487204932L166.243,137.88901452254504L166.37,80.92277866136283L166.49699999999999,123.28739652922377L166.56050000000002,-231.16186904907227L166.624,124.61958333197981L166.87800000000001,131.5499619760085L167.132,98.57406341517344L167.1955,137.5735710990848L167.259,133.64523634128273L167.513,135.08420064509846L167.57649999999998,132.48693500109948L167.7035,135.85293752304278L167.767,131.61389689240605L167.894,117.79269776353613L167.9575,117.74379142490216L168.021,113.2450247479137L168.148,120.61103787901811L168.2115,134.20611545199063L168.33849999999998,77.2247849619016L168.529,120.41217213310301L168.656,124.21154786180705L168.7195,111.91632181918249L169.10049999999998,47.37989449687302L169.16400000000002,132.9496867202688L169.2275,121.09704996156506L169.4815,129.56091339047998L169.6085,136.52893859590404L169.7355,118.33270082762465L169.9895,134.6988492097007L170.434,138.59722135576885L170.62449999999998,130.77674916177057L170.7515,132.0076782668475L170.8785,135.61902711272705L170.942,131.4471268216148L171.196,127.51159248920158L171.323,140.44787077920046L171.38649999999998,132.73602292803116L171.45000000000002,135.73524086142424L171.6405,129.99962767399848L171.704,133.68327661929652L171.8945,135.06918372341897L171.958,138.31004782160744L172.14849999999998,128.51515024714172L172.339,131.2741634848062L172.593,122.50981397856958L172.97400000000002,121.52123299357481L173.0375,117.79808805487119L173.228,131.04633625526913L173.2915,135.55331270082388L173.4185,136.62317544559482L173.5455,131.74706376786344L173.609,90.47251511411741L173.73600000000002,137.89047541841865L173.7995,124.78256388031878L173.9265,35.15133607480675L173.99,99.71388856694102L174.0535,125.34996133227833L174.117,125.90265398658812L174.244,137.24299289798364L174.371,138.21589774498716L174.43449999999999,135.12939775874838L174.6885,135.29828146612272L174.75199999999998,128.046148276655L174.879,129.25341294077225L175.0695,122.93155441340059L175.1965,130.15985997673124L175.387,126.14180833962746L176.149,143.21314721938688L176.403,126.20584945590235L176.5935,114.33102210331708L176.911,137.31240876414813L177.03799999999998,128.71400563209318L177.2285,140.46605038503185L177.6095,121.23611740581691L177.673,138.1259878927376L177.79999999999998,126.34954825090244L177.9905,134.5448075827444L178.181,129.86024681059644L178.2445,130.0170470441226L178.308,129.08246222115122L178.8795,118.05987334274687L178.943,133.98686062474735L179.0065,135.26041991473176L179.07,134.16623998829164L179.197,131.98796912375838L179.32399999999998,129.5066063995473L179.5145,138.2190474779345L179.832,113.35166755644605L179.959,131.21307524316944L180.0225,132.03544823965058L180.08599999999998,133.70967117417604L180.14950000000002,119.83801156212576L180.6575,138.69732769136317L181.229,46.35843817424029L181.5465,66.28541016299278L182.0545,132.44493942521513L182.118,140.39778588095214L182.3085,131.03236190555617L182.5625,130.76824022037908L182.75300000000001,136.15498033515178L183.007,134.87263883335982L183.1975,132.98851184127852L183.388,134.97217143059243L183.45149999999998,137.42667335656006L183.51500000000001,111.56509033218026L183.642,126.41352979163639L184.15,120.62430768320337L184.27700000000002,108.87147808726877L184.404,96.86221464117989L184.531,129.8183781565167L184.8485,133.95192863582633L185.166,100.58095098985359L185.674,137.49894755356945L185.73749999999998,130.32472363021225L185.80100000000002,127.77349951840006L186.055,119.42695587105118L186.2455,131.46674012579024L186.436,135.32606957061216L186.944,136.64134210022166L187.071,120.90220945002511L187.32500000000002,131.08613012637943L187.3885,135.55404055851977L187.452,135.84893171547446L187.5155,125.80008821724914L187.6425,122.4440503520891L187.7695,129.80435977270827L187.96,126.58300666417927L188.1505,139.07494466740172L188.214,123.32525549037382L188.341,137.63491965993308L188.468,124.1045372390654L188.9125,139.26886046293657L189.1665,136.39374874229543L189.2935,138.5466067532543L189.4205,127.88822387857363L189.54749999999999,128.1084409803152L189.61100000000002,136.54127850360237L189.738,123.37969458359294L189.9285,123.23404792742804L190.0555,126.87435178132728L190.246,132.71252944297157L190.37300000000002,130.34889834863134L190.5635,120.36487433407456L190.62699999999998,125.54875973192975L190.69050000000001,119.17363290023059L191.3255,138.10999056487344L191.38899999999998,137.4059591999976L191.516,136.79766831966117L191.5795,126.1496982134413L191.643,137.8067549468251L191.7065,124.23381098243408L191.897,134.52284363494255L191.9605,137.1593009190401L192.0875,133.63785674492829L192.278,120.54461892158724L192.405,132.48290717648342L192.532,111.79115619789809L192.659,134.74233287898824L193.2305,137.51386863633525L193.294,137.4627877904568L193.4845,103.07828513951972L193.6115,119.5430815515574L193.73850000000002,138.74022208084352L193.8655,133.7777660174761L193.9925,116.28200968890451L194.056,139.24748968030326L194.2465,103.32756992476061L194.6275,130.74069818877615L194.691,122.49093889305368L194.945,127.55488318554126L195.1355,123.19540671352297L195.326,133.25556567916647L195.453,-26.62621011212468L195.5165,137.4734090733109L195.7705,127.90629857964814L196.02450000000002,133.11005371552892L196.215,113.67058319784701L196.2785,132.57820732006803L196.342,139.4435916391667L196.4055,135.62359629769344L196.596,122.87376872892492L196.85,132.4107119818218L196.977,129.87864011130296L197.231,127.89318159967661L197.2945,137.9051918721525L197.4215,125.45563539071009L197.48499999999999,124.82977361115627L197.8025,123.06508651282638L197.993,129.66491156304255L198.0565,128.04898200021125L198.1835,138.24887021665927L198.31050000000002,138.7606137524126L198.4375,133.51294237701222L198.501,123.08930785558186L198.6915,130.38124786736444L198.755,127.82638187683187L198.882,128.82944230851717L199.0725,99.68991329707205L199.136,139.93422989198007L199.263,124.20879961620085L199.644,128.3393117429223L199.8345,127.8614148851484L200.025,135.6737148690736L200.08849999999998,135.26144824037328L200.3425,135.48063313111197L200.7235,132.32661463017575L201.549,122.59702220954932L201.803,119.09114926867187L201.93,122.21788346697576L202.2475,136.0968436730327L202.43800000000002,123.12648817361332L202.565,134.41827431425918L202.819,135.05131494649686L203.13649999999998,124.93518864549696L203.3905,124.49288687831722L203.6445,140.0598410347011L203.835,131.63515499955975L204.4065,136.63524596823845L204.7875,118.4966501260642L205.42249999999999,63.3411765685305L205.48600000000002,132.95937681151554L205.5495,103.22905270196497L205.74,121.77991258259863L205.8035,132.74927719077095L206.121,126.71595336915925L206.24800000000002,128.84996737749316L206.50199999999998,136.9325965589378L206.56550000000001,142.8413207269041L206.629,138.69558834459167L206.6925,120.46385780023411L206.756,124.24403466330841L206.8195,141.26903672341723L206.883,120.7787430267781L207.391,65.59873729757965L207.5815,103.32742487126961L207.9625,139.0042194344569L208.2165,127.32050264650024L208.85150000000002,141.3446393799968L208.915,98.7678859620355L208.9785,130.47458719857968L209.423,132.60523389372975L209.7405,136.89947385329287L209.931,139.85960764158517L210.058,133.01247675018385L210.1215,137.13689144980162L210.185,139.1818128268933L210.2485,132.22583871730603L210.5025,116.79196336818859L211.0105,140.09244439704344L211.07399999999998,141.89002885005902L211.2645,140.58604329521768L211.3915,128.63322637905367L211.455,136.56917539821006L211.582,129.11212566005997L211.89950000000002,135.27572435315233L212.344,129.68753731739707L212.471,142.91066406632308L212.66150000000002,127.62437934917398L212.7885,118.01014589774422L213.106,139.48280788655393L213.2965,136.61618438537698L213.487,142.60599086456932L214.0585,124.2464409971144L214.12199999999999,120.30689179128967L214.3125,-114.02974525652826L214.50300000000001,128.2459853629116L214.63,140.35097245697398L214.6935,129.19231174793094L215.0745,138.90351734345313L215.26500000000001,135.94726762140635L215.3285,128.8999590270687L215.4555,131.48396522784606L215.646,138.53767042211257L215.773,124.95964570017532L215.9,130.65892687346786L216.0905,128.88873810344376L216.154,131.51787666184828L216.2175,141.98899936501402L216.662,131.18779708212242L216.9795,136.87646344816312L217.1065,137.79911762150005L217.17,137.4733974172268L217.2335,118.0738166095689L217.48749999999998,136.9784697254654L217.55100000000002,143.47144604299683L217.8685,134.22824776545167L217.932,125.75551017117687L218.186,133.05737080564722L218.3765,105.38146519148722L218.44,134.70402192079928L218.567,141.0021823340794L219.01149999999998,128.87800932559185L219.07500000000002,122.9318963252008L219.3925,119.8135286050383L220.1545,121.95689856354147L220.472,144.27545552654192L220.59900000000002,139.0713040838018L220.6625,107.52168800728396L220.853,139.98640252440237L220.9165,126.74548988626339L221.488,124.28751703747548L221.869,129.33574115787633L222.05949999999999,137.12645795941353" style="fill: none;" fill="none"></path></g></g></g></g></g></g><g transform="translate(76, 178)" clip-path="url(#clip_1)"><clipPath id="clip_1"><rect width="254" height="22"></rect></clipPath><g><g><line x1="0" y1="0" x2="0" y2="5" style="visibility: inherit;" fill="rgb(0, 0, 0)" stroke="rgb(204, 204, 204)" stroke-width="1px"></line><line x1="31.75" y1="0" x2="31.75" y2="5" style="visibility: inherit;" fill="rgb(0, 0, 0)" stroke="rgb(204, 204, 204)" stroke-width="1px"></line><line x1="63.5" y1="0" x2="63.5" y2="5" style="visibility: inherit;" fill="rgb(0, 0, 0)" stroke="rgb(204, 204, 204)" stroke-width="1px"></line><line x1="95.25" y1="0" x2="95.25" y2="5" style="visibility: inherit;" fill="rgb(0, 0, 0)" stroke="rgb(204, 204, 204)" stroke-width="1px"></line><line x1="127" y1="0" x2="127" y2="5" style="visibility: inherit;" fill="rgb(0, 0, 0)" stroke="rgb(204, 204, 204)" stroke-width="1px"></line><line x1="158.75" y1="0" x2="158.75" y2="5" style="visibility: inherit;" fill="rgb(0, 0, 0)" stroke="rgb(204, 204, 204)" stroke-width="1px"></line><line x1="190.5" y1="0" x2="190.5" y2="5" style="visibility: inherit;" fill="rgb(0, 0, 0)" stroke="rgb(204, 204, 204)" stroke-width="1px"></line><line x1="222.25" y1="0" x2="222.25" y2="5" style="visibility: inherit;" fill="rgb(0, 0, 0)" stroke="rgb(204, 204, 204)" stroke-width="1px"></line><line x1="254" y1="0" x2="254" y2="5" style="visibility: inherit;" fill="rgb(0, 0, 0)" stroke="rgb(204, 204, 204)" stroke-width="1px"></line></g><g transform="translate(0, 8)"><text x="0" y="0" dx="0em" dy="0.95em" style="text-anchor: middle; visibility: hidden; font-family: &quot;Helvetica Neue&quot;, sans-serif; font-size: 12px; font-weight: 200;" fill="rgb(50, 49, 63)" stroke="none" stroke-width="1px">-50k</text><text x="31.75" y="0" dx="0em" dy="0.95em" style="text-anchor: middle; visibility: inherit; font-family: &quot;Helvetica Neue&quot;, sans-serif; font-size: 12px; font-weight: 200;" fill="rgb(50, 49, 63)" stroke="none" stroke-width="1px">0</text><text x="63.5" y="0" dx="0em" dy="0.95em" style="text-anchor: middle; visibility: hidden; font-family: &quot;Helvetica Neue&quot;, sans-serif; font-size: 12px; font-weight: 200;" fill="rgb(50, 49, 63)" stroke="none" stroke-width="1px">50k</text><text x="95.25" y="0" dx="0em" dy="0.95em" style="text-anchor: middle; visibility: inherit; font-family: &quot;Helvetica Neue&quot;, sans-serif; font-size: 12px; font-weight: 200;" fill="rgb(50, 49, 63)" stroke="none" stroke-width="1px">100k</text><text x="127" y="0" dx="0em" dy="0.95em" style="text-anchor: middle; visibility: hidden; font-family: &quot;Helvetica Neue&quot;, sans-serif; font-size: 12px; font-weight: 200;" fill="rgb(50, 49, 63)" stroke="none" stroke-width="1px">150k</text><text x="158.75" y="0" dx="0em" dy="0.95em" style="text-anchor: middle; visibility: inherit; font-family: &quot;Helvetica Neue&quot;, sans-serif; font-size: 12px; font-weight: 200;" fill="rgb(50, 49, 63)" stroke="none" stroke-width="1px">200k</text><text x="190.5" y="0" dx="0em" dy="0.95em" style="text-anchor: middle; visibility: hidden; font-family: &quot;Helvetica Neue&quot;, sans-serif; font-size: 12px; font-weight: 200;" fill="rgb(50, 49, 63)" stroke="none" stroke-width="1px">250k</text><text x="222.25" y="0" dx="0em" dy="0.95em" style="text-anchor: middle; visibility: inherit; font-family: &quot;Helvetica Neue&quot;, sans-serif; font-size: 12px; font-weight: 200;" fill="rgb(50, 49, 63)" stroke="none" stroke-width="1px">300k</text><text x="254" y="0" dx="0em" dy="0.95em" style="text-anchor: middle; visibility: hidden; font-family: &quot;Helvetica Neue&quot;, sans-serif; font-size: 12px; font-weight: 200;" fill="rgb(50, 49, 63)" stroke="none" stroke-width="1px">350k</text></g><line x1="0" y1="0" x2="254" y2="0" fill="rgb(0, 0, 0)" stroke="rgb(204, 204, 204)" stroke-width="1px"></line></g></g></g></g></svg>